<svg xmlns="http://www.w3.org/2000/svg" xmlns:xlink="http://www.w3.org/1999/xlink" width="2000" zoomAndPan="magnify" viewBox="0 0 1500 1499.999933" height="2000" preserveAspectRatio="xMidYMid meet" version="1.0"><defs><clipPath id="7a2cc7a358"><path d="M 393.761719 80 L 1106.261719 80 L 1106.261719 1423 L 393.761719 1423 Z M 393.761719 80 " clip-rule="nonzero"/></clipPath></defs><g clip-path="url(#7a2cc7a358)"><path fill="#0F7A68" d="M 978.949219 648.855469 C 984.296875 648.855469 988.816406 644.890625 989.511719 639.585938 C 996.714844 584.378906 1023.59375 524.410156 1049.585938 466.414062 C 1078.671875 401.53125 1106.140625 340.242188 1106.140625 287.351562 C 1106.140625 186.132812 1030.105469 89.980469 943.425781 81.589844 C 896.78125 77.078125 859.007812 96.53125 825.675781 113.695312 C 799.746094 127.046875 775.25 139.660156 749.953125 139.660156 C 724.652344 139.660156 700.160156 127.046875 674.230469 113.695312 C 640.898438 96.53125 603.121094 77.089844 556.476562 81.589844 C 469.796875 89.980469 393.761719 186.132812 393.761719 287.351562 C 393.761719 340.242188 421.234375 401.53125 450.316406 466.414062 C 476.3125 524.410156 503.191406 584.378906 510.390625 639.585938 C 511.085938 644.890625 515.605469 648.855469 520.953125 648.855469 L 592.429688 648.855469 L 592.429688 733.386719 L 550.453125 762.65625 C 535.886719 772.8125 529.914062 790.328125 535.238281 807.273438 C 540.5625 824.214844 555.480469 835.167969 573.238281 835.167969 L 619.691406 835.167969 L 655.488281 965.859375 L 591.328125 965.859375 C 569.523438 965.859375 551.78125 983.601562 551.78125 1005.40625 L 551.78125 1080.230469 C 551.78125 1102.035156 569.523438 1119.777344 591.328125 1119.777344 L 603.816406 1119.777344 C 604.046875 1136.765625 604.761719 1153.59375 606.078125 1170.207031 L 562.429688 1170.207031 C 556.546875 1170.207031 551.78125 1174.976562 551.78125 1180.855469 C 551.78125 1186.738281 556.546875 1191.503906 562.429688 1191.503906 L 608.082031 1191.503906 C 610.371094 1212.585938 613.589844 1233.324219 617.65625 1253.730469 L 589.25 1253.730469 C 583.371094 1253.730469 578.601562 1258.5 578.601562 1264.382812 C 578.601562 1270.261719 583.371094 1275.03125 589.25 1275.03125 L 622.273438 1275.03125 C 627.191406 1296.171875 633.101562 1316.917969 639.960938 1337.253906 L 614.328125 1337.253906 C 608.445312 1337.253906 603.679688 1342.023438 603.679688 1347.90625 C 603.679688 1353.785156 608.445312 1358.554688 614.328125 1358.554688 L 647.546875 1358.554688 C 655.019531 1378.402344 663.386719 1397.855469 672.746094 1416.851562 C 674.542969 1420.488281 678.242188 1422.789062 682.300781 1422.789062 L 817.605469 1422.789062 C 821.660156 1422.789062 825.363281 1420.488281 827.15625 1416.851562 C 836.519531 1397.859375 844.886719 1378.40625 852.355469 1358.554688 L 885.574219 1358.554688 C 891.457031 1358.554688 896.226562 1353.785156 896.226562 1347.90625 C 896.226562 1342.023438 891.457031 1337.253906 885.574219 1337.253906 L 859.941406 1337.253906 C 866.804688 1316.917969 872.710938 1296.171875 877.632812 1275.03125 L 910.652344 1275.03125 C 916.535156 1275.03125 921.304688 1270.261719 921.304688 1264.382812 C 921.304688 1258.5 916.535156 1253.730469 910.652344 1253.730469 L 882.246094 1253.730469 C 886.320312 1233.324219 889.53125 1212.585938 891.820312 1191.503906 L 937.472656 1191.503906 C 943.355469 1191.503906 948.125 1186.738281 948.125 1180.855469 C 948.125 1174.976562 943.355469 1170.207031 937.472656 1170.207031 L 893.820312 1170.207031 C 895.140625 1153.59375 895.855469 1136.765625 896.085938 1119.777344 L 908.574219 1119.777344 C 930.378906 1119.777344 948.121094 1102.039062 948.121094 1080.230469 L 948.121094 1005.40625 C 948.121094 983.601562 930.378906 965.855469 908.574219 965.855469 L 844.414062 965.855469 L 880.207031 835.164062 L 926.660156 835.164062 C 944.421875 835.164062 959.335938 824.214844 964.660156 807.269531 C 969.984375 790.324219 964.011719 772.8125 949.445312 762.652344 L 907.46875 733.382812 L 907.46875 648.851562 L 978.949219 648.851562 Z M 415.0625 287.351562 C 415.0625 198.027344 483.445312 110.0625 558.53125 102.792969 C 598.910156 98.878906 632.257812 116.039062 664.480469 132.628906 C 665.113281 132.957031 665.746094 133.28125 666.378906 133.609375 C 670.382812 147.40625 684.496094 184.953125 722.644531 200.4375 C 737.539062 206.484375 753.785156 208.511719 768.917969 208.511719 C 798.976562 208.511719 824.59375 200.488281 826.183594 199.980469 C 831.785156 198.191406 834.867188 192.203125 833.082031 186.601562 C 831.300781 181 825.320312 177.910156 819.707031 179.6875 C 819.195312 179.851562 767.914062 195.828125 730.664062 180.703125 C 713.195312 173.613281 702.109375 159.886719 695.335938 147.730469 C 712.945312 155.457031 730.707031 160.960938 749.957031 160.960938 C 780.414062 160.960938 807.140625 147.203125 835.433594 132.632812 C 867.65625 116.042969 900.988281 98.878906 941.378906 102.796875 C 1016.464844 110.0625 1084.851562 198.03125 1084.851562 287.355469 C 1084.851562 335.6875 1058.28125 394.960938 1030.160156 457.707031 C 1019.824219 480.753906 1009.375 504.109375 999.992188 527.46875 L 499.921875 527.46875 C 490.535156 504.109375 480.082031 480.753906 469.753906 457.707031 C 441.628906 394.957031 415.0625 335.683594 415.0625 287.351562 Z M 508.144531 548.765625 L 991.761719 548.765625 C 981.964844 575.289062 974.023438 601.699219 969.761719 627.554688 L 530.144531 627.554688 C 525.886719 601.699219 517.941406 575.289062 508.144531 548.765625 Z M 810.941406 1401.488281 L 688.960938 1401.488281 C 682.214844 1387.429688 676.058594 1373.097656 670.371094 1358.550781 L 829.53125 1358.550781 C 823.84375 1373.097656 817.6875 1387.429688 810.941406 1401.488281 Z M 837.441406 1337.253906 L 662.460938 1337.253906 C 655.351562 1316.941406 649.253906 1296.191406 644.160156 1275.027344 L 855.742188 1275.027344 C 850.648438 1296.191406 844.554688 1316.941406 837.441406 1337.253906 Z M 860.488281 1253.730469 L 639.417969 1253.730469 C 635.21875 1233.34375 631.917969 1212.597656 629.554688 1191.503906 L 870.355469 1191.503906 C 867.992188 1212.597656 864.6875 1233.34375 860.488281 1253.730469 Z M 872.433594 1170.203125 L 627.472656 1170.203125 C 626.113281 1153.59375 625.351562 1136.773438 625.113281 1119.773438 L 874.792969 1119.773438 C 874.554688 1136.773438 873.792969 1153.59375 872.433594 1170.203125 Z M 926.828125 1005.40625 L 926.828125 1080.226562 C 926.828125 1090.289062 918.640625 1098.476562 908.578125 1098.476562 L 591.328125 1098.476562 C 581.265625 1098.476562 573.078125 1090.292969 573.078125 1080.226562 L 573.078125 1005.40625 C 573.078125 995.34375 581.265625 987.15625 591.328125 987.15625 L 908.578125 987.15625 C 918.640625 987.15625 926.828125 995.34375 926.828125 1005.40625 Z M 822.332031 965.855469 L 677.570312 965.855469 L 641.773438 835.164062 L 858.132812 835.164062 Z M 886.175781 728.292969 L 791.492188 728.292969 C 785.609375 728.292969 780.839844 733.058594 780.839844 738.941406 C 780.839844 744.824219 785.609375 749.589844 791.492188 749.589844 L 893.476562 749.589844 L 937.265625 780.125 C 945.492188 785.863281 946.3125 794.609375 944.34375 800.886719 C 942.375 807.160156 936.691406 813.863281 926.660156 813.863281 L 573.242188 813.863281 C 563.210938 813.863281 557.53125 807.15625 555.558594 800.886719 C 553.585938 794.613281 554.410156 785.863281 562.636719 780.125 L 606.425781 749.589844 L 660.144531 749.589844 C 666.023438 749.589844 670.792969 744.824219 670.792969 738.941406 C 670.792969 733.058594 666.023438 728.292969 660.144531 728.292969 L 613.730469 728.292969 L 613.730469 648.855469 L 886.175781 648.855469 Z M 886.175781 728.292969 " fill-opacity="1" fill-rule="nonzero"/></g></svg>