<svg xmlns="http://www.w3.org/2000/svg" xmlns:xlink="http://www.w3.org/1999/xlink" width="2000" zoomAndPan="magnify" viewBox="0 0 1500 1499.999933" height="2000" preserveAspectRatio="xMidYMid meet" version="1.0"><path fill="#0F7A68" d="M 1342.503906 762.320312 C 1341.34375 761.714844 1340.15625 761.160156 1338.945312 760.65625 C 1337.734375 760.15625 1336.503906 759.707031 1335.253906 759.3125 C 1334.003906 758.917969 1332.738281 758.582031 1331.460938 758.296875 C 1330.179688 758.015625 1328.890625 757.789062 1327.589844 757.617188 C 1326.289062 757.449219 1324.984375 757.335938 1323.675781 757.28125 C 1322.367188 757.226562 1321.058594 757.226562 1319.746094 757.289062 C 1318.4375 757.347656 1317.132812 757.464844 1315.835938 757.640625 C 1314.535156 757.8125 1313.246094 758.042969 1311.96875 758.332031 C 1310.6875 758.621094 1309.425781 758.964844 1308.175781 759.363281 C 1306.929688 759.761719 1305.699219 760.214844 1304.488281 760.71875 C 1303.28125 761.226562 1302.097656 761.785156 1300.9375 762.394531 C 1299.777344 763.003906 1298.644531 763.667969 1297.542969 764.375 C 1296.441406 765.085938 1295.375 765.84375 1294.339844 766.644531 C 1293.300781 767.449219 1292.304688 768.296875 1291.34375 769.1875 C 1290.382812 770.082031 1289.460938 771.011719 1288.582031 771.984375 C 1287.703125 772.957031 1286.867188 773.964844 1286.078125 775.011719 C 1278.414062 784.550781 1272.519531 795.078125 1268.394531 806.597656 L 1266.449219 811.203125 C 1261.214844 823.417969 1255.636719 835.546875 1250.015625 847.566406 L 1240.742188 867.023438 L 1239.554688 869.554688 L 1242.882812 822.464844 C 1243.640625 811.9375 1244.742188 801.34375 1245.84375 790.730469 C 1248.960938 766.507812 1250.191406 742.195312 1249.542969 717.785156 C 1249.660156 716.179688 1249.703125 714.574219 1249.671875 712.964844 C 1249.644531 711.355469 1249.542969 709.75 1249.367188 708.152344 C 1249.191406 706.550781 1248.941406 704.964844 1248.625 703.386719 C 1248.304688 701.808594 1247.910156 700.25 1247.449219 698.710938 C 1246.988281 697.167969 1246.457031 695.652344 1245.855469 694.160156 C 1245.253906 692.664062 1244.589844 691.203125 1243.855469 689.769531 C 1243.121094 688.339844 1242.324219 686.941406 1241.460938 685.582031 C 1240.601562 684.222656 1239.679688 682.90625 1238.699219 681.632812 C 1237.71875 680.355469 1236.679688 679.128906 1235.589844 677.945312 C 1234.496094 676.765625 1233.351562 675.636719 1232.15625 674.5625 C 1230.960938 673.484375 1229.71875 672.464844 1228.429688 671.5 C 1227.140625 670.535156 1225.808594 669.632812 1224.4375 668.792969 C 1223.066406 667.949219 1221.660156 667.171875 1220.21875 666.457031 C 1218.777344 665.742188 1217.304688 665.097656 1215.804688 664.515625 C 1214.304688 663.9375 1212.78125 663.425781 1211.234375 662.984375 C 1209.683594 662.542969 1208.121094 662.175781 1206.539062 661.875 C 1174.304688 657.832031 1152.964844 687.410156 1146.824219 716.660156 C 1143.613281 734.707031 1142.171875 752.898438 1142.503906 771.226562 C 1142.597656 784.433594 1141.933594 797.597656 1140.511719 810.726562 C 1139.777344 816.5 1138.890625 822.273438 1137.898438 828.023438 L 1136.730469 776.71875 C 1136.296875 757.332031 1136.015625 737.925781 1135.886719 718.496094 C 1136.339844 708.789062 1135.8125 699.128906 1134.304688 689.527344 C 1132.796875 679.925781 1130.339844 670.570312 1126.9375 661.464844 C 1126.039062 659.414062 1125.027344 657.421875 1123.902344 655.484375 C 1122.78125 653.550781 1121.550781 651.683594 1120.21875 649.886719 C 1118.882812 648.085938 1117.453125 646.371094 1115.925781 644.734375 C 1114.398438 643.097656 1112.785156 641.554688 1111.082031 640.101562 C 1109.378906 638.644531 1107.601562 637.292969 1105.746094 636.039062 C 1103.890625 634.785156 1101.972656 633.640625 1099.988281 632.605469 C 1098.003906 631.570312 1095.96875 630.648438 1093.882812 629.839844 C 1091.792969 629.035156 1089.667969 628.347656 1087.5 627.78125 C 1086.003906 627.425781 1084.492188 627.164062 1082.964844 626.996094 C 1081.433594 626.828125 1079.902344 626.75 1078.363281 626.769531 C 1076.824219 626.789062 1075.292969 626.898438 1073.769531 627.105469 C 1072.246094 627.3125 1070.738281 627.609375 1069.25 628 C 1067.761719 628.386719 1066.304688 628.867188 1064.875 629.433594 C 1063.445312 630.003906 1062.054688 630.65625 1060.707031 631.394531 C 1059.355469 632.132812 1058.054688 632.949219 1056.804688 633.84375 C 1055.554688 634.742188 1054.367188 635.710938 1053.234375 636.753906 C 1051.179688 638.703125 1049.289062 640.804688 1047.566406 643.054688 C 1045.84375 645.304688 1044.308594 647.675781 1042.960938 650.167969 C 1041.613281 652.664062 1040.472656 655.246094 1039.535156 657.917969 C 1038.59375 660.59375 1037.871094 663.324219 1037.367188 666.113281 C 1034.484375 683.363281 1033.664062 700.707031 1034.902344 718.152344 C 1035.050781 723.339844 1035.226562 728.527344 1035.246094 733.566406 C 1035.417969 756.050781 1035.484375 778.082031 1034.316406 800.023438 C 1033.558594 814.46875 1031.789062 829.253906 1029.992188 843.546875 C 1029.257812 849.535156 1028.542969 855.632812 1027.832031 861.726562 C 1023.140625 849.855469 1019.132812 837.753906 1015.8125 825.429688 C 1010.988281 807.9375 1007.164062 789.734375 1003.335938 772.136719 C 1000.894531 760.828125 998.472656 749.5 995.789062 738.257812 C 984.460938 690.523438 959.75 682.199219 940.984375 683.472656 C 938.160156 683.746094 935.390625 684.289062 932.671875 685.105469 C 929.957031 685.917969 927.34375 686.992188 924.835938 688.320312 C 922.332031 689.648438 919.976562 691.207031 917.773438 692.996094 C 915.574219 694.785156 913.566406 696.769531 911.753906 698.953125 C 908.613281 703.351562 905.917969 708.007812 903.671875 712.921875 C 901.425781 717.835938 899.664062 722.917969 898.390625 728.171875 C 897.121094 733.425781 896.359375 738.75 896.105469 744.148438 C 895.855469 749.546875 896.121094 754.917969 896.902344 760.265625 C 899.324219 815.046875 907.308594 869 920.855469 922.132812 L 925.179688 938.976562 C 931.34375 959.699219 935.773438 980.785156 938.476562 1002.234375 C 939.648438 1010.65625 939.980469 1019.113281 939.480469 1027.601562 C 938.976562 1036.089844 937.648438 1044.445312 935.492188 1052.671875 C 930.828125 1043.253906 925.570312 1034.179688 919.722656 1025.449219 C 913.871094 1016.71875 907.480469 1008.402344 900.546875 1000.503906 C 893.613281 992.609375 886.195312 985.195312 878.292969 978.265625 C 870.390625 971.335938 862.074219 964.945312 853.339844 959.101562 C 850.789062 957.046875 848.050781 955.28125 845.128906 953.796875 C 842.207031 952.316406 839.164062 951.148438 836 950.304688 C 832.835938 949.457031 829.617188 948.945312 826.347656 948.769531 C 823.078125 948.59375 819.820312 948.761719 816.585938 949.265625 C 815.390625 949.71875 814.21875 950.226562 813.070312 950.785156 C 811.921875 951.34375 810.800781 951.953125 809.703125 952.613281 C 808.609375 953.273438 807.546875 953.980469 806.519531 954.738281 C 805.488281 955.492188 804.492188 956.292969 803.535156 957.140625 C 802.578125 957.984375 801.660156 958.871094 800.78125 959.800781 C 799.902344 960.730469 799.070312 961.695312 798.277344 962.699219 C 797.488281 963.703125 796.742188 964.742188 796.046875 965.8125 C 795.347656 966.882812 794.699219 967.984375 794.101562 969.113281 C 793.503906 970.242188 792.957031 971.394531 792.464844 972.574219 C 791.96875 973.753906 791.53125 974.949219 791.144531 976.167969 C 790.757812 977.386719 790.429688 978.621094 790.152344 979.867188 C 789.878906 981.117188 789.660156 982.375 789.5 983.640625 C 789.339844 984.910156 789.234375 986.183594 789.1875 987.457031 C 789.140625 988.734375 789.152344 990.011719 789.21875 991.289062 C 789.289062 992.566406 789.414062 993.835938 789.597656 995.101562 C 789.78125 996.363281 790.019531 997.617188 790.316406 998.863281 C 791.769531 1005.605469 793.652344 1012.226562 795.964844 1018.726562 C 798.277344 1025.222656 800.996094 1031.546875 804.128906 1037.695312 C 807.257812 1043.839844 810.773438 1049.757812 814.671875 1055.449219 C 818.566406 1061.140625 822.816406 1066.558594 827.417969 1071.699219 C 833.902344 1080.214844 840.214844 1088.710938 845.75 1097.640625 C 854.429688 1112.289062 862.003906 1127.488281 868.472656 1143.238281 C 876.234375 1162.507812 885.746094 1180.871094 897.011719 1198.324219 C 912.316406 1218.710938 929.777344 1237.042969 949.394531 1253.324219 C 959.363281 1262.253906 969.652344 1271.484375 978.90625 1281.085938 C 996.460938 1299.308594 1024.695312 1335.632812 1016.566406 1374.050781 C 1016.488281 1374.429688 1016.433594 1374.816406 1016.394531 1375.203125 C 1016.359375 1375.59375 1016.34375 1375.980469 1016.347656 1376.371094 C 1016.351562 1376.761719 1016.378906 1377.148438 1016.425781 1377.535156 C 1016.476562 1377.921875 1016.542969 1378.308594 1016.632812 1378.6875 C 1016.71875 1379.066406 1016.828125 1379.441406 1016.960938 1379.808594 C 1017.089844 1380.175781 1017.238281 1380.535156 1017.40625 1380.886719 C 1017.574219 1381.238281 1017.761719 1381.578125 1017.964844 1381.910156 C 1018.171875 1382.242188 1018.394531 1382.5625 1018.632812 1382.871094 C 1018.875 1383.175781 1019.128906 1383.472656 1019.398438 1383.75 C 1019.671875 1384.03125 1019.957031 1384.292969 1020.257812 1384.542969 C 1020.558594 1384.792969 1020.871094 1385.023438 1021.195312 1385.238281 C 1021.519531 1385.453125 1021.855469 1385.652344 1022.203125 1385.828125 C 1022.550781 1386.007812 1022.90625 1386.167969 1023.269531 1386.308594 C 1023.632812 1386.449219 1024.003906 1386.566406 1024.378906 1386.667969 C 1024.757812 1386.769531 1025.136719 1386.847656 1025.523438 1386.90625 C 1025.910156 1386.964844 1026.296875 1387.003906 1026.683594 1387.019531 C 1037.710938 1387.46875 1048.738281 1387.699219 1059.761719 1387.710938 C 1095.957031 1387.714844 1131.980469 1385.210938 1167.824219 1380.191406 C 1203.671875 1375.171875 1238.996094 1367.691406 1273.796875 1357.746094 C 1274.492188 1357.550781 1275.160156 1357.285156 1275.800781 1356.953125 C 1276.445312 1356.621094 1277.046875 1356.230469 1277.609375 1355.777344 C 1278.171875 1355.324219 1278.683594 1354.820312 1279.148438 1354.265625 C 1279.609375 1353.710938 1280.011719 1353.113281 1280.355469 1352.480469 C 1280.695312 1351.84375 1280.972656 1351.179688 1281.183594 1350.488281 C 1281.390625 1349.796875 1281.53125 1349.09375 1281.597656 1348.371094 C 1281.667969 1347.652344 1281.664062 1346.933594 1281.585938 1346.21875 C 1281.511719 1345.5 1281.367188 1344.792969 1281.148438 1344.105469 C 1278.527344 1332.996094 1276.660156 1321.761719 1275.539062 1310.402344 C 1274.421875 1299.046875 1274.0625 1287.664062 1274.46875 1276.253906 C 1274.871094 1264.847656 1276.03125 1253.519531 1277.949219 1242.269531 C 1279.867188 1231.015625 1282.527344 1219.945312 1285.925781 1209.046875 C 1288.414062 1198.648438 1291.308594 1188.316406 1294.230469 1178 C 1299.988281 1159.050781 1304.507812 1139.8125 1307.785156 1120.277344 C 1309.707031 1102.953125 1309.484375 1085.65625 1307.113281 1068.390625 C 1305.898438 1057.902344 1305.242188 1047.382812 1305.148438 1036.824219 C 1305.5625 1018.429688 1308 1000.304688 1312.453125 982.453125 C 1317.945312 958.996094 1325.945312 935.558594 1333.664062 912.878906 C 1337.988281 900.449219 1342.160156 888.015625 1346.050781 875.476562 L 1348.992188 866.417969 C 1359.324219 835.632812 1376.449219 784.070312 1342.503906 762.320312 Z M 1158.933594 1359.671875 C 1119.269531 1364.847656 1079.449219 1366.925781 1039.460938 1365.898438 C 1039.835938 1357.011719 1039.097656 1348.21875 1037.242188 1339.519531 C 1035.382812 1330.820312 1032.472656 1322.492188 1028.5 1314.53125 C 1037.113281 1310.230469 1045.871094 1306.261719 1054.78125 1302.625 C 1063.691406 1298.988281 1072.726562 1295.691406 1081.886719 1292.738281 C 1091.046875 1289.78125 1100.304688 1287.179688 1109.660156 1284.921875 C 1119.015625 1282.667969 1128.445312 1280.769531 1137.945312 1279.226562 C 1147.445312 1277.6875 1156.988281 1276.503906 1166.578125 1275.683594 C 1176.167969 1274.863281 1185.773438 1274.40625 1195.398438 1274.3125 C 1205.019531 1274.21875 1214.632812 1274.488281 1224.238281 1275.121094 C 1233.839844 1275.75 1243.40625 1276.746094 1252.933594 1278.101562 C 1251.363281 1298.949219 1252.929688 1319.558594 1257.625 1339.933594 C 1225.164062 1348.695312 1192.269531 1355.277344 1158.933594 1359.671875 Z M 1328.582031 859.652344 L 1325.511719 869.121094 C 1321.664062 881.464844 1317.492188 893.726562 1313.320312 905.875 C 1305.429688 929.03125 1297.253906 952.984375 1291.503906 977.457031 C 1286.699219 996.871094 1284.078125 1016.574219 1283.636719 1036.566406 C 1283.714844 1047.894531 1284.398438 1059.1875 1285.6875 1070.445312 C 1287.871094 1085.96875 1288.136719 1101.527344 1286.488281 1117.121094 C 1283.371094 1135.738281 1279.046875 1154.070312 1273.515625 1172.121094 C 1270.535156 1182.738281 1267.550781 1193.351562 1265.019531 1204.054688 C 1260.773438 1221.359375 1257.421875 1238.832031 1254.96875 1256.480469 C 1219.777344 1251.617188 1184.550781 1251.34375 1149.289062 1255.660156 C 1126.464844 1258.605469 1104.042969 1263.414062 1082.015625 1270.09375 C 1059.992188 1276.773438 1038.675781 1285.230469 1018.058594 1295.460938 C 1011.113281 1284.910156 1003.253906 1275.097656 994.472656 1266.015625 C 984.65625 1255.832031 974.0625 1246.34375 963.835938 1237.132812 C 945.480469 1221.988281 929.136719 1204.914062 914.804688 1185.914062 C 904.238281 1169.566406 895.339844 1152.359375 888.101562 1134.289062 C 881.214844 1117.582031 873.160156 1101.460938 863.933594 1085.925781 C 858.074219 1076.5625 851.328125 1067.546875 844.476562 1058.53125 C 840.457031 1054.109375 836.734375 1049.449219 833.308594 1044.554688 C 829.878906 1039.660156 826.773438 1034.570312 823.992188 1029.28125 C 821.210938 1023.992188 818.769531 1018.550781 816.679688 1012.953125 C 814.585938 1007.359375 812.855469 1001.652344 811.484375 995.835938 C 810.035156 985.023438 813.472656 972.054688 821.558594 970.105469 C 827.546875 968.464844 835.652344 973.285156 841.1875 976.960938 C 845.941406 980.132812 850.5625 983.488281 855.054688 987.023438 C 859.542969 990.554688 863.886719 994.261719 868.089844 998.132812 C 872.289062 1002.007812 876.332031 1006.039062 880.21875 1010.230469 C 884.101562 1014.421875 887.820312 1018.757812 891.367188 1023.238281 C 894.910156 1027.71875 898.277344 1032.332031 901.464844 1037.074219 C 904.648438 1041.820312 907.644531 1046.679688 910.449219 1051.65625 C 913.257812 1056.636719 915.863281 1061.714844 918.269531 1066.898438 C 920.679688 1072.082031 922.882812 1077.347656 924.878906 1082.703125 C 925.230469 1083.640625 925.703125 1084.515625 926.296875 1085.324219 C 926.890625 1086.132812 927.585938 1086.84375 928.378906 1087.457031 C 929.171875 1088.070312 930.03125 1088.566406 930.960938 1088.941406 C 931.894531 1089.316406 932.855469 1089.558594 933.855469 1089.664062 C 934.851562 1089.769531 935.84375 1089.738281 936.832031 1089.570312 C 937.820312 1089.398438 938.769531 1089.097656 939.671875 1088.664062 C 940.578125 1088.230469 941.40625 1087.683594 942.15625 1087.019531 C 942.910156 1086.355469 943.554688 1085.601562 944.097656 1084.757812 C 947.777344 1078.410156 950.894531 1071.804688 953.453125 1064.933594 C 956.015625 1058.058594 957.980469 1051.019531 959.347656 1043.816406 C 960.71875 1036.613281 961.472656 1029.34375 961.613281 1022.011719 C 961.753906 1014.679688 961.277344 1007.386719 960.183594 1000.136719 C 957.347656 977.519531 952.703125 955.28125 946.261719 933.417969 L 941.9375 916.816406 C 928.761719 865.144531 920.992188 812.671875 918.628906 759.402344 C 917.992188 755.410156 917.71875 751.394531 917.816406 747.355469 C 917.910156 743.3125 918.371094 739.3125 919.195312 735.355469 C 920.023438 731.398438 921.199219 727.550781 922.726562 723.808594 C 924.257812 720.066406 926.113281 716.496094 928.292969 713.09375 C 929.179688 711.996094 930.164062 711 931.242188 710.09375 C 932.320312 709.1875 933.476562 708.394531 934.707031 707.714844 C 935.941406 707.03125 937.226562 706.472656 938.566406 706.039062 C 939.90625 705.605469 941.273438 705.304688 942.671875 705.136719 C 948.335938 704.640625 965.4375 703.515625 974.90625 743.316406 C 977.542969 754.429688 979.921875 765.605469 982.320312 776.742188 C 986.148438 794.640625 990.105469 813.171875 995.097656 831.265625 C 999.328125 847.113281 1004.683594 862.570312 1011.164062 877.640625 L 1012.375 880.429688 C 1014.449219 885.601562 1016.894531 890.597656 1019.703125 895.410156 C 1020.371094 896.492188 1021.195312 897.679688 1022.039062 898.914062 C 1023.261719 900.546875 1024.34375 902.269531 1025.28125 904.082031 C 1025.28125 904.789062 1025.347656 905.492188 1025.488281 906.191406 C 1025.625 906.886719 1025.832031 907.5625 1026.101562 908.21875 C 1026.375 908.875 1026.707031 909.496094 1027.101562 910.085938 C 1027.496094 910.675781 1027.945312 911.222656 1028.445312 911.722656 C 1028.949219 912.226562 1029.496094 912.675781 1030.085938 913.070312 C 1030.675781 913.464844 1031.296875 913.796875 1031.953125 914.066406 C 1032.609375 914.339844 1033.285156 914.542969 1033.980469 914.683594 C 1034.675781 914.820312 1035.378906 914.890625 1036.089844 914.890625 C 1036.800781 914.890625 1037.503906 914.820312 1038.199219 914.683594 C 1038.894531 914.542969 1039.570312 914.339844 1040.226562 914.066406 C 1040.882812 913.796875 1041.503906 913.464844 1042.09375 913.070312 C 1042.6875 912.675781 1043.230469 912.226562 1043.734375 911.722656 C 1044.234375 911.222656 1044.683594 910.675781 1045.078125 910.085938 C 1045.472656 909.496094 1045.804688 908.875 1046.078125 908.21875 C 1046.347656 907.5625 1046.554688 906.886719 1046.691406 906.191406 C 1046.832031 905.492188 1046.898438 904.789062 1046.898438 904.082031 C 1047.300781 884.695312 1048.851562 865.40625 1051.546875 846.203125 C 1053.300781 831.546875 1055.117188 816.414062 1055.871094 801.257812 C 1057.0625 778.6875 1056.996094 756.332031 1056.824219 733.480469 C 1056.824219 728.269531 1056.628906 722.953125 1056.457031 717.566406 C 1055.328125 701.84375 1056.003906 686.199219 1058.488281 670.632812 C 1059.058594 667.285156 1060.121094 664.101562 1061.679688 661.082031 C 1063.234375 658.0625 1065.214844 655.351562 1067.613281 652.945312 C 1068.601562 652 1069.691406 651.191406 1070.886719 650.523438 C 1072.078125 649.851562 1073.339844 649.34375 1074.664062 648.996094 C 1075.988281 648.648438 1077.332031 648.472656 1078.703125 648.46875 C 1080.070312 648.460938 1081.417969 648.628906 1082.746094 648.96875 C 1085.40625 649.757812 1087.949219 650.824219 1090.378906 652.164062 C 1092.8125 653.503906 1095.070312 655.085938 1097.160156 656.914062 C 1099.25 658.738281 1101.121094 660.765625 1102.773438 662.996094 C 1104.425781 665.226562 1105.820312 667.605469 1106.960938 670.132812 C 1109.742188 677.921875 1111.738281 685.910156 1112.945312 694.09375 C 1114.152344 702.273438 1114.550781 710.496094 1114.136719 718.757812 C 1114.265625 738.273438 1114.546875 757.792969 1114.980469 777.324219 L 1117.511719 888.730469 C 1117.511719 890.199219 1117.746094 892.082031 1117.964844 894.070312 C 1118.160156 895.734375 1118.503906 898.890625 1118.527344 899.324219 C 1118.28125 899.992188 1118.101562 900.675781 1117.988281 901.375 C 1117.878906 902.074219 1117.835938 902.78125 1117.863281 903.492188 C 1117.890625 904.199219 1117.984375 904.898438 1118.152344 905.589844 C 1118.316406 906.28125 1118.546875 906.949219 1118.84375 907.59375 C 1119.140625 908.238281 1119.496094 908.847656 1119.914062 909.421875 C 1120.332031 909.996094 1120.800781 910.527344 1121.320312 911.007812 C 1121.839844 911.492188 1122.402344 911.917969 1123.007812 912.289062 C 1123.613281 912.660156 1124.25 912.96875 1124.914062 913.214844 C 1125.582031 913.460938 1126.265625 913.640625 1126.964844 913.753906 C 1127.667969 913.863281 1128.371094 913.90625 1129.082031 913.878906 C 1129.789062 913.851562 1130.488281 913.753906 1131.179688 913.589844 C 1131.871094 913.425781 1132.539062 913.195312 1133.183594 912.898438 C 1133.828125 912.601562 1134.4375 912.246094 1135.011719 911.828125 C 1135.585938 911.410156 1136.117188 910.941406 1136.597656 910.421875 C 1137.082031 909.902344 1137.507812 909.335938 1137.878906 908.734375 C 1138.25 908.128906 1138.558594 907.492188 1138.804688 906.828125 C 1150.003906 876.621094 1157.679688 845.546875 1161.832031 813.601562 C 1163.34375 799.664062 1164.0625 785.683594 1163.992188 771.660156 C 1163.625 754.722656 1164.894531 737.910156 1167.796875 721.222656 C 1170.800781 706.996094 1182.023438 680.769531 1203.644531 683.453125 C 1224.417969 686.066406 1227.425781 711.363281 1227.75 719.039062 C 1228.324219 742.328125 1227.113281 765.527344 1224.117188 788.632812 C 1223.015625 799.441406 1221.953125 810.25 1221.132812 821.0625 L 1215.402344 901.769531 C 1215.210938 904.40625 1215.230469 907.539062 1215.253906 910.828125 C 1215.597656 915.542969 1215.28125 920.210938 1214.300781 924.835938 C 1214.03125 925.492188 1213.828125 926.167969 1213.691406 926.867188 C 1213.550781 927.5625 1213.484375 928.265625 1213.484375 928.976562 C 1213.488281 929.6875 1213.558594 930.390625 1213.699219 931.085938 C 1213.839844 931.78125 1214.042969 932.457031 1214.316406 933.113281 C 1214.589844 933.769531 1214.925781 934.390625 1215.320312 934.980469 C 1215.714844 935.570312 1216.164062 936.113281 1216.667969 936.617188 C 1217.171875 937.117188 1217.71875 937.566406 1218.308594 937.957031 C 1218.902344 938.351562 1219.523438 938.683594 1220.183594 938.953125 C 1220.839844 939.222656 1221.515625 939.425781 1222.210938 939.566406 C 1222.90625 939.703125 1223.613281 939.769531 1224.320312 939.769531 C 1225.03125 939.765625 1225.734375 939.695312 1226.429688 939.554688 C 1227.128906 939.417969 1227.804688 939.210938 1228.457031 938.9375 C 1229.113281 938.664062 1229.734375 938.328125 1230.324219 937.933594 C 1230.914062 937.539062 1231.460938 937.089844 1231.960938 936.585938 C 1232.464844 936.082031 1232.910156 935.535156 1233.304688 934.945312 C 1233.695312 934.351562 1234.027344 933.730469 1234.300781 933.074219 L 1234.300781 932.964844 C 1242.148438 913.894531 1251.25 894.828125 1260.046875 876.40625 L 1269.386719 856.734375 C 1275.140625 844.476562 1280.78125 832.128906 1286.101562 819.699219 L 1288.089844 814.941406 C 1291.390625 805.628906 1296.066406 797.066406 1302.121094 789.257812 C 1308.390625 782.058594 1321.40625 774.578125 1330.636719 780.503906 C 1350.632812 793.238281 1336.300781 836.476562 1328.582031 859.628906 Z M 1328.582031 859.652344 " fill-opacity="1" fill-rule="nonzero"/><path fill="#0F7A68" d="M 683.558594 949.179688 C 680.320312 948.675781 677.066406 948.515625 673.796875 948.691406 C 670.523438 948.867188 667.308594 949.382812 664.144531 950.230469 C 660.976562 951.078125 657.9375 952.246094 655.015625 953.730469 C 652.09375 955.214844 649.359375 956.984375 646.804688 959.039062 C 638.054688 964.878906 629.71875 971.265625 621.800781 978.199219 C 613.882812 985.128906 606.453125 992.546875 599.503906 1000.449219 C 592.558594 1008.355469 586.15625 1016.675781 580.296875 1025.417969 C 574.4375 1034.160156 569.171875 1043.242188 564.5 1052.671875 C 562.308594 1044.484375 560.9375 1036.160156 560.390625 1027.699219 C 559.839844 1019.242188 560.121094 1010.8125 561.234375 1002.40625 C 563.9375 980.957031 568.371094 959.871094 574.53125 939.148438 L 578.855469 922.328125 C 592.464844 869.164062 600.507812 815.175781 602.984375 760.351562 C 603.761719 755.003906 604.027344 749.632812 603.777344 744.234375 C 603.527344 738.835938 602.765625 733.511719 601.492188 728.257812 C 600.222656 723.007812 598.460938 717.921875 596.214844 713.007812 C 593.964844 708.09375 591.273438 703.4375 588.128906 699.039062 C 586.316406 696.855469 584.308594 694.871094 582.105469 693.078125 C 579.902344 691.289062 577.546875 689.730469 575.039062 688.402344 C 572.527344 687.074219 569.914062 686.003906 567.195312 685.1875 C 564.476562 684.375 561.703125 683.832031 558.878906 683.558594 C 540.070312 682.15625 515.421875 690.609375 504.09375 738.34375 C 501.414062 749.585938 498.992188 760.914062 496.550781 772.222656 C 492.808594 789.820312 488.894531 808.023438 484.074219 825.515625 C 480.75 837.839844 476.742188 849.941406 472.054688 861.8125 C 471.382812 855.695312 470.671875 849.621094 469.890625 843.632812 C 468.183594 829.339844 466.410156 814.554688 465.570312 800.113281 C 464.402344 778.167969 464.464844 756.136719 464.640625 733.652344 C 464.640625 728.617188 464.832031 723.425781 464.984375 718.238281 C 466.222656 700.792969 465.402344 683.449219 462.519531 666.199219 C 462.015625 663.414062 461.292969 660.683594 460.355469 658.011719 C 459.417969 655.339844 458.277344 652.761719 456.933594 650.269531 C 455.585938 647.777344 454.054688 645.40625 452.332031 643.160156 C 450.613281 640.910156 448.726562 638.8125 446.671875 636.863281 C 445.542969 635.816406 444.351562 634.84375 443.101562 633.945312 C 441.851562 633.046875 440.550781 632.226562 439.203125 631.488281 C 437.851562 630.746094 436.460938 630.09375 435.03125 629.523438 C 433.601562 628.953125 432.140625 628.472656 430.652344 628.082031 C 429.160156 627.691406 427.65625 627.394531 426.128906 627.1875 C 424.601562 626.984375 423.070312 626.871094 421.53125 626.851562 C 419.992188 626.835938 418.457031 626.910156 416.925781 627.082031 C 415.394531 627.25 413.882812 627.511719 412.382812 627.867188 C 410.21875 628.433594 408.09375 629.121094 406.003906 629.925781 C 403.917969 630.730469 401.882812 631.652344 399.898438 632.691406 C 397.914062 633.726562 395.996094 634.871094 394.140625 636.125 C 392.289062 637.375 390.511719 638.730469 388.808594 640.183594 C 387.109375 641.636719 385.496094 643.183594 383.96875 644.820312 C 382.441406 646.453125 381.011719 648.171875 379.679688 649.96875 C 378.347656 651.765625 377.121094 653.632812 376 655.570312 C 374.875 657.507812 373.867188 659.5 372.972656 661.550781 C 369.558594 670.652344 367.097656 680.007812 365.585938 689.613281 C 364.074219 699.214844 363.546875 708.871094 364 718.582031 C 363.871094 738.027344 363.589844 757.433594 363.15625 776.804688 L 361.988281 828.109375 C 360.992188 822.359375 360.109375 816.585938 359.371094 810.8125 C 357.949219 797.683594 357.289062 784.519531 357.382812 771.3125 C 357.710938 752.984375 356.269531 734.796875 353.058594 716.746094 C 346.917969 687.496094 325.601562 657.960938 293.347656 661.960938 C 291.765625 662.261719 290.199219 662.628906 288.652344 663.070312 C 287.105469 663.511719 285.582031 664.023438 284.082031 664.601562 C 282.578125 665.183594 281.109375 665.828125 279.667969 666.542969 C 278.222656 667.257812 276.816406 668.035156 275.445312 668.878906 C 274.074219 669.71875 272.746094 670.625 271.457031 671.585938 C 270.167969 672.550781 268.925781 673.570312 267.730469 674.648438 C 266.535156 675.722656 265.390625 676.851562 264.296875 678.035156 C 263.203125 679.214844 262.167969 680.441406 261.1875 681.71875 C 260.207031 682.992188 259.285156 684.3125 258.421875 685.671875 C 257.5625 687.03125 256.765625 688.425781 256.03125 689.855469 C 255.296875 691.289062 254.628906 692.75 254.03125 694.246094 C 253.429688 695.738281 252.898438 697.253906 252.4375 698.796875 C 251.972656 700.335938 251.582031 701.894531 251.261719 703.472656 C 250.941406 705.050781 250.695312 706.636719 250.519531 708.238281 C 250.34375 709.835938 250.242188 711.441406 250.210938 713.050781 C 250.183594 714.660156 250.226562 716.265625 250.34375 717.871094 C 249.695312 742.28125 250.925781 766.597656 254.042969 790.816406 C 255.144531 801.429688 256.203125 812.023438 257.003906 822.554688 L 260.332031 869.640625 L 259.230469 867.109375 L 249.957031 847.652344 C 244.292969 835.632812 238.757812 823.503906 233.523438 811.265625 L 231.578125 806.683594 C 227.441406 795.128906 221.523438 784.570312 213.828125 775.011719 C 213.039062 773.964844 212.203125 772.957031 211.324219 771.984375 C 210.445312 771.011719 209.523438 770.082031 208.5625 769.1875 C 207.601562 768.296875 206.605469 767.449219 205.570312 766.644531 C 204.535156 765.84375 203.464844 765.085938 202.363281 764.375 C 201.261719 763.667969 200.128906 763.007812 198.96875 762.394531 C 197.808594 761.785156 196.625 761.226562 195.417969 760.71875 C 194.207031 760.214844 192.980469 759.761719 191.730469 759.363281 C 190.480469 758.964844 189.21875 758.621094 187.9375 758.332031 C 186.660156 758.042969 185.371094 757.8125 184.070312 757.640625 C 182.773438 757.464844 181.46875 757.347656 180.160156 757.289062 C 178.851562 757.226562 177.539062 757.226562 176.230469 757.28125 C 174.921875 757.335938 173.617188 757.449219 172.316406 757.617188 C 171.015625 757.789062 169.726562 758.015625 168.445312 758.296875 C 167.167969 758.582031 165.902344 758.917969 164.652344 759.3125 C 163.402344 759.707031 162.171875 760.15625 160.960938 760.65625 C 159.75 761.160156 158.5625 761.714844 157.402344 762.320312 C 123.457031 784.070312 140.582031 835.632812 150.808594 866.460938 L 153.746094 875.519531 C 157.640625 888.0625 161.898438 900.492188 166.136719 912.921875 C 173.855469 935.601562 181.851562 959.039062 187.34375 982.496094 C 191.800781 1000.347656 194.234375 1018.472656 194.652344 1036.867188 C 194.558594 1047.425781 193.902344 1057.945312 192.683594 1068.433594 C 190.316406 1085.703125 190.089844 1102.996094 192.015625 1120.320312 C 195.289062 1139.855469 199.808594 1159.09375 205.570312 1178.046875 C 208.488281 1188.359375 211.386719 1198.691406 213.871094 1209.089844 C 217.269531 1219.988281 219.929688 1231.0625 221.847656 1242.3125 C 223.765625 1253.5625 224.925781 1264.890625 225.332031 1276.300781 C 225.734375 1287.707031 225.378906 1299.089844 224.257812 1310.449219 C 223.140625 1321.804688 221.269531 1333.039062 218.648438 1344.148438 C 218.433594 1344.839844 218.285156 1345.542969 218.210938 1346.261719 C 218.136719 1346.980469 218.132812 1347.699219 218.199219 1348.417969 C 218.269531 1349.136719 218.40625 1349.839844 218.617188 1350.53125 C 218.824219 1351.222656 219.101562 1351.886719 219.445312 1352.523438 C 219.789062 1353.160156 220.191406 1353.753906 220.652344 1354.308594 C 221.113281 1354.863281 221.625 1355.367188 222.1875 1355.820312 C 222.753906 1356.273438 223.355469 1356.664062 223.996094 1356.996094 C 224.636719 1357.328125 225.304688 1357.59375 226 1357.792969 C 260.835938 1367.746094 296.191406 1375.238281 332.070312 1380.257812 C 367.949219 1385.28125 404 1387.789062 440.230469 1387.777344 C 451.257812 1387.777344 462.28125 1387.546875 473.308594 1387.085938 C 473.699219 1387.070312 474.085938 1387.03125 474.46875 1386.972656 C 474.855469 1386.914062 475.238281 1386.832031 475.613281 1386.734375 C 475.992188 1386.632812 476.359375 1386.511719 476.726562 1386.371094 C 477.089844 1386.234375 477.445312 1386.074219 477.789062 1385.894531 C 478.136719 1385.714844 478.472656 1385.519531 478.796875 1385.304688 C 479.125 1385.089844 479.4375 1384.855469 479.734375 1384.609375 C 480.035156 1384.359375 480.320312 1384.09375 480.59375 1383.816406 C 480.863281 1383.535156 481.121094 1383.242188 481.359375 1382.933594 C 481.601562 1382.628906 481.824219 1382.308594 482.027344 1381.976562 C 482.234375 1381.644531 482.421875 1381.304688 482.589844 1380.953125 C 482.757812 1380.601562 482.90625 1380.238281 483.035156 1379.871094 C 483.164062 1379.503906 483.273438 1379.128906 483.363281 1378.75 C 483.449219 1378.371094 483.519531 1377.988281 483.566406 1377.601562 C 483.613281 1377.214844 483.640625 1376.824219 483.644531 1376.4375 C 483.652344 1376.046875 483.636719 1375.65625 483.597656 1375.269531 C 483.5625 1374.882812 483.503906 1374.496094 483.425781 1374.113281 C 475.296875 1335.71875 503.53125 1299.398438 521.085938 1281.148438 C 530.339844 1271.550781 540.546875 1262.320312 550.597656 1253.390625 C 570.21875 1237.089844 587.679688 1218.734375 602.984375 1198.324219 C 614.308594 1180.828125 623.871094 1162.414062 631.671875 1143.085938 C 638.140625 1127.335938 645.714844 1112.136719 654.394531 1097.492188 C 659.929688 1088.625 666.328125 1080.195312 672.726562 1071.546875 C 677.328125 1066.40625 681.578125 1060.992188 685.476562 1055.300781 C 689.371094 1049.609375 692.886719 1043.6875 696.019531 1037.542969 C 699.148438 1031.394531 701.871094 1025.074219 704.179688 1018.574219 C 706.492188 1012.074219 708.375 1005.453125 709.828125 998.710938 C 710.121094 997.46875 710.359375 996.214844 710.539062 994.953125 C 710.722656 993.6875 710.847656 992.417969 710.914062 991.144531 C 710.980469 989.871094 710.988281 988.59375 710.941406 987.320312 C 710.894531 986.042969 710.789062 984.773438 710.625 983.507812 C 710.464844 982.242188 710.246094 980.984375 709.96875 979.738281 C 709.695312 978.492188 709.363281 977.261719 708.976562 976.046875 C 708.589844 974.828125 708.148438 973.632812 707.65625 972.457031 C 707.160156 971.277344 706.617188 970.128906 706.019531 969 C 705.417969 967.871094 704.773438 966.773438 704.074219 965.703125 C 703.378906 964.636719 702.636719 963.597656 701.84375 962.597656 C 701.054688 961.59375 700.222656 960.628906 699.34375 959.703125 C 698.464844 958.777344 697.550781 957.890625 696.59375 957.046875 C 695.636719 956.199219 694.644531 955.402344 693.613281 954.644531 C 692.585938 953.890625 691.523438 953.183594 690.429688 952.523438 C 689.339844 951.863281 688.21875 951.253906 687.070312 950.695312 C 685.921875 950.136719 684.753906 949.632812 683.558594 949.179688 Z M 341.0625 1359.671875 C 307.726562 1355.277344 274.828125 1348.695312 242.367188 1339.933594 C 247.066406 1319.558594 248.628906 1298.949219 247.058594 1278.101562 C 280.667969 1273.421875 314.316406 1273.128906 348 1277.214844 C 369.46875 1279.988281 390.566406 1284.507812 411.289062 1290.769531 C 432.011719 1297.03125 452.078125 1304.953125 471.492188 1314.53125 C 467.523438 1322.492188 464.609375 1330.820312 462.753906 1339.519531 C 460.898438 1348.21875 460.15625 1357.011719 460.53125 1365.898438 C 420.542969 1366.945312 380.722656 1364.871094 341.0625 1359.671875 Z M 688.402344 995.898438 C 687.03125 1001.714844 685.300781 1007.421875 683.207031 1013.019531 C 681.113281 1018.617188 678.675781 1024.058594 675.894531 1029.347656 C 673.113281 1034.632812 670.007812 1039.726562 666.578125 1044.621094 C 663.152344 1049.515625 659.429688 1054.171875 655.410156 1058.597656 C 648.664062 1067.613281 641.921875 1076.628906 636.0625 1085.988281 C 626.835938 1101.527344 618.777344 1117.648438 611.890625 1134.351562 C 604.65625 1152.421875 595.753906 1169.632812 585.191406 1185.980469 C 570.859375 1204.980469 554.515625 1222.050781 536.15625 1237.195312 C 525.929688 1246.40625 515.335938 1255.898438 505.523438 1266.082031 C 496.734375 1275.167969 488.863281 1284.988281 481.914062 1295.546875 C 461.292969 1285.316406 439.972656 1276.859375 417.945312 1270.179688 C 395.917969 1263.5 373.488281 1258.6875 350.660156 1255.746094 C 315.40625 1251.441406 280.1875 1251.714844 245.003906 1256.566406 C 242.550781 1238.921875 239.199219 1221.445312 234.953125 1204.140625 C 232.421875 1193.4375 229.4375 1182.824219 226.453125 1172.207031 C 220.925781 1154.160156 216.601562 1135.824219 213.484375 1117.207031 C 211.832031 1101.617188 212.101562 1086.058594 214.28125 1070.53125 C 215.574219 1059.273438 216.257812 1047.980469 216.335938 1036.652344 C 215.894531 1016.660156 213.273438 996.957031 208.46875 977.542969 C 202.714844 953.070312 194.542969 929.117188 186.652344 905.960938 C 182.480469 893.703125 178.308594 881.445312 174.460938 869.207031 L 171.390625 859.738281 C 163.691406 836.476562 149.359375 793.238281 169.140625 780.523438 C 178.351562 774.621094 191.367188 782.082031 197.65625 789.28125 C 203.703125 797.089844 208.375 805.652344 211.667969 814.964844 L 213.65625 819.699219 C 218.972656 832.152344 224.617188 844.496094 230.367188 856.753906 L 239.707031 876.429688 C 248.507812 894.847656 257.609375 913.917969 265.457031 932.988281 L 265.457031 933.09375 C 265.726562 933.75 266.058594 934.375 266.453125 934.964844 C 266.84375 935.558594 267.292969 936.105469 267.792969 936.605469 C 268.296875 937.109375 268.839844 937.558594 269.429688 937.957031 C 270.019531 938.351562 270.640625 938.683594 271.296875 938.957031 C 271.953125 939.230469 272.628906 939.4375 273.324219 939.578125 C 274.019531 939.71875 274.722656 939.789062 275.433594 939.789062 C 276.144531 939.792969 276.847656 939.722656 277.542969 939.585938 C 278.242188 939.449219 278.917969 939.246094 279.574219 938.976562 C 280.230469 938.703125 280.855469 938.371094 281.445312 937.980469 C 282.035156 937.585938 282.585938 937.140625 283.085938 936.636719 C 283.589844 936.136719 284.039062 935.589844 284.433594 935 C 284.832031 934.414062 285.164062 933.789062 285.4375 933.132812 C 285.710938 932.480469 285.917969 931.800781 286.058594 931.105469 C 286.199219 930.410156 286.269531 929.707031 286.269531 928.996094 C 286.269531 928.289062 286.203125 927.582031 286.066406 926.886719 C 285.929688 926.191406 285.726562 925.515625 285.453125 924.855469 C 284.472656 920.234375 284.15625 915.5625 284.503906 910.847656 C 284.503906 907.5625 284.503906 904.363281 284.351562 901.8125 L 278.6875 821.039062 C 277.929688 810.230469 276.808594 799.417969 275.703125 788.609375 C 272.707031 765.503906 271.496094 742.308594 272.074219 719.015625 C 272.484375 711.339844 275.402344 686.046875 296.179688 683.429688 C 317.539062 680.769531 329.019531 706.953125 332.023438 721.199219 C 334.917969 737.882812 336.179688 754.6875 335.808594 771.617188 C 335.734375 785.636719 336.457031 799.621094 337.96875 813.558594 C 342.117188 845.503906 349.792969 876.578125 360.992188 906.78125 C 361.230469 907.449219 361.527344 908.085938 361.886719 908.695312 C 362.25 909.300781 362.664062 909.867188 363.136719 910.394531 C 363.609375 910.921875 364.128906 911.394531 364.691406 911.820312 C 365.257812 912.246094 365.859375 912.609375 366.496094 912.917969 C 367.132812 913.222656 367.792969 913.464844 368.476562 913.644531 C 369.160156 913.820312 369.855469 913.929688 370.558594 913.96875 C 371.265625 914.011719 371.96875 913.984375 372.667969 913.886719 C 373.367188 913.789062 374.050781 913.625 374.71875 913.394531 C 375.386719 913.164062 376.027344 912.871094 376.636719 912.511719 C 377.246094 912.15625 377.816406 911.746094 378.347656 911.277344 C 378.875 910.808594 379.355469 910.292969 379.78125 909.730469 C 380.210938 909.167969 380.582031 908.570312 380.890625 907.9375 C 381.203125 907.300781 381.449219 906.640625 381.632812 905.960938 C 381.8125 905.277344 381.925781 904.582031 381.972656 903.878906 C 382.019531 903.171875 381.996094 902.46875 381.902344 901.769531 C 381.808594 901.066406 381.652344 900.382812 381.425781 899.714844 C 381.40625 897.800781 381.535156 895.898438 381.8125 894.007812 C 382.03125 892.015625 382.222656 890.136719 382.269531 888.664062 L 384.796875 777.257812 C 385.230469 757.714844 385.511719 738.191406 385.640625 718.691406 C 385.226562 710.429688 385.625 702.210938 386.832031 694.027344 C 388.042969 685.84375 390.035156 677.859375 392.816406 670.070312 C 393.957031 667.539062 395.355469 665.160156 397.007812 662.929688 C 398.660156 660.699219 400.527344 658.671875 402.617188 656.847656 C 404.707031 655.019531 406.96875 653.4375 409.398438 652.097656 C 411.828125 650.757812 414.371094 649.695312 417.03125 648.902344 C 418.359375 648.5625 419.707031 648.398438 421.078125 648.402344 C 422.449219 648.40625 423.792969 648.585938 425.121094 648.933594 C 426.445312 649.285156 427.703125 649.796875 428.894531 650.46875 C 430.089844 651.140625 431.179688 651.953125 432.164062 652.902344 C 434.566406 655.304688 436.542969 658.011719 438.101562 661.027344 C 439.660156 664.039062 440.722656 667.222656 441.289062 670.566406 C 443.8125 686.152344 444.527344 701.816406 443.429688 717.566406 C 443.257812 722.949219 443.082031 728.378906 443.0625 733.480469 C 442.890625 756.332031 442.824219 778.6875 444.011719 801.257812 C 444.8125 816.390625 446.628906 831.523438 448.335938 846.203125 C 451.035156 865.40625 452.582031 884.695312 452.984375 904.082031 C 452.984375 904.792969 453.050781 905.5 453.1875 906.203125 C 453.324219 906.902344 453.53125 907.582031 453.800781 908.242188 C 454.070312 908.90625 454.402344 909.53125 454.792969 910.128906 C 455.1875 910.722656 455.636719 911.277344 456.136719 911.785156 C 456.636719 912.292969 457.183594 912.746094 457.773438 913.148438 C 458.363281 913.550781 458.988281 913.890625 459.644531 914.171875 C 460.300781 914.449219 460.980469 914.664062 461.675781 914.808594 C 462.375 914.957031 463.082031 915.035156 463.796875 915.042969 C 464.472656 915.054688 465.148438 915 465.816406 914.882812 C 466.484375 914.765625 467.136719 914.585938 467.769531 914.339844 C 468.40625 914.097656 469.011719 913.800781 469.589844 913.441406 C 470.164062 913.082031 470.703125 912.675781 471.203125 912.214844 C 471.699219 911.753906 472.152344 911.25 472.554688 910.703125 C 472.957031 910.15625 473.300781 909.574219 473.59375 908.960938 C 473.886719 908.347656 474.117188 907.714844 474.285156 907.054688 C 474.457031 906.398438 474.5625 905.730469 474.605469 905.054688 L 474.605469 904.320312 C 475.476562 902.390625 476.558594 900.589844 477.847656 898.914062 C 478.691406 897.679688 479.511719 896.492188 480.183594 895.390625 C 482.996094 890.582031 485.4375 885.597656 487.511719 880.429688 L 488.722656 877.660156 C 495.199219 862.585938 500.550781 847.117188 504.785156 831.265625 C 509.78125 813.171875 513.738281 794.640625 517.5625 776.742188 C 519.964844 765.605469 522.339844 754.429688 524.980469 743.316406 C 534.46875 703.492188 551.570312 704.660156 557.191406 705.136719 C 558.59375 705.304688 559.964844 705.605469 561.304688 706.039062 C 562.644531 706.46875 563.933594 707.027344 565.167969 707.710938 C 566.402344 708.390625 567.558594 709.183594 568.640625 710.089844 C 569.71875 710.996094 570.703125 711.996094 571.589844 713.09375 C 573.773438 716.496094 575.628906 720.066406 577.15625 723.808594 C 578.6875 727.550781 579.863281 731.398438 580.6875 735.355469 C 581.515625 739.3125 581.976562 743.3125 582.070312 747.351562 C 582.164062 751.394531 581.894531 755.410156 581.253906 759.402344 C 578.917969 812.699219 571.167969 865.199219 558.015625 916.902344 L 553.691406 933.484375 C 547.246094 955.347656 542.605469 977.585938 539.765625 1000.203125 C 538.675781 1007.453125 538.195312 1014.746094 538.335938 1022.078125 C 538.476562 1029.410156 539.230469 1036.675781 540.601562 1043.882812 C 541.972656 1051.085938 543.9375 1058.125 546.496094 1064.996094 C 549.054688 1071.867188 552.175781 1078.476562 555.851562 1084.820312 C 556.386719 1085.671875 557.03125 1086.433594 557.78125 1087.105469 C 558.53125 1087.773438 559.359375 1088.328125 560.265625 1088.761719 C 561.171875 1089.199219 562.121094 1089.5 563.113281 1089.667969 C 564.105469 1089.835938 565.101562 1089.863281 566.101562 1089.75 C 567.097656 1089.644531 568.0625 1089.398438 568.992188 1089.023438 C 569.925781 1088.648438 570.785156 1088.152344 571.578125 1087.535156 C 572.371094 1086.917969 573.0625 1086.203125 573.65625 1085.394531 C 574.25 1084.585938 574.722656 1083.707031 575.070312 1082.765625 C 577.066406 1077.414062 579.265625 1072.144531 581.671875 1066.960938 C 584.078125 1061.78125 586.679688 1056.699219 589.484375 1051.722656 C 592.285156 1046.742188 595.28125 1041.882812 598.460938 1037.136719 C 601.644531 1032.390625 605.007812 1027.777344 608.550781 1023.296875 C 612.097656 1018.816406 615.808594 1014.480469 619.691406 1010.289062 C 623.574219 1006.097656 627.613281 1002.0625 631.8125 998.1875 C 636.011719 994.3125 640.351562 990.605469 644.839844 987.070312 C 649.328125 983.535156 653.945312 980.179688 658.695312 977.003906 C 660.050781 975.851562 661.496094 974.832031 663.039062 973.945312 C 664.582031 973.0625 666.191406 972.328125 667.871094 971.742188 C 669.550781 971.15625 671.269531 970.726562 673.027344 970.460938 C 674.785156 970.191406 676.550781 970.089844 678.328125 970.152344 C 686.414062 972.160156 689.851562 985.089844 688.402344 995.898438 Z M 688.402344 995.898438 " fill-opacity="1" fill-rule="nonzero"/><path fill="#0F7A68" d="M 1067.804688 519.984375 L 1213.113281 509.175781 C 1215.59375 508.992188 1218.070312 508.742188 1220.542969 508.429688 C 1223.011719 508.117188 1225.472656 507.738281 1227.921875 507.300781 C 1230.375 506.863281 1232.8125 506.359375 1235.238281 505.796875 C 1237.664062 505.230469 1240.070312 504.605469 1242.464844 503.917969 C 1244.855469 503.226562 1247.230469 502.480469 1249.585938 501.667969 C 1251.941406 500.859375 1254.273438 499.988281 1256.582031 499.058594 C 1258.890625 498.128906 1261.175781 497.140625 1263.433594 496.09375 C 1265.691406 495.046875 1267.921875 493.941406 1270.125 492.777344 C 1272.328125 491.617188 1274.5 490.398438 1276.636719 489.125 C 1278.777344 487.851562 1280.882812 486.523438 1282.953125 485.140625 C 1285.023438 483.757812 1287.058594 482.324219 1289.058594 480.839844 C 1291.054688 479.351562 1293.011719 477.816406 1294.929688 476.230469 C 1296.851562 474.640625 1298.726562 473.007812 1300.5625 471.324219 C 1302.394531 469.640625 1304.1875 467.910156 1305.929688 466.136719 C 1307.675781 464.359375 1309.375 462.539062 1311.027344 460.679688 C 1312.679688 458.816406 1314.285156 456.910156 1315.839844 454.964844 C 1317.390625 453.019531 1318.894531 451.039062 1320.347656 449.015625 C 1321.800781 446.992188 1323.199219 444.933594 1324.546875 442.839844 C 1325.894531 440.746094 1327.183594 438.617188 1328.421875 436.457031 C 1329.660156 434.296875 1330.839844 432.105469 1331.964844 429.882812 C 1333.089844 427.664062 1334.15625 425.414062 1335.167969 423.136719 C 1336.175781 420.859375 1337.125 418.558594 1338.015625 416.234375 C 1338.90625 413.910156 1339.738281 411.5625 1340.507812 409.195312 C 1341.277344 406.828125 1341.988281 404.441406 1342.632812 402.039062 C 1343.28125 399.632812 1343.867188 397.214844 1344.390625 394.78125 C 1344.914062 392.347656 1345.375 389.898438 1345.773438 387.441406 C 1346.171875 384.984375 1346.503906 382.519531 1346.777344 380.042969 C 1347.046875 377.566406 1347.253906 375.085938 1347.398438 372.601562 C 1347.539062 370.117188 1347.621094 367.628906 1347.636719 365.136719 C 1347.652344 362.648438 1347.601562 360.160156 1347.488281 357.671875 C 1347.378906 355.183594 1347.203125 352.703125 1346.960938 350.222656 C 1346.722656 347.746094 1346.417969 345.273438 1346.050781 342.8125 C 1345.59375 339.726562 1345.035156 336.664062 1344.378906 333.613281 C 1343.722656 330.566406 1342.96875 327.542969 1342.121094 324.542969 C 1341.269531 321.542969 1340.324219 318.574219 1339.28125 315.636719 C 1338.242188 312.695312 1337.105469 309.792969 1335.878906 306.929688 C 1334.648438 304.0625 1333.328125 301.238281 1331.917969 298.457031 C 1330.507812 295.679688 1329.011719 292.945312 1327.425781 290.261719 C 1325.839844 287.578125 1324.167969 284.945312 1322.414062 282.367188 C 1320.660156 279.792969 1318.824219 277.273438 1316.90625 274.816406 C 1314.988281 272.355469 1312.992188 269.960938 1310.921875 267.632812 C 1308.851562 265.300781 1306.707031 263.039062 1304.492188 260.847656 C 1302.273438 258.65625 1299.988281 256.535156 1297.636719 254.492188 C 1295.28125 252.445312 1292.867188 250.476562 1290.386719 248.585938 C 1287.90625 246.699219 1285.367188 244.890625 1282.773438 243.164062 C 1280.175781 241.4375 1277.527344 239.796875 1274.824219 238.238281 C 1272.125 236.683594 1269.375 235.214844 1266.578125 233.835938 C 1263.78125 232.457031 1260.945312 231.167969 1258.066406 229.972656 C 1255.1875 228.777344 1252.269531 227.671875 1249.320312 226.664062 C 1246.371094 225.65625 1243.390625 224.742188 1240.382812 223.925781 C 1237.375 223.109375 1234.34375 222.386719 1231.285156 221.765625 C 1228.230469 221.144531 1225.160156 220.621094 1222.070312 220.195312 C 1218.980469 219.769531 1215.882812 219.445312 1212.773438 219.222656 C 1209.664062 218.996094 1206.550781 218.871094 1203.429688 218.847656 C 1200.3125 218.824219 1197.199219 218.898438 1194.085938 219.074219 C 1190.972656 219.25 1187.867188 219.527344 1184.773438 219.902344 C 1181.679688 220.277344 1178.597656 220.75 1175.535156 221.324219 C 1172.46875 221.898438 1169.425781 222.570312 1166.40625 223.339844 C 1163.382812 224.109375 1160.390625 224.976562 1157.425781 225.9375 C 1154.457031 226.902344 1151.527344 227.957031 1148.628906 229.109375 C 1145.730469 230.257812 1142.875 231.5 1140.054688 232.835938 C 1137.238281 234.171875 1134.464844 235.59375 1131.742188 237.109375 C 1129.015625 238.621094 1126.339844 240.222656 1123.71875 241.90625 C 1121.09375 243.589844 1118.527344 245.359375 1116.019531 247.210938 L 1111.695312 250.367188 C 1054.554688 249.113281 994.949219 215.515625 937.289062 182.828125 C 876.125 148.105469 812.867188 112.21875 749.003906 112.21875 C 685.484375 112.21875 622.527344 148.105469 561.644531 182.828125 C 504.3125 215.515625 445.160156 249.113281 388.234375 250.367188 L 383.910156 247.210938 C 381.402344 245.359375 378.835938 243.59375 376.214844 241.90625 C 373.589844 240.222656 370.917969 238.621094 368.191406 237.109375 C 365.464844 235.59375 362.695312 234.171875 359.878906 232.835938 C 357.0625 231.5 354.203125 230.257812 351.308594 229.109375 C 348.410156 227.957031 345.480469 226.898438 342.511719 225.9375 C 339.546875 224.976562 336.554688 224.109375 333.535156 223.339844 C 330.515625 222.570312 327.472656 221.898438 324.40625 221.324219 C 321.34375 220.75 318.265625 220.273438 315.167969 219.898438 C 312.074219 219.519531 308.972656 219.246094 305.859375 219.070312 C 302.746094 218.890625 299.632812 218.816406 296.515625 218.839844 C 293.398438 218.863281 290.285156 218.988281 287.175781 219.214844 C 284.066406 219.4375 280.964844 219.761719 277.878906 220.183594 C 274.789062 220.609375 271.71875 221.132812 268.664062 221.753906 C 265.609375 222.375 262.578125 223.09375 259.570312 223.910156 C 256.558594 224.726562 253.582031 225.640625 250.628906 226.648438 C 247.679688 227.65625 244.765625 228.757812 241.886719 229.953125 C 239.007812 231.148438 236.171875 232.433594 233.375 233.8125 C 230.578125 235.191406 227.828125 236.660156 225.128906 238.214844 C 222.425781 239.769531 219.777344 241.410156 217.179688 243.132812 C 214.585938 244.859375 212.046875 246.667969 209.566406 248.554688 C 207.085938 250.445312 204.671875 252.410156 202.316406 254.457031 C 199.964844 256.5 197.679688 258.617188 195.460938 260.808594 C 193.242188 263 191.097656 265.261719 189.027344 267.589844 C 186.957031 269.921875 184.960938 272.3125 183.042969 274.773438 C 181.125 277.230469 179.289062 279.746094 177.535156 282.324219 C 175.777344 284.898438 174.105469 287.527344 172.519531 290.210938 C 170.933594 292.894531 169.433594 295.625 168.023438 298.40625 C 166.613281 301.1875 165.292969 304.007812 164.0625 306.875 C 162.835938 309.738281 161.699219 312.640625 160.65625 315.578125 C 159.613281 318.515625 158.667969 321.484375 157.816406 324.480469 C 156.964844 327.480469 156.210938 330.503906 155.550781 333.550781 C 154.894531 336.597656 154.335938 339.664062 153.878906 342.746094 C 153.507812 345.210938 153.203125 347.683594 152.960938 350.164062 C 152.71875 352.640625 152.542969 355.125 152.425781 357.613281 C 152.3125 360.101562 152.261719 362.59375 152.277344 365.082031 C 152.292969 367.574219 152.367188 370.0625 152.511719 372.550781 C 152.652344 375.039062 152.859375 377.519531 153.128906 379.996094 C 153.398438 382.472656 153.730469 384.941406 154.125 387.402344 C 154.523438 389.859375 154.984375 392.308594 155.503906 394.742188 C 156.027344 397.179688 156.613281 399.601562 157.257812 402.007812 C 157.90625 404.410156 158.613281 406.800781 159.382812 409.167969 C 160.152344 411.539062 160.980469 413.886719 161.871094 416.210938 C 162.761719 418.539062 163.710938 420.839844 164.71875 423.121094 C 165.730469 425.398438 166.796875 427.648438 167.917969 429.871094 C 169.042969 432.09375 170.226562 434.285156 171.460938 436.449219 C 172.699219 438.613281 173.992188 440.742188 175.335938 442.835938 C 176.683594 444.933594 178.082031 446.992188 179.535156 449.015625 C 180.988281 451.039062 182.492188 453.027344 184.046875 454.972656 C 185.601562 456.917969 187.203125 458.824219 188.855469 460.6875 C 190.507812 462.550781 192.207031 464.375 193.953125 466.148438 C 195.699219 467.925781 197.492188 469.65625 199.328125 471.34375 C 201.160156 473.027344 203.039062 474.664062 204.957031 476.25 C 206.878906 477.839844 208.835938 479.378906 210.835938 480.867188 C 212.832031 482.351562 214.867188 483.789062 216.941406 485.171875 C 219.011719 486.554688 221.117188 487.882812 223.257812 489.15625 C 225.398438 490.429688 227.570312 491.648438 229.773438 492.8125 C 231.976562 493.976562 234.210938 495.082031 236.46875 496.128906 C 238.730469 497.179688 241.015625 498.167969 243.324219 499.097656 C 245.636719 500.027344 247.96875 500.898438 250.324219 501.710938 C 252.679688 502.519531 255.054688 503.269531 257.449219 503.957031 C 259.84375 504.648438 262.253906 505.273438 264.679688 505.839844 C 267.105469 506.402344 269.546875 506.90625 271.996094 507.34375 C 274.449219 507.785156 276.910156 508.160156 279.382812 508.472656 C 281.855469 508.785156 284.332031 509.035156 286.816406 509.21875 L 432.121094 520.027344 C 436.3125 526.734375 440.710938 533.304688 445.3125 539.734375 C 449.917969 546.164062 454.722656 552.441406 459.726562 558.566406 C 464.726562 564.691406 469.917969 570.652344 475.296875 576.449219 C 480.679688 582.242188 486.234375 587.863281 491.972656 593.308594 C 497.707031 598.753906 503.609375 604.011719 509.675781 609.082031 C 515.746094 614.152344 521.96875 619.027344 528.34375 623.703125 C 534.722656 628.382812 541.238281 632.851562 547.898438 637.117188 C 554.558594 641.382812 561.347656 645.429688 568.265625 649.265625 C 575.179688 653.101562 582.210938 656.714844 589.355469 660.101562 C 596.5 663.492188 603.746094 666.652344 611.089844 669.585938 C 618.4375 672.515625 625.867188 675.210938 633.382812 677.671875 C 640.898438 680.132812 648.484375 682.351562 656.140625 684.332031 C 663.796875 686.3125 671.507812 688.050781 679.273438 689.542969 C 687.039062 691.035156 694.84375 692.28125 702.691406 693.277344 C 710.535156 694.277344 718.402344 695.027344 726.296875 695.527344 C 734.1875 696.027344 742.089844 696.277344 749.996094 696.277344 C 757.90625 696.277344 765.804688 696.027344 773.699219 695.527344 C 781.589844 695.027344 789.460938 694.277344 797.304688 693.277344 C 805.148438 692.28125 812.953125 691.035156 820.71875 689.542969 C 828.488281 688.050781 836.199219 686.3125 843.855469 684.332031 C 851.511719 682.351562 859.097656 680.132812 866.613281 677.671875 C 874.128906 675.210938 881.558594 672.515625 888.902344 669.585938 C 896.246094 666.652344 903.492188 663.492188 910.636719 660.101562 C 917.78125 656.714844 924.8125 653.101562 931.730469 649.265625 C 938.644531 645.429688 945.433594 641.382812 952.09375 637.117188 C 958.753906 632.851562 965.273438 628.382812 971.648438 623.703125 C 978.027344 619.027344 984.25 614.152344 990.316406 609.082031 C 996.386719 604.011719 1002.289062 598.753906 1008.023438 593.308594 C 1013.757812 587.863281 1019.316406 582.242188 1024.695312 576.449219 C 1030.074219 570.652344 1035.265625 564.691406 1040.269531 558.566406 C 1045.269531 552.441406 1050.074219 546.164062 1054.679688 539.734375 C 1059.285156 533.304688 1063.683594 526.734375 1067.871094 520.027344 Z M 1249.777344 249.871094 C 1252.964844 251.191406 1256.085938 252.644531 1259.152344 254.226562 C 1262.214844 255.808594 1265.207031 257.515625 1268.125 259.347656 C 1271.046875 261.183594 1273.886719 263.132812 1276.644531 265.203125 C 1279.398438 267.273438 1282.066406 269.457031 1284.640625 271.75 C 1287.214844 274.042969 1289.691406 276.4375 1292.066406 278.9375 C 1294.441406 281.4375 1296.707031 284.03125 1298.863281 286.722656 C 1301.019531 289.410156 1303.0625 292.1875 1304.988281 295.046875 C 1306.914062 297.90625 1308.71875 300.839844 1310.398438 303.851562 C 1312.078125 306.863281 1313.628906 309.9375 1315.050781 313.078125 C 1316.476562 316.21875 1317.765625 319.414062 1318.921875 322.660156 C 1320.078125 325.910156 1321.097656 329.203125 1321.976562 332.535156 C 1322.859375 335.867188 1323.597656 339.234375 1324.199219 342.628906 C 1324.796875 346.023438 1325.253906 349.4375 1325.570312 352.871094 C 1325.882812 356.304688 1326.054688 359.746094 1326.082031 363.191406 C 1326.105469 366.640625 1325.988281 370.085938 1325.730469 373.523438 C 1325.46875 376.960938 1325.0625 380.382812 1324.515625 383.785156 C 1323.96875 387.191406 1323.28125 390.566406 1322.449219 393.910156 C 1321.621094 397.257812 1320.652344 400.566406 1319.546875 403.832031 C 1318.441406 407.097656 1317.203125 410.308594 1315.828125 413.472656 C 1314.453125 416.632812 1312.949219 419.734375 1311.316406 422.769531 C 1309.683594 425.804688 1307.925781 428.769531 1306.042969 431.660156 C 1304.164062 434.546875 1302.164062 437.355469 1300.046875 440.078125 C 1297.933594 442.796875 1295.707031 445.429688 1293.371094 447.964844 C 1291.035156 450.5 1288.597656 452.933594 1286.058594 455.269531 C 1283.519531 457.601562 1280.886719 459.824219 1278.164062 461.933594 C 1275.4375 464.046875 1272.628906 466.042969 1269.738281 467.921875 C 1266.847656 469.796875 1263.882812 471.550781 1260.84375 473.183594 C 1257.804688 474.8125 1254.703125 476.3125 1251.539062 477.683594 C 1248.375 479.054688 1245.160156 480.289062 1241.894531 481.390625 C 1238.625 482.492188 1235.320312 483.457031 1231.96875 484.28125 C 1228.621094 485.105469 1225.246094 485.792969 1221.839844 486.335938 C 1218.4375 486.878906 1215.015625 487.277344 1211.578125 487.535156 L 1081.40625 497.285156 C 1088.675781 483.742188 1095.085938 469.804688 1100.636719 455.46875 C 1106.183594 441.132812 1110.832031 426.511719 1114.574219 411.601562 C 1118.316406 396.695312 1121.128906 381.613281 1123.007812 366.355469 C 1124.890625 351.097656 1125.824219 335.785156 1125.8125 320.414062 L 1125.8125 266.863281 L 1128.839844 264.699219 C 1130.96875 263.113281 1133.148438 261.59375 1135.375 260.148438 C 1137.605469 258.699219 1139.878906 257.328125 1142.195312 256.027344 C 1144.511719 254.726562 1146.867188 253.503906 1149.265625 252.359375 C 1151.664062 251.210938 1154.09375 250.144531 1156.558594 249.15625 C 1159.027344 248.167969 1161.519531 247.257812 1164.046875 246.429688 C 1166.570312 245.605469 1169.121094 244.859375 1171.695312 244.199219 C 1174.265625 243.535156 1176.859375 242.960938 1179.46875 242.464844 C 1182.078125 241.972656 1184.703125 241.5625 1187.339844 241.238281 C 1189.976562 240.917969 1192.625 240.679688 1195.277344 240.527344 C 1197.929688 240.375 1200.582031 240.308594 1203.238281 240.328125 C 1205.898438 240.351562 1208.550781 240.457031 1211.199219 240.648438 C 1213.851562 240.839844 1216.492188 241.121094 1219.121094 241.484375 C 1221.753906 241.847656 1224.371094 242.296875 1226.976562 242.828125 C 1229.578125 243.363281 1232.160156 243.980469 1234.722656 244.679688 C 1237.285156 245.382812 1239.824219 246.164062 1242.335938 247.03125 C 1244.847656 247.898438 1247.328125 248.84375 1249.777344 249.871094 Z M 288.417969 487.535156 C 286.035156 487.355469 283.664062 487.109375 281.296875 486.792969 C 278.933594 486.476562 276.578125 486.09375 274.234375 485.640625 C 271.890625 485.191406 269.5625 484.671875 267.246094 484.085938 C 264.933594 483.496094 262.640625 482.84375 260.363281 482.125 C 258.085938 481.40625 255.835938 480.621094 253.605469 479.769531 C 251.375 478.921875 249.167969 478.007812 246.992188 477.03125 C 244.816406 476.050781 242.667969 475.011719 240.550781 473.910156 C 238.433594 472.808594 236.347656 471.648438 234.296875 470.425781 C 232.25 469.203125 230.234375 467.921875 228.257812 466.582031 C 226.285156 465.242188 224.347656 463.847656 222.453125 462.398438 C 220.558594 460.949219 218.707031 459.441406 216.898438 457.886719 C 215.089844 456.328125 213.328125 454.71875 211.613281 453.058594 C 209.898438 451.398438 208.230469 449.691406 206.613281 447.933594 C 205 446.175781 203.433594 444.375 201.921875 442.527344 C 200.410156 440.683594 198.953125 438.792969 197.550781 436.863281 C 196.148438 434.929688 194.800781 432.960938 193.515625 430.949219 C 192.226562 428.941406 190.996094 426.898438 189.824219 424.816406 C 188.65625 422.738281 187.546875 420.625 186.496094 418.480469 C 185.449219 416.335938 184.464844 414.164062 183.542969 411.960938 C 182.621094 409.761719 181.761719 407.535156 180.96875 405.28125 C 180.175781 403.03125 179.449219 400.757812 178.785156 398.464844 C 178.125 396.171875 177.527344 393.863281 177 391.535156 C 176.472656 389.207031 176.011719 386.867188 175.617188 384.511719 C 175.226562 382.15625 174.902344 379.792969 174.644531 377.421875 C 174.390625 375.046875 174.203125 372.667969 174.085938 370.285156 C 173.964844 367.902344 173.917969 365.515625 173.9375 363.128906 C 173.957031 360.742188 174.042969 358.359375 174.203125 355.976562 C 174.359375 353.59375 174.585938 351.21875 174.882812 348.851562 C 175.175781 346.484375 175.539062 344.125 175.972656 341.777344 C 176.402344 339.429688 176.902344 337.097656 177.46875 334.777344 C 178.035156 332.460938 178.667969 330.160156 179.367188 327.878906 C 180.066406 325.59375 180.832031 323.335938 181.664062 321.097656 C 182.496094 318.859375 183.390625 316.648438 184.347656 314.460938 C 185.304688 312.277344 186.328125 310.121094 187.410156 307.992188 C 188.492188 305.867188 189.636719 303.773438 190.84375 301.710938 C 192.046875 299.652344 193.308594 297.628906 194.632812 295.640625 C 195.953125 293.652344 197.332031 291.703125 198.765625 289.796875 C 200.199219 287.890625 201.6875 286.023438 203.230469 284.203125 C 204.773438 282.378906 206.367188 280.605469 208.011719 278.875 C 209.65625 277.144531 211.351562 275.464844 213.09375 273.835938 C 214.835938 272.203125 216.621094 270.625 218.457031 269.09375 C 220.289062 267.566406 222.167969 266.09375 224.085938 264.675781 C 226.003906 263.253906 227.960938 261.894531 229.960938 260.585938 C 231.957031 259.28125 233.992188 258.035156 236.0625 256.84375 C 238.132812 255.65625 240.234375 254.53125 242.371094 253.460938 C 244.503906 252.394531 246.667969 251.390625 248.863281 250.449219 C 251.058594 249.507812 253.277344 248.632812 255.519531 247.820312 C 257.765625 247.007812 260.03125 246.257812 262.316406 245.578125 C 264.605469 244.894531 266.910156 244.28125 269.230469 243.730469 C 271.554688 243.183594 273.890625 242.703125 276.242188 242.289062 C 278.59375 241.875 280.953125 241.53125 283.324219 241.253906 C 285.695312 240.976562 288.074219 240.769531 290.457031 240.632812 C 292.839844 240.492188 295.222656 240.421875 297.609375 240.421875 C 299.996094 240.421875 302.382812 240.488281 304.765625 240.625 C 307.148438 240.761719 309.523438 240.96875 311.894531 241.242188 C 314.265625 241.519531 316.628906 241.859375 318.980469 242.273438 C 321.332031 242.683594 323.667969 243.160156 325.992188 243.707031 C 328.3125 244.253906 330.621094 244.867188 332.90625 245.546875 C 335.195312 246.226562 337.460938 246.972656 339.707031 247.785156 C 341.953125 248.597656 344.171875 249.472656 346.367188 250.410156 C 348.558594 251.351562 350.726562 252.351562 352.859375 253.417969 C 354.996094 254.480469 357.101562 255.609375 359.171875 256.792969 C 361.242188 257.980469 363.277344 259.226562 365.277344 260.53125 C 367.277344 261.835938 369.234375 263.195312 371.15625 264.613281 L 374.183594 266.777344 L 374.183594 320.414062 C 374.171875 335.785156 375.105469 351.101562 376.984375 366.355469 C 378.863281 381.613281 381.675781 396.695312 385.417969 411.601562 C 389.164062 426.511719 393.808594 441.132812 399.359375 455.46875 C 404.90625 469.804688 411.316406 483.742188 418.589844 497.285156 Z M 749.996094 674.609375 C 744.203125 674.605469 738.410156 674.457031 732.621094 674.164062 C 726.835938 673.875 721.058594 673.445312 715.292969 672.871094 C 709.523438 672.296875 703.777344 671.582031 698.042969 670.726562 C 692.3125 669.875 686.605469 668.878906 680.921875 667.742188 C 675.238281 666.609375 669.589844 665.335938 663.96875 663.921875 C 658.347656 662.511719 652.765625 660.960938 647.21875 659.277344 C 641.675781 657.589844 636.175781 655.769531 630.722656 653.8125 C 625.265625 651.859375 619.863281 649.769531 614.507812 647.550781 C 609.15625 645.328125 603.863281 642.980469 598.625 640.5 C 593.386719 638.019531 588.210938 635.414062 583.101562 632.679688 C 577.992188 629.945312 572.953125 627.085938 567.984375 624.105469 C 563.015625 621.125 558.121094 618.023438 553.304688 614.804688 C 548.484375 611.582031 543.75 608.246094 539.097656 604.792969 C 534.441406 601.339844 529.875 597.777344 525.398438 594.097656 C 520.917969 590.421875 516.53125 586.636719 512.238281 582.746094 C 507.945312 578.851562 503.75 574.859375 499.652344 570.761719 C 495.554688 566.664062 491.558594 562.46875 487.664062 558.171875 C 483.773438 553.878906 479.988281 549.492188 476.3125 545.015625 C 472.636719 540.535156 469.070312 535.96875 465.617188 531.316406 C 462.164062 526.660156 458.828125 521.925781 455.605469 517.109375 C 452.386719 512.289062 449.285156 507.398438 446.304688 502.425781 C 443.324219 497.457031 440.464844 492.417969 437.734375 487.308594 C 435 482.199219 432.390625 477.023438 429.910156 471.789062 C 427.433594 466.550781 425.082031 461.253906 422.859375 455.902344 C 420.640625 450.550781 418.554688 445.144531 416.597656 439.691406 C 414.640625 434.234375 412.820312 428.734375 411.136719 423.191406 C 409.449219 417.644531 407.902344 412.0625 406.488281 406.445312 C 405.078125 400.824219 403.804688 395.171875 402.667969 389.488281 C 401.535156 383.804688 400.539062 378.097656 399.683594 372.367188 C 398.828125 366.636719 398.113281 360.886719 397.539062 355.121094 C 396.96875 349.351562 396.535156 343.578125 396.246094 337.789062 C 395.957031 332 395.808594 326.210938 395.800781 320.414062 L 395.800781 271.878906 C 455.667969 268.136719 514.925781 234.347656 572.347656 201.613281 C 630.722656 168.296875 691.257812 133.835938 749.003906 133.835938 C 807.160156 133.835938 867.910156 168.296875 926.671875 201.613281 C 984.417969 234.347656 1044.003906 268.160156 1104.191406 271.878906 L 1104.191406 320.414062 C 1104.1875 326.210938 1104.039062 332 1103.75 337.789062 C 1103.457031 343.578125 1103.027344 349.351562 1102.453125 355.121094 C 1101.878906 360.886719 1101.164062 366.636719 1100.3125 372.367188 C 1099.457031 378.097656 1098.460938 383.804688 1097.324219 389.488281 C 1096.191406 395.171875 1094.917969 400.824219 1093.503906 406.445312 C 1092.09375 412.0625 1090.542969 417.644531 1088.859375 423.191406 C 1087.171875 428.734375 1085.351562 434.234375 1083.394531 439.691406 C 1081.441406 445.144531 1079.351562 450.550781 1077.132812 455.902344 C 1074.914062 461.253906 1072.5625 466.550781 1070.082031 471.789062 C 1067.601562 477.023438 1064.996094 482.199219 1062.261719 487.308594 C 1059.527344 492.417969 1056.671875 497.457031 1053.6875 502.425781 C 1050.707031 507.398438 1047.609375 512.289062 1044.386719 517.109375 C 1041.164062 521.925781 1037.828125 526.660156 1034.375 531.316406 C 1030.921875 535.96875 1027.359375 540.535156 1023.679688 545.015625 C 1020.003906 549.492188 1016.21875 553.878906 1012.328125 558.171875 C 1008.4375 562.46875 1004.441406 566.664062 1000.34375 570.761719 C 996.246094 574.859375 992.050781 578.851562 987.757812 582.746094 C 983.460938 586.636719 979.078125 590.421875 974.597656 594.097656 C 970.117188 597.777344 965.550781 601.339844 960.898438 604.792969 C 956.242188 608.246094 951.507812 611.582031 946.691406 614.804688 C 941.871094 618.023438 936.980469 621.125 932.011719 624.105469 C 927.039062 627.085938 922 629.945312 916.890625 632.679688 C 911.78125 635.414062 906.609375 638.019531 901.371094 640.5 C 896.132812 642.980469 890.835938 645.328125 885.484375 647.550781 C 880.132812 649.769531 874.726562 651.859375 869.273438 653.8125 C 863.816406 655.769531 858.316406 657.589844 852.773438 659.277344 C 847.230469 660.960938 841.648438 662.511719 836.027344 663.921875 C 830.40625 665.335938 824.753906 666.609375 819.070312 667.742188 C 813.386719 668.878906 807.679688 669.871094 801.949219 670.726562 C 796.21875 671.582031 790.46875 672.296875 784.703125 672.871094 C 778.9375 673.445312 773.160156 673.875 767.371094 674.164062 C 761.582031 674.457031 755.792969 674.605469 749.996094 674.609375 Z M 749.996094 674.609375 " fill-opacity="1" fill-rule="nonzero"/><path fill="#0F7A68" d="M 944.726562 354.078125 C 937.046875 350.824219 929.296875 347.769531 921.464844 344.90625 C 913.636719 342.042969 905.738281 339.378906 897.777344 336.914062 C 889.8125 334.445312 881.792969 332.179688 873.714844 330.117188 C 865.640625 328.050781 857.515625 326.1875 849.347656 324.53125 C 841.175781 322.871094 832.96875 321.417969 824.726562 320.171875 C 816.484375 318.921875 808.214844 317.882812 799.921875 317.050781 C 791.628906 316.214844 783.316406 315.589844 774.992188 315.175781 C 766.664062 314.757812 758.332031 314.546875 749.996094 314.546875 C 741.660156 314.546875 733.328125 314.757812 725.003906 315.175781 C 716.675781 315.589844 708.367188 316.214844 700.070312 317.050781 C 691.777344 317.882812 683.507812 318.921875 675.265625 320.171875 C 667.023438 321.417969 658.816406 322.871094 650.648438 324.53125 C 642.476562 326.1875 634.355469 328.050781 626.277344 330.117188 C 618.199219 332.179688 610.179688 334.445312 602.21875 336.914062 C 594.253906 339.378906 586.359375 342.042969 578.527344 344.90625 C 570.699219 347.769531 562.945312 350.824219 555.269531 354.078125 C 554.617188 354.359375 554 354.703125 553.417969 355.109375 C 552.832031 355.515625 552.296875 355.972656 551.800781 356.484375 C 551.308594 356.996094 550.871094 357.550781 550.488281 358.148438 C 550.101562 358.746094 549.78125 359.375 549.523438 360.035156 C 549.261719 360.699219 549.070312 361.378906 548.945312 362.078125 C 548.816406 362.777344 548.761719 363.480469 548.773438 364.191406 C 548.789062 364.902344 548.871094 365.601562 549.023438 366.296875 C 549.171875 366.992188 549.390625 367.664062 549.675781 368.316406 C 549.957031 368.964844 550.304688 369.582031 550.710938 370.167969 C 551.113281 370.75 551.574219 371.289062 552.085938 371.78125 C 552.597656 372.273438 553.152344 372.710938 553.75 373.09375 C 554.347656 373.476562 554.976562 373.800781 555.636719 374.058594 C 556.300781 374.316406 556.980469 374.511719 557.679688 374.636719 C 558.378906 374.761719 559.082031 374.816406 559.792969 374.804688 C 560.503906 374.789062 561.207031 374.707031 561.898438 374.554688 C 562.59375 374.402344 563.265625 374.1875 563.917969 373.902344 C 571.253906 370.792969 578.664062 367.875 586.144531 365.136719 C 593.628906 362.402344 601.175781 359.855469 608.785156 357.496094 C 616.394531 355.140625 624.058594 352.972656 631.777344 351 C 639.496094 349.027344 647.261719 347.246094 655.070312 345.660156 C 662.878906 344.078125 670.71875 342.6875 678.597656 341.496094 C 686.476562 340.304688 694.378906 339.308594 702.304688 338.511719 C 710.230469 337.714844 718.175781 337.117188 726.132812 336.71875 C 734.089844 336.320312 742.050781 336.121094 750.019531 336.121094 C 757.984375 336.121094 765.949219 336.320312 773.90625 336.71875 C 781.863281 337.117188 789.804688 337.714844 797.730469 338.511719 C 805.660156 339.308594 813.5625 340.304688 821.4375 341.496094 C 829.316406 342.6875 837.160156 344.078125 844.96875 345.660156 C 852.777344 347.246094 860.539062 349.027344 868.257812 351 C 875.976562 352.972656 883.640625 355.140625 891.25 357.496094 C 898.863281 359.855469 906.410156 362.402344 913.890625 365.136719 C 921.375 367.875 928.785156 370.792969 936.121094 373.902344 C 936.769531 374.183594 937.441406 374.402344 938.136719 374.550781 C 938.828125 374.703125 939.53125 374.78125 940.242188 374.796875 C 940.949219 374.808594 941.652344 374.75 942.351562 374.625 C 943.050781 374.5 943.730469 374.304688 944.390625 374.046875 C 945.050781 373.785156 945.679688 373.464844 946.273438 373.082031 C 946.871094 372.699219 947.425781 372.261719 947.9375 371.769531 C 948.449219 371.277344 948.90625 370.738281 949.308594 370.15625 C 949.714844 369.574219 950.058594 368.957031 950.34375 368.304688 C 950.625 367.65625 950.84375 366.984375 950.996094 366.292969 C 951.148438 365.597656 951.230469 364.898438 951.242188 364.1875 C 951.257812 363.480469 951.199219 362.773438 951.074219 362.078125 C 950.949219 361.378906 950.757812 360.699219 950.5 360.039062 C 950.242188 359.378906 949.921875 358.75 949.539062 358.152344 C 949.15625 357.554688 948.71875 357 948.226562 356.488281 C 947.734375 355.976562 947.199219 355.515625 946.617188 355.113281 C 946.035156 354.707031 945.417969 354.359375 944.769531 354.078125 Z M 944.726562 354.078125 " fill-opacity="1" fill-rule="nonzero"/><path fill="#0F7A68" d="M 936.097656 434.523438 C 928.761719 437.628906 921.351562 440.550781 913.871094 443.285156 C 906.386719 446.023438 898.839844 448.570312 891.230469 450.925781 C 883.621094 453.285156 875.957031 455.449219 868.238281 457.425781 C 860.515625 459.398438 852.753906 461.175781 844.945312 462.761719 C 837.136719 464.347656 829.296875 465.738281 821.417969 466.929688 C 813.539062 468.121094 805.636719 469.117188 797.710938 469.910156 C 789.785156 470.707031 781.839844 471.304688 773.882812 471.703125 C 765.925781 472.105469 757.964844 472.304688 749.996094 472.304688 C 742.03125 472.304688 734.066406 472.105469 726.109375 471.703125 C 718.152344 471.304688 710.210938 470.707031 702.285156 469.910156 C 694.355469 469.117188 686.453125 468.121094 678.574219 466.929688 C 670.699219 465.738281 662.855469 464.347656 655.046875 462.761719 C 647.238281 461.175781 639.476562 459.398438 631.757812 457.425781 C 624.039062 455.449219 616.375 453.285156 608.765625 450.925781 C 601.152344 448.570312 593.605469 446.023438 586.125 443.285156 C 578.640625 440.550781 571.230469 437.628906 563.894531 434.523438 C 563.242188 434.238281 562.570312 434.023438 561.875 433.871094 C 561.183594 433.722656 560.480469 433.640625 559.769531 433.628906 C 559.058594 433.617188 558.355469 433.671875 557.65625 433.796875 C 556.957031 433.925781 556.277344 434.117188 555.617188 434.378906 C 554.957031 434.636719 554.324219 434.960938 553.726562 435.34375 C 553.128906 435.726562 552.578125 436.167969 552.066406 436.660156 C 551.554688 437.152344 551.097656 437.691406 550.691406 438.273438 C 550.285156 438.859375 549.941406 439.476562 549.65625 440.125 C 549.375 440.777344 549.15625 441.449219 549.003906 442.144531 C 548.851562 442.839844 548.769531 443.539062 548.757812 444.25 C 548.746094 444.960938 548.800781 445.664062 548.925781 446.363281 C 549.050781 447.0625 549.246094 447.742188 549.503906 448.40625 C 549.765625 449.066406 550.085938 449.695312 550.46875 450.292969 C 550.851562 450.890625 551.289062 451.445312 551.78125 451.957031 C 552.273438 452.46875 552.8125 452.929688 553.394531 453.335938 C 553.980469 453.742188 554.597656 454.085938 555.246094 454.371094 C 570.582031 460.984375 586.214844 466.804688 602.140625 471.832031 C 618.070312 476.855469 634.210938 481.058594 650.566406 484.441406 C 666.921875 487.824219 683.40625 490.367188 700.023438 492.074219 C 716.636719 493.777344 733.296875 494.636719 749.996094 494.648438 C 766.695312 494.636719 783.351562 493.777344 799.964844 492.070312 C 816.578125 490.363281 833.0625 487.820312 849.414062 484.4375 C 865.769531 481.054688 881.910156 476.851562 897.835938 471.828125 C 913.761719 466.804688 929.390625 460.984375 944.726562 454.371094 C 945.375 454.085938 945.992188 453.742188 946.574219 453.335938 C 947.160156 452.929688 947.695312 452.46875 948.191406 451.957031 C 948.683594 451.445312 949.121094 450.890625 949.503906 450.292969 C 949.886719 449.695312 950.207031 449.066406 950.46875 448.40625 C 950.726562 447.742188 950.921875 447.0625 951.046875 446.363281 C 951.171875 445.664062 951.226562 444.960938 951.214844 444.25 C 951.203125 443.539062 951.117188 442.839844 950.96875 442.144531 C 950.816406 441.449219 950.597656 440.777344 950.316406 440.125 C 950.03125 439.476562 949.6875 438.859375 949.28125 438.273438 C 948.875 437.691406 948.417969 437.152344 947.90625 436.660156 C 947.394531 436.167969 946.839844 435.726562 946.242188 435.34375 C 945.644531 434.960938 945.015625 434.636719 944.355469 434.378906 C 943.695312 434.117188 943.015625 433.925781 942.316406 433.796875 C 941.617188 433.671875 940.914062 433.617188 940.203125 433.628906 C 939.492188 433.640625 938.789062 433.722656 938.097656 433.871094 C 937.402344 434.023438 936.730469 434.238281 936.078125 434.523438 Z M 936.097656 434.523438 " fill-opacity="1" fill-rule="nonzero"/></svg>