<svg xmlns="http://www.w3.org/2000/svg" xmlns:xlink="http://www.w3.org/1999/xlink" width="2000" zoomAndPan="magnify" viewBox="0 0 1500 1499.999933" height="2000" preserveAspectRatio="xMidYMid meet" version="1.0"><defs><clipPath id="dce65dca49"><path d="M 92.5625 424 L 535 424 L 535 965 L 92.5625 965 Z M 92.5625 424 " clip-rule="nonzero"/></clipPath><clipPath id="3c658aab66"><path d="M 494 936 L 782 936 L 782 1295.101562 L 494 1295.101562 Z M 494 936 " clip-rule="nonzero"/></clipPath><clipPath id="0de370db2b"><path d="M 450 204.601562 L 1407.3125 204.601562 L 1407.3125 1185 L 450 1185 Z M 450 204.601562 " clip-rule="nonzero"/></clipPath></defs><g clip-path="url(#dce65dca49)"><path fill="#0F7A68" d="M 515.902344 712.839844 C 525.941406 712.839844 534.085938 704.699219 534.085938 694.65625 C 534.085938 684.609375 525.949219 676.472656 515.902344 676.472656 C 514.96875 676.472656 421.898438 675.804688 375.53125 618.144531 C 344.15625 579.125 333.128906 477.742188 331.523438 441.976562 C 331.097656 432.238281 323.074219 424.597656 313.371094 424.597656 C 313.253906 424.597656 313.132812 424.597656 313.015625 424.601562 C 303.152344 424.792969 295.242188 432.808594 295.183594 442.675781 C 295.179688 442.980469 294.929688 473.777344 289.144531 511.316406 C 281.703125 559.582031 268.6875 596.394531 251.496094 617.769531 C 205.0625 675.511719 111.730469 676.472656 110.824219 676.472656 C 110.765625 676.472656 110.707031 676.472656 110.652344 676.472656 C 110.632812 676.472656 110.609375 676.472656 110.589844 676.472656 C 110.574219 676.472656 110.570312 676.472656 110.5625 676.472656 C 110.515625 676.472656 110.484375 676.472656 110.441406 676.472656 C 110.425781 676.46875 110.421875 676.472656 110.410156 676.472656 C 100.554688 676.691406 92.640625 684.746094 92.640625 694.652344 C 92.640625 704.675781 100.761719 712.808594 110.78125 712.832031 C 110.785156 712.832031 110.789062 712.832031 110.796875 712.832031 C 111.730469 712.839844 205.039062 713.765625 250.382812 770.148438 C 294.566406 825.089844 295.183594 945.328125 295.183594 946.535156 C 295.1875 956.523438 303.25 964.636719 313.246094 964.703125 C 313.285156 964.703125 313.328125 964.703125 313.371094 964.703125 C 323.308594 964.703125 331.414062 956.714844 331.546875 946.761719 C 332.003906 912.566406 340.429688 814.816406 373.492188 773.710938 C 398.28125 742.882812 435.148438 727.996094 461.714844 720.941406 C 491.570312 713.011719 515.695312 712.839844 515.902344 712.839844 Z M 345.148438 750.921875 C 332.097656 767.148438 321.425781 789.683594 313.234375 818.246094 C 305.476562 792.242188 294.4375 766.910156 278.71875 747.363281 C 257.851562 721.414062 230.039062 704.960938 203.054688 694.535156 C 230.292969 683.90625 258.484375 667.105469 279.832031 640.554688 C 295.554688 621 306.5 594.902344 314.117188 568.089844 C 322.8125 599.976562 333.882812 624.378906 347.191406 640.929688 C 368.59375 667.546875 396.984375 684.308594 424.367188 694.871094 C 396.53125 705.792969 367.445312 723.195312 345.148438 750.921875 Z M 345.148438 750.921875 " fill-opacity="1" fill-rule="nonzero"/></g><g clip-path="url(#3c658aab66)"><path fill="#0F7A68" d="M 763.246094 1097.597656 C 763.238281 1097.597656 763.234375 1097.597656 763.230469 1097.597656 C 762.472656 1097.59375 708.226562 1096.839844 681.851562 1062.890625 C 663.464844 1039.21875 656.910156 975.945312 655.933594 953.566406 C 655.511719 943.707031 647.292969 935.992188 637.433594 936.167969 C 627.566406 936.351562 619.648438 944.371094 619.59375 954.238281 C 619.472656 975.34375 614.613281 1035.957031 593.882812 1062.648438 C 567.269531 1096.898438 512.855469 1097.59375 512.359375 1097.597656 C 502.320312 1097.597656 494.152344 1105.734375 494.152344 1115.78125 C 494.152344 1125.816406 502.261719 1133.953125 512.296875 1133.964844 C 512.300781 1133.964844 512.308594 1133.964844 512.316406 1133.964844 C 513.109375 1133.96875 567.316406 1134.71875 593.191406 1168.023438 C 614.765625 1195.796875 619.566406 1256.269531 619.59375 1277.226562 C 619.597656 1287.222656 627.671875 1295.335938 637.664062 1295.398438 C 637.699219 1295.398438 637.738281 1295.398438 637.777344 1295.398438 C 647.722656 1295.398438 655.832031 1287.398438 655.953125 1277.4375 C 656.214844 1256.125 661.148438 1195.324219 680.585938 1170.300781 C 708.242188 1134.699219 762.695312 1133.96875 763.1875 1133.964844 C 763.207031 1133.964844 763.230469 1133.964844 763.25 1133.964844 C 773.261719 1133.929688 781.394531 1125.804688 781.394531 1115.78125 C 781.394531 1105.742188 773.285156 1097.601562 763.246094 1097.597656 Z M 651.867188 1147.984375 C 646.488281 1154.914062 641.730469 1163.476562 637.625 1173.625 C 633.144531 1162.746094 627.898438 1153.421875 621.902344 1145.707031 C 611.5 1132.3125 598.507812 1122.652344 585.136719 1115.679688 C 598.695312 1108.5625 611.929688 1098.683594 622.59375 1084.953125 C 628.507812 1077.339844 633.683594 1068 638.101562 1056.992188 C 642.460938 1068.5 647.484375 1077.917969 653.136719 1085.195312 C 663.839844 1098.976562 677.175781 1108.863281 690.832031 1115.953125 C 676.828125 1123.300781 663.058594 1133.585938 651.867188 1147.984375 Z M 651.867188 1147.984375 " fill-opacity="1" fill-rule="nonzero"/></g><path fill="#0F7A68" d="M 477.320312 323.171875 C 506.515625 323.171875 530.269531 299.417969 530.269531 270.222656 C 530.269531 241.027344 506.515625 217.269531 477.320312 217.269531 C 448.125 217.269531 424.367188 241.027344 424.367188 270.222656 C 424.367188 299.417969 448.125 323.171875 477.320312 323.171875 Z M 477.320312 253.632812 C 486.464844 253.632812 493.90625 261.074219 493.90625 270.222656 C 493.90625 279.367188 486.464844 286.8125 477.320312 286.8125 C 468.175781 286.8125 460.730469 279.371094 460.730469 270.222656 C 460.734375 261.074219 468.175781 253.632812 477.320312 253.632812 Z M 477.320312 253.632812 " fill-opacity="1" fill-rule="nonzero"/><path fill="#0F7A68" d="M 213.101562 1008.253906 C 169.875 1008.253906 134.710938 1043.417969 134.710938 1086.636719 C 134.710938 1129.859375 169.875 1165.023438 213.101562 1165.023438 C 241.074219 1165.023438 267.132812 1149.941406 281.089844 1125.667969 C 287.890625 1113.835938 291.488281 1100.339844 291.488281 1086.636719 C 291.484375 1043.417969 256.320312 1008.253906 213.101562 1008.253906 Z M 249.5625 1107.542969 C 242.074219 1120.570312 228.101562 1128.660156 213.097656 1128.660156 C 189.921875 1128.660156 171.074219 1109.808594 171.074219 1086.640625 C 171.074219 1063.46875 189.929688 1044.617188 213.097656 1044.617188 C 236.269531 1044.617188 255.117188 1063.46875 255.117188 1086.640625 C 255.121094 1093.992188 253.203125 1101.222656 249.5625 1107.542969 Z M 249.5625 1107.542969 " fill-opacity="1" fill-rule="nonzero"/><path fill="#0F7A68" d="M 1018.242188 956.0625 L 1018.242188 795.558594 L 1178.746094 795.558594 C 1188.796875 795.558594 1196.941406 787.410156 1196.941406 777.363281 L 1196.941406 611.953125 C 1196.941406 601.90625 1188.796875 593.757812 1178.746094 593.757812 L 1018.242188 593.757812 L 1018.242188 433.25 C 1018.242188 423.199219 1010.097656 415.054688 1000.046875 415.054688 L 834.640625 415.054688 C 824.589844 415.054688 816.441406 423.199219 816.441406 433.25 L 816.441406 593.753906 L 655.941406 593.753906 C 645.890625 593.753906 637.742188 601.898438 637.742188 611.949219 L 637.742188 777.355469 C 637.742188 787.40625 645.890625 795.554688 655.941406 795.554688 L 816.441406 795.554688 L 816.441406 956.054688 C 816.441406 966.105469 824.589844 974.253906 834.640625 974.253906 L 1000.046875 974.253906 C 1010.101562 974.257812 1018.242188 966.109375 1018.242188 956.0625 Z M 981.851562 777.355469 L 981.851562 937.859375 L 852.835938 937.859375 L 852.835938 777.355469 C 852.835938 767.308594 844.6875 759.160156 834.640625 759.160156 L 674.136719 759.160156 L 674.136719 630.144531 L 834.640625 630.144531 C 844.6875 630.144531 852.835938 621.996094 852.835938 611.949219 L 852.835938 451.445312 L 981.851562 451.445312 L 981.851562 611.949219 C 981.851562 621.996094 990 630.144531 1000.046875 630.144531 L 1160.550781 630.144531 L 1160.550781 759.160156 L 1000.046875 759.160156 C 990 759.160156 981.851562 767.308594 981.851562 777.355469 Z M 981.851562 777.355469 " fill-opacity="1" fill-rule="nonzero"/><g clip-path="url(#0de370db2b)"><path fill="#0F7A68" d="M 1368.878906 503.898438 C 1344.195312 445.542969 1308.863281 393.132812 1263.859375 348.136719 C 1218.863281 303.136719 1166.457031 267.804688 1108.097656 243.117188 C 1047.667969 217.558594 983.488281 204.601562 917.339844 204.601562 C 864.234375 204.601562 811.996094 213.050781 762.074219 229.710938 C 713.796875 245.824219 668.449219 269.347656 627.289062 299.613281 C 586.617188 329.523438 550.914062 365.367188 521.167969 406.15625 C 491.050781 447.445312 467.703125 492.898438 451.78125 541.257812 C 448.640625 550.792969 453.824219 561.070312 463.363281 564.210938 C 472.898438 567.355469 483.175781 562.164062 486.316406 552.628906 C 547.703125 366.210938 720.917969 240.960938 917.339844 240.960938 C 1167.503906 240.960938 1371.03125 444.488281 1371.03125 694.652344 C 1371.03125 944.816406 1167.503906 1148.339844 917.339844 1148.339844 C 899.558594 1148.339844 881.648438 1147.300781 864.105469 1145.25 C 854.132812 1144.089844 845.101562 1151.230469 843.9375 1161.203125 C 842.773438 1171.175781 849.914062 1180.207031 859.882812 1181.371094 C 878.820312 1183.582031 898.152344 1184.707031 917.335938 1184.707031 C 983.484375 1184.707031 1047.664062 1171.746094 1108.09375 1146.1875 C 1166.445312 1121.507812 1218.851562 1086.175781 1263.855469 1041.171875 C 1308.859375 996.167969 1344.1875 943.765625 1368.875 885.40625 C 1394.429688 824.980469 1407.390625 760.800781 1407.390625 694.652344 C 1407.390625 628.5 1394.4375 564.328125 1368.878906 503.898438 Z M 1368.878906 503.898438 " fill-opacity="1" fill-rule="nonzero"/></g><path fill="#0F7A68" d="M 530.359375 982.894531 C 533.957031 982.894531 537.589844 981.828125 540.761719 979.609375 C 548.996094 973.855469 550.996094 962.523438 545.242188 954.289062 C 518.082031 915.441406 497.300781 872.851562 483.472656 827.703125 C 480.535156 818.101562 470.367188 812.703125 460.765625 815.640625 C 451.164062 818.582031 445.765625 828.75 448.707031 838.347656 C 463.644531 887.136719 486.101562 933.148438 515.441406 975.121094 C 518.976562 980.1875 524.621094 982.894531 530.359375 982.894531 Z M 530.359375 982.894531 " fill-opacity="1" fill-rule="nonzero"/></svg>