<svg xmlns="http://www.w3.org/2000/svg" xmlns:xlink="http://www.w3.org/1999/xlink" width="2000" zoomAndPan="magnify" viewBox="0 0 1500 1499.999933" height="2000" preserveAspectRatio="xMidYMid meet" version="1.0"><defs><clipPath id="c494d977cb"><path d="M 40 378.507812 L 1460 378.507812 L 1460 1121.757812 L 40 1121.757812 Z M 40 378.507812 " clip-rule="nonzero"/></clipPath></defs><g clip-path="url(#c494d977cb)"><path fill="#0F7A68" d="M 1442.921875 668.4375 L 1393.839844 668.4375 C 1380.21875 668.4375 1367.003906 671.007812 1354.707031 675.867188 C 1362.507812 648.179688 1366.5625 619.449219 1366.5625 590.53125 L 1366.5625 557.878906 C 1366.5625 502.125 1341.128906 450.472656 1296.785156 416.171875 L 1295.027344 414.8125 C 1242.429688 374.125 1169.984375 366.996094 1110.464844 396.644531 L 1082.882812 410.386719 C 1062.203125 420.691406 1037.507812 420.6875 1016.824219 410.386719 L 991.664062 397.851562 C 930.679688 367.472656 856.445312 374.773438 802.546875 416.464844 C 796.8125 420.898438 791.296875 425.730469 786.15625 430.824219 C 779.488281 437.425781 779.433594 448.183594 786.035156 454.847656 C 792.636719 461.515625 803.390625 461.570312 810.0625 454.96875 C 814.226562 450.84375 818.691406 446.933594 823.335938 443.339844 C 866.988281 409.574219 927.113281 403.65625 976.511719 428.265625 L 1001.675781 440.800781 C 1031.839844 455.824219 1067.859375 455.824219 1098.035156 440.800781 L 1125.613281 427.058594 C 1173.542969 403.183594 1231.882812 408.925781 1274.242188 441.691406 L 1276 443.050781 C 1311.957031 470.867188 1332.582031 512.71875 1332.582031 557.878906 L 1332.582031 590.53125 C 1332.582031 616.945312 1328.800781 643.191406 1321.507812 668.4375 L 1171.582031 668.4375 L 1171.582031 635.890625 C 1171.582031 611.449219 1151.699219 591.566406 1127.257812 591.566406 L 972.453125 591.566406 C 948.011719 591.566406 928.128906 611.449219 928.128906 635.890625 L 928.128906 668.4375 L 831.492188 668.4375 C 822.113281 668.4375 814.503906 676.042969 814.503906 685.425781 C 814.503906 694.808594 822.113281 702.414062 831.492188 702.414062 L 928.128906 702.414062 L 928.128906 734.964844 C 928.128906 759.402344 948.011719 779.285156 972.453125 779.285156 L 1127.257812 779.285156 C 1151.699219 779.285156 1171.582031 759.402344 1171.582031 734.964844 L 1171.582031 702.414062 L 1309.285156 702.414062 C 1307.273438 707.046875 1305.128906 711.621094 1302.867188 716.144531 C 1302.363281 716.980469 1301.914062 717.832031 1301.570312 718.722656 C 1299.851562 722.074219 1298.089844 725.402344 1296.234375 728.683594 L 1284.652344 749.164062 C 1266.683594 780.949219 1257.183594 817.046875 1257.183594 853.554688 C 1257.183594 934.289062 1223.253906 1012.101562 1164.097656 1067.039062 L 1144.410156 1085.320312 C 1140.992188 1088.496094 1137.3125 1087.394531 1135.890625 1086.769531 C 1134.464844 1086.148438 1131.15625 1084.203125 1131.15625 1079.542969 L 1131.15625 941.679688 C 1131.15625 908.804688 1111.5625 879.367188 1081.238281 866.679688 C 1061.292969 858.335938 1038.425781 858.332031 1018.472656 866.679688 C 988.144531 879.367188 968.550781 908.804688 968.550781 941.679688 L 968.550781 1079.542969 C 968.550781 1084.203125 965.238281 1086.152344 963.820312 1086.773438 C 962.394531 1087.390625 958.707031 1088.488281 955.300781 1085.320312 L 935.613281 1067.039062 C 876.453125 1012.101562 842.523438 934.289062 842.523438 853.554688 C 842.523438 817.046875 833.027344 780.949219 815.054688 749.164062 L 803.476562 728.683594 C 779.695312 686.621094 767.125 638.847656 767.125 590.527344 L 767.125 557.878906 C 767.125 502.125 741.695312 450.476562 697.359375 416.179688 L 695.589844 414.8125 C 642.992188 374.125 570.546875 366.992188 511.027344 396.644531 L 483.449219 410.386719 C 465.441406 419.355469 444.265625 420.59375 425.347656 413.785156 C 416.523438 410.609375 406.785156 415.191406 403.613281 424.023438 C 400.433594 432.851562 405.015625 442.582031 413.84375 445.757812 C 441.453125 455.6875 472.339844 453.878906 498.597656 440.800781 L 526.179688 427.058594 C 574.109375 403.183594 632.445312 408.925781 674.792969 441.683594 L 676.5625 443.050781 C 712.523438 470.867188 733.148438 512.722656 733.148438 557.878906 L 733.148438 590.53125 C 733.148438 616.945312 729.363281 643.191406 722.070312 668.4375 L 572.535156 668.4375 L 572.535156 635.890625 C 572.535156 611.449219 552.652344 591.566406 528.210938 591.566406 L 373.40625 591.566406 C 348.96875 591.566406 329.082031 611.449219 329.082031 635.890625 L 329.082031 668.4375 L 178.765625 668.4375 C 171.472656 643.191406 167.6875 616.945312 167.6875 590.527344 L 167.6875 557.886719 C 167.6875 513.386719 188.699219 470.566406 223.898438 443.339844 C 259.761719 415.601562 307.253906 406.226562 350.945312 418.261719 C 359.980469 420.753906 369.339844 415.441406 371.832031 406.394531 C 374.324219 397.347656 369.011719 387.992188 359.964844 385.503906 C 306.027344 370.648438 247.386719 382.222656 203.109375 416.464844 C 159.652344 450.078125 133.710938 502.945312 133.710938 557.886719 L 133.710938 590.527344 C 133.710938 619.445312 137.765625 648.175781 145.566406 675.867188 C 133.269531 671.007812 120.054688 668.4375 106.433594 668.4375 L 57.347656 668.4375 C 47.96875 668.4375 40.359375 676.042969 40.359375 685.425781 C 40.359375 694.808594 47.96875 702.414062 57.347656 702.414062 L 106.433594 702.414062 C 125.769531 702.414062 143.945312 709.945312 157.617188 723.617188 L 168.722656 734.71875 C 170.574219 738.3125 172.472656 741.882812 174.464844 745.40625 L 186.042969 765.886719 C 201.132812 792.582031 209.109375 822.894531 209.109375 853.554688 C 209.109375 943.703125 246.996094 1030.589844 313.054688 1091.9375 L 332.742188 1110.21875 C 340.726562 1117.632812 350.761719 1121.496094 361.035156 1121.496094 C 366.707031 1121.496094 372.453125 1120.320312 377.960938 1117.917969 C 393.464844 1111.15625 403.09375 1096.453125 403.09375 1079.542969 L 403.09375 941.679688 C 403.09375 922.542969 414.5 905.410156 432.152344 898.023438 C 443.757812 893.167969 457.070312 893.164062 468.683594 898.023438 C 486.335938 905.410156 497.742188 922.542969 497.742188 941.679688 L 497.742188 1012.972656 C 497.742188 1022.351562 505.347656 1029.960938 514.730469 1029.960938 C 524.113281 1029.960938 531.71875 1022.351562 531.71875 1012.972656 L 531.71875 941.679688 C 531.71875 908.804688 512.125 879.367188 481.800781 866.679688 C 461.851562 858.332031 438.984375 858.335938 419.035156 866.679688 C 388.710938 879.367188 369.117188 908.804688 369.117188 941.679688 L 369.117188 1079.542969 C 369.117188 1084.203125 365.804688 1086.152344 364.382812 1086.769531 C 362.960938 1087.394531 359.277344 1088.492188 355.863281 1085.320312 L 336.175781 1067.039062 C 277.015625 1012.101562 243.089844 934.289062 243.089844 853.554688 C 243.089844 817.046875 233.589844 780.949219 215.621094 749.164062 L 204.039062 728.683594 C 202.183594 725.398438 200.421875 722.070312 198.703125 718.722656 C 198.363281 717.839844 197.914062 717 197.421875 716.175781 C 195.152344 711.640625 193.003906 707.054688 190.988281 702.414062 L 329.082031 702.414062 L 329.082031 734.964844 C 329.082031 759.402344 348.96875 779.285156 373.40625 779.285156 L 528.210938 779.285156 C 552.652344 779.285156 572.535156 759.402344 572.535156 734.964844 L 572.535156 702.414062 L 709.847656 702.414062 C 705.957031 711.375 701.621094 720.152344 696.796875 728.683594 L 685.214844 749.164062 C 667.246094 780.949219 657.746094 817.046875 657.746094 853.554688 C 657.746094 934.289062 623.820312 1012.101562 564.660156 1067.039062 L 544.972656 1085.320312 C 541.5625 1088.488281 537.878906 1087.390625 536.453125 1086.773438 C 535.03125 1086.152344 531.71875 1084.203125 531.71875 1079.542969 C 531.71875 1070.160156 524.113281 1062.550781 514.730469 1062.550781 C 505.347656 1062.550781 497.742188 1070.160156 497.742188 1079.542969 C 497.742188 1096.453125 507.371094 1111.15625 522.875 1117.917969 C 528.386719 1120.320312 534.128906 1121.496094 539.800781 1121.496094 C 550.074219 1121.496094 560.109375 1117.632812 568.09375 1110.21875 L 587.78125 1091.9375 C 653.839844 1030.589844 691.726562 943.703125 691.726562 853.554688 C 691.726562 822.894531 699.703125 792.578125 714.792969 765.886719 L 726.371094 745.40625 C 735.613281 729.058594 743.308594 711.929688 749.464844 694.285156 C 749.761719 693.804688 750.035156 693.304688 750.28125 692.792969 C 756.523438 710.964844 764.394531 728.597656 773.898438 745.40625 L 785.480469 765.886719 C 800.570312 792.578125 808.546875 822.894531 808.546875 853.554688 C 808.546875 943.707031 846.433594 1030.59375 912.492188 1091.9375 L 932.175781 1110.21875 C 940.164062 1117.632812 950.199219 1121.496094 960.472656 1121.496094 C 966.144531 1121.496094 971.886719 1120.320312 977.398438 1117.917969 C 992.898438 1111.15625 1002.53125 1096.453125 1002.53125 1079.542969 L 1002.53125 941.679688 C 1002.53125 922.542969 1013.9375 905.410156 1031.589844 898.023438 C 1043.195312 893.164062 1056.515625 893.164062 1068.121094 898.023438 C 1085.769531 905.410156 1097.175781 922.542969 1097.175781 941.679688 L 1097.175781 1079.542969 C 1097.175781 1096.453125 1106.808594 1111.15625 1122.308594 1117.917969 C 1137.804688 1124.675781 1155.140625 1121.726562 1167.53125 1110.21875 L 1187.21875 1091.9375 C 1253.277344 1030.589844 1291.160156 943.703125 1291.160156 853.554688 C 1291.160156 822.894531 1299.140625 792.578125 1314.226562 765.886719 L 1325.808594 745.40625 C 1327.800781 741.882812 1329.699219 738.3125 1331.550781 734.71875 L 1342.652344 723.617188 C 1356.328125 709.945312 1374.503906 702.414062 1393.839844 702.414062 L 1442.921875 702.414062 C 1452.304688 702.414062 1459.910156 694.808594 1459.910156 685.425781 C 1459.910156 676.042969 1452.304688 668.4375 1442.921875 668.4375 Z M 1137.605469 734.964844 C 1137.605469 740.667969 1132.960938 745.308594 1127.257812 745.308594 L 972.453125 745.308594 C 966.746094 745.308594 962.105469 740.667969 962.105469 734.964844 L 962.105469 635.890625 C 962.105469 630.183594 966.746094 625.542969 972.453125 625.542969 L 1127.257812 625.542969 C 1132.960938 625.542969 1137.605469 630.183594 1137.605469 635.890625 Z M 538.558594 734.964844 C 538.558594 740.667969 533.914062 745.308594 528.210938 745.308594 L 373.40625 745.308594 C 367.703125 745.308594 363.0625 740.667969 363.0625 734.964844 L 363.0625 635.890625 C 363.0625 630.183594 367.703125 625.542969 373.40625 625.542969 L 528.210938 625.542969 C 533.914062 625.542969 538.558594 630.183594 538.558594 635.890625 Z M 538.558594 734.964844 " fill-opacity="1" fill-rule="nonzero"/></g></svg>