<svg xmlns="http://www.w3.org/2000/svg" xmlns:xlink="http://www.w3.org/1999/xlink" width="2000" zoomAndPan="magnify" viewBox="0 0 1500 1499.999933" height="2000" preserveAspectRatio="xMidYMid meet" version="1.0"><defs><clipPath id="a8031286a0"><path d="M 562 24.480469 L 1227 24.480469 L 1227 1246 L 562 1246 Z M 562 24.480469 " clip-rule="nonzero"/></clipPath></defs><path fill="#0F7A68" d="M 588.828125 565.996094 C 535.46875 565.996094 485.472656 584.503906 463.554688 626.261719 C 411.390625 725.675781 459.214844 840.277344 501.414062 941.371094 C 505.667969 951.558594 509.871094 961.652344 513.945312 971.574219 C 535.867188 1025.285156 545.476562 1105.878906 553.976562 1176.953125 C 559.335938 1221.632812 566.289062 1279.996094 575.453125 1303.90625 C 576.960938 1307.804688 582.539062 1307.539062 583.824219 1303.554688 C 590.378906 1283.097656 593.253906 1235.535156 595.425781 1198.960938 C 601.625 1095.472656 610.128906 953.773438 690.277344 888.234375 C 725.214844 859.671875 774.589844 859.671875 809.484375 888.234375 C 889.632812 953.773438 898.136719 1095.472656 904.335938 1198.960938 C 906.550781 1235.402344 909.382812 1282.742188 916.160156 1303.421875 C 917.441406 1307.316406 923.023438 1307.40625 924.484375 1303.554688 C 933.5625 1279.421875 940.515625 1221.410156 945.785156 1176.953125 C 954.285156 1105.878906 963.894531 1025.285156 985.859375 971.574219 C 989.933594 961.609375 994.140625 951.511719 998.390625 941.328125 C 1040.546875 840.234375 1088.414062 725.675781 1036.25 626.261719 C 1002.816406 562.496094 903.894531 553.019531 827.640625 580.652344 C 777.511719 598.851562 722.292969 598.851562 672.164062 580.652344 C 645.863281 571.132812 616.859375 565.996094 588.828125 565.996094 Z M 921.296875 1346.996094 C 879.140625 1346.996094 875.683594 1288.898438 870.414062 1200.996094 C 864.570312 1103.796875 856.601562 970.6875 787.960938 914.582031 C 759.84375 891.601562 739.917969 891.554688 711.796875 914.582031 C 643.160156 970.6875 635.191406 1103.796875 629.390625 1200.996094 C 624.121094 1288.941406 620.621094 1346.996094 578.507812 1346.996094 C 540.027344 1346.996094 532.589844 1284.511719 520.234375 1180.980469 C 512 1112.035156 502.65625 1033.878906 482.460938 984.460938 C 478.433594 974.585938 474.269531 964.578125 470.0625 954.480469 C 424.941406 846.476562 373.839844 724.039062 433.398438 610.5 C 477.058594 527.25 594.9375 516.488281 683.769531 548.679688 C 726.410156 564.136719 773.394531 564.136719 816.039062 548.679688 C 904.824219 516.488281 1022.699219 527.25 1066.363281 610.5 C 1125.921875 724.039062 1074.863281 846.433594 1029.785156 954.4375 C 1025.535156 964.578125 1021.371094 974.585938 1017.34375 984.460938 C 997.148438 1033.878906 987.808594 1112.035156 979.570312 1181.027344 C 967.214844 1284.558594 959.730469 1346.996094 921.296875 1346.996094 " fill-opacity="1" fill-rule="nonzero"/><path fill="#0F7A68" d="M 1077.65625 1005.359375 C 1039.21875 1073.644531 1021.503906 1160.65625 1005.875 1237.484375 C 980.808594 1360.410156 962.390625 1435.292969 901.5 1424.976562 C 866.785156 1419.128906 853.941406 1296.246094 844.554688 1206.488281 C 830.429688 1071.648438 818.25 955.1875 749.925781 955.1875 C 681.597656 955.1875 669.421875 1071.648438 655.292969 1206.488281 C 645.90625 1296.246094 633.019531 1419.128906 598.304688 1424.976562 C 537.503906 1435.25 518.996094 1360.410156 493.976562 1237.441406 C 478.300781 1160.65625 460.585938 1073.644531 422.195312 1005.359375 C 329.867188 841.296875 238.734375 613.332031 328.628906 459.097656 C 368.480469 390.726562 444.46875 360.839844 522.582031 360.839844 C 569.34375 360.839844 616.902344 371.554688 657.953125 391.082031 C 658.96875 391.570312 670.484375 397.371094 673.140625 398.921875 C 692.179688 409.859375 703.738281 421.679688 714.988281 433.148438 C 732.210938 450.6875 748.464844 467.292969 783.3125 470.746094 C 783.890625 470.789062 784.421875 470.789062 784.996094 470.789062 C 793.632812 470.789062 801.027344 464.234375 801.867188 455.46875 C 802.796875 446.125 795.976562 437.800781 786.632812 436.871094 C 765.734375 434.832031 756.125 426.417969 742.53125 412.648438 C 775.519531 413.84375 808.773438 407.332031 838.886719 392.542969 C 948.617188 338.652344 1106.878906 348.792969 1171.222656 459.097656 C 1261.113281 613.332031 1169.9375 841.296875 1077.65625 1005.359375 Z M 1200.582031 442.007812 C 1125.433594 313.058594 950.035156 300.082031 823.875 361.988281 C 779.328125 383.910156 726.410156 384.707031 681.199219 364.511719 C 679.429688 363.671875 665.214844 356.941406 659.855469 354.636719 C 535.289062 301.410156 371.269531 318.460938 299.269531 442.007812 C 201.273438 610.101562 295.902344 850.242188 392.527344 1022.054688 C 428.304688 1085.644531 445.488281 1169.910156 460.632812 1244.214844 C 483.214844 1355.054688 504.648438 1460.132812 585.992188 1460.132812 C 591.707031 1460.132812 597.683594 1459.601562 603.972656 1458.539062 C 664.195312 1448.398438 675.707031 1337.917969 689.125 1210.03125 C 698.867188 1116.816406 712.242188 989.195312 749.925781 989.195312 C 787.609375 989.195312 800.980469 1116.816406 810.722656 1210.03125 C 824.097656 1337.917969 835.65625 1448.398438 895.878906 1458.539062 C 992.234375 1474.703125 1015.039062 1362.804688 1039.171875 1244.261719 C 1054.316406 1169.910156 1071.5 1085.644531 1107.277344 1022.054688 C 1203.945312 850.242188 1298.578125 610.101562 1200.582031 442.007812 " fill-opacity="1" fill-rule="nonzero"/><g clip-path="url(#a8031286a0)"><path fill="#0F7A68" d="M 1185.878906 100.902344 L 1090.097656 205.585938 C 1080.753906 215.816406 1064.769531 216.523438 1054.496094 207.136719 C 1049.535156 202.617188 1046.65625 196.417969 1046.347656 189.6875 C 1046.039062 182.957031 1048.382812 176.535156 1052.945312 171.578125 L 1148.683594 66.894531 C 1153.109375 62.066406 1159.042969 59.324219 1165.109375 58.835938 C 1171.886719 58.214844 1178.882812 60.386719 1184.285156 65.300781 C 1189.246094 69.863281 1192.167969 76.0625 1192.433594 82.792969 C 1192.742188 89.523438 1190.394531 95.945312 1185.878906 100.902344 Z M 1207.265625 40.238281 C 1195.578125 29.566406 1180.433594 24.074219 1164.667969 24.78125 C 1148.769531 25.582031 1134.292969 32.265625 1123.617188 43.914062 L 1027.835938 148.59375 C 1017.164062 160.285156 1011.675781 175.386719 1012.382812 191.195312 C 1012.78125 200.714844 1015.703125 209.703125 1020.308594 217.761719 C 890.210938 353.222656 778.929688 506.703125 693.996094 674.617188 C 650.601562 761.367188 614.644531 852.234375 590.6875 946.6875 C 578.953125 994.023438 569.917969 1041.890625 565.359375 1090.78125 C 561.59375 1139.445312 561.105469 1187.890625 565.800781 1236.46875 C 566.289062 1241.292969 570.273438 1245.191406 575.277344 1245.324219 C 580.636719 1245.457031 585.152344 1241.207031 585.285156 1235.800781 L 585.285156 1235.667969 C 586.570312 1188.242188 589.09375 1140.464844 593.875 1093.480469 C 599.410156 1046.808594 607.957031 1000 619.867188 954.171875 C 643.871094 862.460938 679.695312 773.898438 722.824219 689.230469 C 766.21875 604.566406 817.101562 523.707031 873.292969 446.878906 C 926.121094 374.742188 983.378906 305.839844 1045.152344 241.277344 C 1054.050781 245.792969 1063.882812 248.183594 1074.15625 247.742188 C 1074.996094 247.699219 1075.839844 247.609375 1076.679688 247.566406 C 1091.515625 246.28125 1105.066406 239.59375 1115.207031 228.523438 L 1210.941406 123.886719 C 1221.613281 112.195312 1227.105469 97.09375 1226.441406 81.285156 C 1225.6875 65.476562 1218.914062 50.910156 1207.265625 40.238281 " fill-opacity="1" fill-rule="nonzero"/></g></svg>