<svg xmlns="http://www.w3.org/2000/svg" xmlns:xlink="http://www.w3.org/1999/xlink" width="2000" zoomAndPan="magnify" viewBox="0 0 1500 1499.999933" height="2000" preserveAspectRatio="xMidYMid meet" version="1.0"><defs><clipPath id="7bde1f2600"><path d="M 202 524 L 692 524 L 692 1330.757812 L 202 1330.757812 Z M 202 524 " clip-rule="nonzero"/></clipPath><clipPath id="79d092e067"><path d="M 176.269531 232 L 713 232 L 713 433 L 176.269531 433 Z M 176.269531 232 " clip-rule="nonzero"/></clipPath><clipPath id="442a8bc8e7"><path d="M 875 169.007812 L 1106 169.007812 L 1106 252 L 875 252 Z M 875 169.007812 " clip-rule="nonzero"/></clipPath><clipPath id="a0e64b311e"><path d="M 707 1217 L 1044 1217 L 1044 1330.757812 L 707 1330.757812 Z M 707 1217 " clip-rule="nonzero"/></clipPath><clipPath id="eb1e73a187"><path d="M 1065 1010 L 1323.769531 1010 L 1323.769531 1111 L 1065 1111 Z M 1065 1010 " clip-rule="nonzero"/></clipPath><clipPath id="1de1d01acb"><path d="M 1065 1271 L 1323.769531 1271 L 1323.769531 1330.757812 L 1065 1330.757812 Z M 1065 1271 " clip-rule="nonzero"/></clipPath><clipPath id="363ad2a7e3"><path d="M 1065 1138 L 1323.769531 1138 L 1323.769531 1243 L 1065 1243 Z M 1065 1138 " clip-rule="nonzero"/></clipPath></defs><path fill="#0F7A68" d="M 588.539062 383.890625 C 622.34375 468.253906 695.398438 532.222656 785.808594 553.5 C 732.066406 500.835938 688.773438 436.410156 669.53125 364.839844 C 643.714844 368.425781 614.023438 374.398438 588.539062 383.890625 Z M 588.539062 383.890625 " fill-opacity="1" fill-rule="evenodd"/><path fill="#0F7A68" d="M 492.128906 460.578125 L 357.949219 460.578125 C 337.679688 460.578125 320.875 475.832031 318.242188 495.335938 L 531.835938 495.335938 C 529.183594 475.832031 512.378906 460.578125 492.128906 460.578125 Z M 492.128906 460.578125 " fill-opacity="1" fill-rule="evenodd"/><g clip-path="url(#7bde1f2600)"><path fill="#0F7A68" d="M 678.402344 1291.023438 L 678.402344 1262.144531 L 285.996094 1262.144531 C 278.058594 1262.144531 271.628906 1255.714844 271.628906 1247.851562 L 271.628906 896.515625 C 304.5 909.257812 334.378906 912.03125 362.777344 909.042969 L 362.777344 524.09375 L 313.4375 524.09375 C 300.960938 524.09375 290.730469 534.253906 290.730469 546.804688 L 290.730469 592.203125 C 242.488281 592.203125 202.902344 631.765625 202.902344 680.101562 L 202.902344 1262.863281 C 202.902344 1300.273438 233.523438 1330.898438 271.007812 1330.898438 L 691.261719 1330.898438 C 683.207031 1319.613281 678.402344 1305.871094 678.402344 1291.023438 Z M 678.402344 1291.023438 " fill-opacity="1" fill-rule="evenodd"/></g><path fill="#0F7A68" d="M 508.171875 563.515625 L 559.328125 563.515625 L 559.328125 546.78125 C 559.328125 534.253906 549.097656 524.070312 536.617188 524.070312 L 483.140625 524.070312 L 483.140625 871.367188 C 543.046875 846.910156 607.089844 823.316406 691.644531 842.847656 C 704.242188 813.230469 725.398438 787.484375 752.769531 769.316406 L 752.769531 685.625 C 707.300781 628.777344 637.425781 592.175781 559.304688 592.175781 L 508.148438 592.175781 C 500.210938 592.175781 493.851562 585.820312 493.851562 577.882812 C 493.875 569.96875 500.257812 563.515625 508.171875 563.515625 Z M 615.9375 746.820312 C 626.789062 746.820312 635.515625 755.570312 635.515625 766.398438 C 635.515625 777.226562 626.765625 785.976562 615.9375 785.976562 C 605.082031 785.976562 596.359375 777.226562 596.359375 766.398438 C 596.359375 755.570312 605.082031 746.820312 615.9375 746.820312 Z M 557.773438 658.871094 C 573.695312 658.871094 586.582031 671.804688 586.582031 687.75 C 586.582031 703.671875 573.695312 716.554688 557.773438 716.554688 C 541.855469 716.554688 528.898438 703.671875 528.898438 687.75 C 528.921875 671.804688 541.855469 658.871094 557.773438 658.871094 Z M 557.773438 658.871094 " fill-opacity="1" fill-rule="evenodd"/><path fill="#0F7A68" d="M 300.363281 934.714844 L 300.363281 1233.484375 L 678.402344 1233.484375 L 678.402344 907.632812 C 678.402344 894.816406 679.882812 882.363281 682.726562 870.21875 C 638.957031 860.539062 597.003906 862.832031 550.316406 877.128906 C 527.414062 884.179688 505.328125 893.265625 483.167969 902.324219 L 483.167969 1148.09375 C 483.167969 1156.03125 476.734375 1162.460938 468.800781 1162.460938 L 377.050781 1162.460938 C 369.1875 1162.460938 362.753906 1156.03125 362.753906 1148.09375 L 362.753906 937.824219 C 341.621094 939.808594 320.945312 938.804688 300.363281 934.714844 Z M 654.015625 1174.460938 C 654.015625 1190.382812 641.085938 1203.339844 625.140625 1203.339844 C 609.195312 1203.339844 596.332031 1190.40625 596.332031 1174.460938 C 596.332031 1158.515625 609.21875 1145.585938 625.140625 1145.585938 C 641.058594 1145.585938 654.015625 1158.539062 654.015625 1174.460938 Z M 609.148438 937.511719 C 621.625 937.511719 631.785156 947.601562 631.785156 960.078125 C 631.785156 972.558594 621.625 982.644531 609.148438 982.644531 C 596.667969 982.644531 586.582031 972.558594 586.582031 960.078125 C 586.582031 947.601562 596.667969 937.511719 609.148438 937.511719 Z M 519.980469 1027.421875 C 530.953125 1027.421875 539.84375 1036.359375 539.84375 1047.332031 C 539.84375 1058.304688 530.976562 1067.199219 519.980469 1067.199219 C 509.007812 1067.199219 500.113281 1058.328125 500.113281 1047.332031 C 500.113281 1036.359375 508.984375 1027.421875 519.980469 1027.421875 Z M 336.125 1191.960938 C 325.152344 1191.960938 316.210938 1183.089844 316.210938 1172.09375 C 316.210938 1161.097656 325.152344 1152.230469 336.125 1152.230469 C 347.097656 1152.230469 355.988281 1161.097656 355.988281 1172.09375 C 355.988281 1183.089844 347.121094 1191.960938 336.125 1191.960938 Z M 336.125 1191.960938 " fill-opacity="1" fill-rule="evenodd"/><g clip-path="url(#79d092e067)"><path fill="#0F7A68" d="M 193.363281 363.953125 L 285.589844 363.953125 C 321.445312 363.953125 350.777344 392.351562 351.996094 428.117188 L 352.140625 432.109375 C 354.03125 431.964844 356.015625 431.917969 357.972656 431.917969 L 490.71875 431.917969 C 519.71875 358.597656 626.644531 337.875 712.703125 331.417969 L 712.703125 232.570312 L 283.675781 232.570312 L 181.289062 334.886719 C 170.582031 345.667969 178.183594 363.953125 193.363281 363.953125 Z M 193.363281 363.953125 " fill-opacity="1" fill-rule="evenodd"/></g><path fill="#0F7A68" d="M 779.902344 232.570312 L 741.34375 232.570312 L 741.34375 329.746094 L 779.902344 329.746094 C 796.898438 329.746094 810.8125 315.785156 810.8125 298.789062 L 810.8125 263.457031 C 810.8125 246.460938 796.921875 232.570312 779.902344 232.570312 Z M 779.902344 232.570312 " fill-opacity="1" fill-rule="evenodd"/><path fill="#0F7A68" d="M 391.417969 524.09375 L 454.503906 524.09375 L 454.503906 1133.824219 L 391.417969 1133.824219 Z M 391.417969 524.09375 " fill-opacity="1" fill-rule="evenodd"/><path fill="#0F7A68" d="M 1090.933594 266.777344 L 884.34375 266.777344 C 876.40625 266.777344 870.050781 273.210938 870.050781 281.144531 C 870.050781 289.082031 876.40625 295.511719 884.34375 295.511719 L 1090.957031 295.511719 C 1098.894531 295.511719 1105.324219 289.082031 1105.324219 281.144531 C 1105.300781 273.234375 1098.871094 266.777344 1090.933594 266.777344 Z M 1090.933594 266.777344 " fill-opacity="1" fill-rule="evenodd"/><g clip-path="url(#442a8bc8e7)"><path fill="#0F7A68" d="M 1087.226562 169.605469 L 886.234375 223.484375 C 878.582031 225.519531 874.042969 233.382812 876.074219 241.03125 C 878.105469 248.609375 885.96875 253.152344 893.621094 251.121094 L 1094.613281 197.238281 C 1102.265625 195.207031 1106.808594 187.339844 1104.773438 179.761719 C 1102.742188 172.113281 1094.878906 167.570312 1087.226562 169.605469 Z M 1087.226562 169.605469 " fill-opacity="1" fill-rule="evenodd"/></g><path fill="#0F7A68" d="M 1087.226562 392.6875 C 1094.878906 394.71875 1102.742188 390.179688 1104.773438 382.527344 C 1106.808594 374.878906 1102.265625 367.085938 1094.613281 364.980469 L 893.621094 311.171875 C 885.96875 309.066406 878.105469 313.609375 876.074219 321.257812 C 874.042969 328.910156 878.582031 336.773438 886.234375 338.804688 Z M 1087.226562 392.6875 " fill-opacity="1" fill-rule="evenodd"/><path fill="#0F7A68" d="M 781.480469 653.039062 L 781.480469 752.175781 C 781.480469 754.828125 783.65625 756.910156 786.285156 756.910156 L 1040.925781 756.910156 C 1043.578125 756.910156 1045.730469 754.804688 1045.730469 752.175781 L 1045.730469 653.039062 C 1045.730469 650.386719 1043.554688 648.234375 1040.925781 648.234375 L 786.285156 648.234375 C 783.632812 648.234375 781.480469 650.386719 781.480469 653.039062 Z M 781.480469 653.039062 " fill-opacity="1" fill-rule="evenodd"/><g clip-path="url(#a0e64b311e)"><path fill="#0F7A68" d="M 1036.8125 1217.5625 C 1021.847656 1222.25 1005.902344 1224.734375 989.382812 1224.734375 L 707.132812 1224.734375 L 707.132812 1291 C 707.132812 1312.945312 725.085938 1330.851562 747.054688 1330.851562 L 1043.984375 1330.851562 C 1039.371094 1322.792969 1036.8125 1313.375 1036.8125 1303.40625 Z M 1036.8125 1217.5625 " fill-opacity="1" fill-rule="evenodd"/></g><path fill="#0F7A68" d="M 1046.492188 785.644531 L 781.480469 785.644531 C 737.421875 808.542969 707.132812 854.703125 707.132812 907.605469 L 707.132812 991.492188 C 736.011719 950.230469 783.847656 923.195312 837.847656 923.195312 L 1073.9375 923.195312 L 1073.9375 888.171875 C 1073.9375 880.234375 1080.4375 873.804688 1088.304688 873.804688 L 1120.027344 873.804688 C 1119.355469 863.359375 1115.148438 854.296875 1107.621094 846.695312 Z M 1046.492188 785.644531 " fill-opacity="1" fill-rule="evenodd"/><path fill="#0F7A68" d="M 1073.9375 1010.136719 L 1073.9375 951.855469 L 837.847656 951.855469 C 765.820312 951.855469 707.132812 1010.613281 707.132812 1082.570312 L 707.132812 1196.074219 L 989.359375 1196.074219 C 1006.09375 1196.074219 1022.085938 1192.894531 1036.789062 1187.132812 L 1036.789062 1089.886719 C 1036.789062 1051.804688 1052.972656 1034.59375 1077.378906 1010.136719 Z M 980.898438 1096.269531 L 935.90625 1096.269531 L 935.90625 1141.257812 L 891.324219 1141.257812 L 891.324219 1096.269531 L 846.335938 1096.269531 L 846.335938 1051.683594 L 891.324219 1051.683594 L 891.324219 1006.695312 L 935.90625 1006.695312 L 935.90625 1051.683594 L 980.898438 1051.683594 Z M 980.898438 1096.269531 " fill-opacity="1" fill-rule="evenodd"/><g clip-path="url(#eb1e73a187)"><path fill="#0F7A68" d="M 1323.699219 1089.910156 C 1323.699219 1059.765625 1308.375 1047.359375 1289.898438 1028.855469 C 1284.207031 1023.164062 1279.808594 1016.925781 1276.605469 1010.160156 L 1112.542969 1010.160156 C 1098.917969 1039.230469 1065.449219 1045.875 1065.449219 1089.910156 L 1065.449219 1110.226562 L 1323.699219 1110.226562 Z M 1323.699219 1089.910156 " fill-opacity="1" fill-rule="evenodd"/></g><g clip-path="url(#1de1d01acb)"><path fill="#0F7A68" d="M 1323.699219 1271.039062 L 1065.472656 1271.039062 L 1065.472656 1303.429688 C 1065.472656 1318.539062 1077.808594 1330.875 1092.917969 1330.875 L 1296.28125 1330.875 C 1311.386719 1330.875 1323.722656 1318.539062 1323.722656 1303.429688 L 1323.722656 1271.039062 Z M 1323.699219 1271.039062 " fill-opacity="1" fill-rule="evenodd"/></g><g clip-path="url(#363ad2a7e3)"><path fill="#0F7A68" d="M 1065.472656 1138.890625 L 1323.722656 1138.890625 L 1323.722656 1242.375 L 1065.472656 1242.375 Z M 1065.472656 1138.890625 " fill-opacity="1" fill-rule="evenodd"/></g><path fill="#0F7A68" d="M 1102.671875 907.273438 L 1102.671875 976.71875 C 1102.671875 979.300781 1104.773438 981.449219 1107.40625 981.449219 L 1281.769531 981.449219 C 1284.421875 981.449219 1286.574219 979.273438 1286.574219 976.71875 L 1286.574219 907.273438 C 1286.574219 904.621094 1284.398438 902.46875 1281.769531 902.46875 L 1107.40625 902.46875 C 1104.773438 902.46875 1102.671875 904.644531 1102.671875 907.273438 Z M 1102.671875 907.273438 " fill-opacity="1" fill-rule="evenodd"/></svg>