<svg xmlns="http://www.w3.org/2000/svg" xmlns:xlink="http://www.w3.org/1999/xlink" width="1024" zoomAndPan="magnify" viewBox="0 0 768 225" height="300" preserveAspectRatio="xMidYMid meet" version="1.0"><defs><g/><clipPath id="87b4d8a668"><path d="M 11 29 L 34 29 L 34 51 L 11 51 Z M 11 29 " clip-rule="nonzero"/></clipPath><clipPath id="ba3018408f"><path d="M 36.851562 41.398438 L 27.808594 53.574219 L 8.019531 38.878906 L 17.0625 26.699219 Z M 36.851562 41.398438 " clip-rule="nonzero"/></clipPath><clipPath id="e61a037814"><path d="M 32.328125 47.484375 C 31.128906 49.101562 29.335938 50.171875 27.347656 50.464844 C 25.359375 50.761719 23.332031 50.25 21.71875 49.050781 L 14.144531 43.429688 C 12.53125 42.230469 11.457031 40.4375 11.164062 38.449219 C 10.871094 36.457031 11.378906 34.433594 12.578125 32.816406 C 13.777344 31.203125 15.566406 30.128906 17.558594 29.835938 C 19.546875 29.542969 21.574219 30.050781 23.1875 31.25 L 30.761719 36.875 C 32.375 38.074219 33.449219 39.867188 33.742188 41.855469 C 34.035156 43.84375 33.527344 45.871094 32.328125 47.484375 Z M 32.328125 47.484375 " clip-rule="nonzero"/></clipPath><clipPath id="10771c1eba"><path d="M 0 0.480469 L 23 0.480469 L 23 21.839844 L 0 21.839844 Z M 0 0.480469 " clip-rule="nonzero"/></clipPath><clipPath id="cc4b197b80"><path d="M 25.851562 12.398438 L 16.808594 24.574219 L -2.980469 9.878906 L 6.0625 -2.300781 Z M 25.851562 12.398438 " clip-rule="nonzero"/></clipPath><clipPath id="53bdea6f87"><path d="M 21.328125 18.484375 C 20.128906 20.101562 18.335938 21.171875 16.347656 21.464844 C 14.359375 21.761719 12.332031 21.25 10.71875 20.050781 L 3.144531 14.429688 C 1.53125 13.230469 0.457031 11.4375 0.164062 9.449219 C -0.128906 7.457031 0.378906 5.433594 1.578125 3.816406 C 2.777344 2.203125 4.566406 1.128906 6.558594 0.835938 C 8.546875 0.542969 10.574219 1.050781 12.1875 2.25 L 19.761719 7.875 C 21.375 9.074219 22.449219 10.867188 22.742188 12.855469 C 23.035156 14.84375 22.527344 16.871094 21.328125 18.484375 Z M 21.328125 18.484375 " clip-rule="nonzero"/></clipPath><clipPath id="c733bd5f2f"><rect x="0" width="23" y="0" height="22"/></clipPath><clipPath id="b80bec06b1"><path d="M 27 12 L 48 12 L 48 35 L 27 35 Z M 27 12 " clip-rule="nonzero"/></clipPath><clipPath id="e3ef552dd3"><path d="M 50.53125 28.617188 L 39.644531 36.941406 L 24.941406 17.722656 L 35.824219 9.394531 Z M 50.53125 28.617188 " clip-rule="nonzero"/></clipPath><clipPath id="82455fe326"><path d="M 45.085938 32.78125 C 43.644531 33.882812 41.820312 34.371094 40.019531 34.128906 C 38.214844 33.890625 36.585938 32.945312 35.480469 31.5 L 29.128906 23.203125 C 28.027344 21.757812 27.539062 19.933594 27.78125 18.132812 C 28.019531 16.332031 28.964844 14.699219 30.410156 13.59375 C 31.851562 12.492188 33.675781 12.003906 35.476562 12.246094 C 37.28125 12.484375 38.914062 13.429688 40.015625 14.875 L 46.367188 23.171875 C 47.46875 24.617188 47.957031 26.4375 47.714844 28.242188 C 47.476562 30.042969 46.53125 31.675781 45.085938 32.78125 Z M 45.085938 32.78125 " clip-rule="nonzero"/></clipPath><clipPath id="515ae1749a"><path d="M 0.359375 0 L 21 0 L 21 22.519531 L 0.359375 22.519531 Z M 0.359375 0 " clip-rule="nonzero"/></clipPath><clipPath id="1e9bbaf937"><path d="M 23.53125 16.617188 L 12.644531 24.941406 L -2.058594 5.722656 L 8.824219 -2.605469 Z M 23.53125 16.617188 " clip-rule="nonzero"/></clipPath><clipPath id="ad99256e07"><path d="M 18.085938 20.78125 C 16.644531 21.882812 14.820312 22.371094 13.019531 22.128906 C 11.214844 21.890625 9.585938 20.945312 8.480469 19.5 L 2.128906 11.203125 C 1.027344 9.757812 0.539062 7.933594 0.78125 6.132812 C 1.019531 4.332031 1.964844 2.699219 3.410156 1.59375 C 4.851562 0.492188 6.675781 0.00390625 8.476562 0.246094 C 10.28125 0.484375 11.914062 1.429688 13.015625 2.875 L 19.367188 11.171875 C 20.46875 12.617188 20.957031 14.4375 20.714844 16.242188 C 20.476562 18.042969 19.53125 19.675781 18.085938 20.78125 Z M 18.085938 20.78125 " clip-rule="nonzero"/></clipPath><clipPath id="b6e15f43eb"><rect x="0" width="21" y="0" height="23"/></clipPath><clipPath id="e63014b5c9"><path d="M 51 1 L 64 1 L 64 27 L 51 27 Z M 51 1 " clip-rule="nonzero"/></clipPath><clipPath id="3bed473513"><path d="M 50.773438 1.699219 L 61.171875 0.632812 L 63.804688 26.382812 L 53.410156 27.445312 Z M 50.773438 1.699219 " clip-rule="nonzero"/></clipPath><clipPath id="b16dbc497d"><path d="M 55.972656 1.167969 C 58.84375 0.871094 61.410156 2.960938 61.703125 5.832031 L 63.273438 21.164062 C 63.566406 24.035156 61.476562 26.601562 58.605469 26.894531 C 55.734375 27.191406 53.167969 25.101562 52.875 22.230469 L 51.308594 6.898438 C 51.011719 4.027344 53.101562 1.460938 55.972656 1.167969 Z M 55.972656 1.167969 " clip-rule="nonzero"/></clipPath><clipPath id="659b55688a"><path d="M 0 0 L 12.601562 0 L 12.601562 26 L 0 26 Z M 0 0 " clip-rule="nonzero"/></clipPath><clipPath id="a084c439be"><path d="M -0.226562 0.699219 L 10.171875 -0.367188 L 12.804688 25.382812 L 2.410156 26.445312 Z M -0.226562 0.699219 " clip-rule="nonzero"/></clipPath><clipPath id="3eeed0d6a1"><path d="M 4.972656 0.167969 C 7.84375 -0.128906 10.410156 1.960938 10.703125 4.832031 L 12.273438 20.164062 C 12.566406 23.035156 10.476562 25.601562 7.605469 25.894531 C 4.734375 26.191406 2.167969 24.101562 1.875 21.230469 L 0.308594 5.898438 C 0.0117188 3.027344 2.101562 0.460938 4.972656 0.167969 Z M 4.972656 0.167969 " clip-rule="nonzero"/></clipPath><clipPath id="90ca5d3c0e"><rect x="0" width="13" y="0" height="26"/></clipPath><clipPath id="08dc6a819b"><path d="M 100 78 L 124 78 L 124 100 L 100 100 Z M 100 78 " clip-rule="nonzero"/></clipPath><clipPath id="af66e84e9b"><path d="M 97.402344 88.15625 L 106.109375 75.734375 L 126.292969 89.878906 L 117.589844 102.300781 Z M 97.402344 88.15625 " clip-rule="nonzero"/></clipPath><clipPath id="2fd54a71a6"><path d="M 101.753906 81.945312 C 102.910156 80.300781 104.671875 79.175781 106.652344 78.828125 C 108.632812 78.480469 110.671875 78.933594 112.320312 80.085938 L 120.042969 85.5 C 121.691406 86.65625 122.8125 88.414062 123.160156 90.398438 C 123.511719 92.378906 123.058594 94.417969 121.902344 96.0625 C 120.75 97.710938 118.988281 98.832031 117.007812 99.179688 C 115.027344 99.53125 112.988281 99.078125 111.339844 97.921875 L 103.613281 92.507812 C 101.96875 91.355469 100.847656 89.59375 100.496094 87.613281 C 100.148438 85.632812 100.601562 83.59375 101.753906 81.945312 Z M 101.753906 81.945312 " clip-rule="nonzero"/></clipPath><clipPath id="e2d04f7377"><path d="M 0.078125 0.441406 L 23.601562 0.441406 L 23.601562 21.558594 L 0.078125 21.558594 Z M 0.078125 0.441406 " clip-rule="nonzero"/></clipPath><clipPath id="a74e1bdba8"><path d="M -2.597656 10.15625 L 6.109375 -2.265625 L 26.292969 11.878906 L 17.589844 24.300781 Z M -2.597656 10.15625 " clip-rule="nonzero"/></clipPath><clipPath id="8709c86157"><path d="M 1.753906 3.945312 C 2.910156 2.300781 4.671875 1.175781 6.652344 0.828125 C 8.632812 0.480469 10.671875 0.933594 12.320312 2.085938 L 20.042969 7.5 C 21.691406 8.65625 22.8125 10.414062 23.160156 12.398438 C 23.511719 14.378906 23.058594 16.417969 21.902344 18.0625 C 20.75 19.710938 18.988281 20.832031 17.007812 21.179688 C 15.027344 21.53125 12.988281 21.078125 11.339844 19.921875 L 3.613281 14.507812 C 1.96875 13.355469 0.847656 11.59375 0.496094 9.613281 C 0.148438 7.632812 0.601562 5.59375 1.753906 3.945312 Z M 1.753906 3.945312 " clip-rule="nonzero"/></clipPath><clipPath id="b1dc22b0a7"><rect x="0" width="24" y="0" height="22"/></clipPath><clipPath id="121a14cfd8"><path d="M 86 94 L 107 94 L 107 118 L 86 118 Z M 86 94 " clip-rule="nonzero"/></clipPath><clipPath id="0947140ca0"><path d="M 83.847656 100.324219 L 94.875 92.183594 L 109.246094 111.652344 L 98.222656 119.792969 Z M 83.847656 100.324219 " clip-rule="nonzero"/></clipPath><clipPath id="e9e193146b"><path d="M 89.359375 96.253906 C 90.824219 95.175781 92.652344 94.71875 94.449219 94.988281 C 96.25 95.261719 97.863281 96.234375 98.945312 97.695312 L 105.152344 106.101562 C 106.230469 107.5625 106.683594 109.394531 106.414062 111.191406 C 106.144531 112.988281 105.171875 114.605469 103.707031 115.683594 C 102.246094 116.765625 100.414062 117.21875 98.617188 116.949219 C 96.820312 116.679688 95.203125 115.707031 94.125 114.242188 L 87.917969 105.835938 C 86.839844 104.375 86.382812 102.542969 86.65625 100.746094 C 86.925781 98.949219 87.898438 97.332031 89.359375 96.253906 Z M 89.359375 96.253906 " clip-rule="nonzero"/></clipPath><clipPath id="e8b8b5da05"><path d="M 0.160156 0.519531 L 20.800781 0.519531 L 20.800781 23.320312 L 0.160156 23.320312 Z M 0.160156 0.519531 " clip-rule="nonzero"/></clipPath><clipPath id="a78acbac75"><path d="M -2.152344 6.324219 L 8.875 -1.816406 L 23.246094 17.652344 L 12.222656 25.792969 Z M -2.152344 6.324219 " clip-rule="nonzero"/></clipPath><clipPath id="1f6690e089"><path d="M 3.359375 2.253906 C 4.824219 1.175781 6.652344 0.71875 8.449219 0.988281 C 10.25 1.261719 11.863281 2.234375 12.945312 3.695312 L 19.152344 12.101562 C 20.230469 13.5625 20.683594 15.394531 20.414062 17.191406 C 20.144531 18.988281 19.171875 20.605469 17.707031 21.683594 C 16.246094 22.765625 14.414062 23.21875 12.617188 22.949219 C 10.820312 22.679688 9.203125 21.707031 8.125 20.242188 L 1.917969 11.835938 C 0.839844 10.375 0.382812 8.542969 0.65625 6.746094 C 0.925781 4.949219 1.898438 3.332031 3.359375 2.253906 Z M 3.359375 2.253906 " clip-rule="nonzero"/></clipPath><clipPath id="fdaa66774d"><rect x="0" width="21" y="0" height="24"/></clipPath><clipPath id="08c1668479"><path d="M 72 102 L 85 102 L 85 126.921875 L 72 126.921875 Z M 72 102 " clip-rule="nonzero"/></clipPath><clipPath id="eee4b879b9"><path d="M 85 125.269531 L 74.652344 126.714844 L 71.347656 103.019531 L 81.699219 101.578125 Z M 85 125.269531 " clip-rule="nonzero"/></clipPath><clipPath id="91b205b3bf"><path d="M 79.824219 125.992188 C 76.96875 126.390625 74.328125 124.398438 73.929688 121.539062 L 72.070312 108.214844 C 71.671875 105.355469 73.667969 102.714844 76.523438 102.316406 C 79.382812 101.917969 82.023438 103.914062 82.421875 106.769531 L 84.28125 120.097656 C 84.679688 122.953125 82.683594 125.59375 79.824219 125.992188 Z M 79.824219 125.992188 " clip-rule="nonzero"/></clipPath><clipPath id="e0e11c8bbe"><path d="M 0 0 L 12.71875 0 L 12.71875 24.441406 L 0 24.441406 Z M 0 0 " clip-rule="nonzero"/></clipPath><clipPath id="cb03285fa0"><path d="M 13 23.269531 L 2.652344 24.714844 L -0.652344 1.019531 L 9.699219 -0.421875 Z M 13 23.269531 " clip-rule="nonzero"/></clipPath><clipPath id="9cc96b78f9"><path d="M 7.824219 23.992188 C 4.96875 24.390625 2.328125 22.398438 1.929688 19.539062 L 0.0703125 6.214844 C -0.328125 3.355469 1.667969 0.714844 4.523438 0.316406 C 7.382812 -0.0820312 10.023438 1.914062 10.421875 4.769531 L 12.28125 18.097656 C 12.679688 20.953125 10.683594 23.59375 7.824219 23.992188 Z M 7.824219 23.992188 " clip-rule="nonzero"/></clipPath><clipPath id="3e6bd71162"><rect x="0" width="13" y="0" height="25"/></clipPath><clipPath id="9d2e034a60"><path d="M 70 0.199219 L 83 0.199219 L 83 27 L 70 27 Z M 70 0.199219 " clip-rule="nonzero"/></clipPath><clipPath id="aa67d2d67b"><path d="M 72.605469 0.285156 L 83 1.375 L 80.300781 27.117188 L 69.90625 26.027344 Z M 72.605469 0.285156 " clip-rule="nonzero"/></clipPath><clipPath id="20b6773b5d"><path d="M 77.800781 0.828125 C 80.671875 1.128906 82.753906 3.699219 82.453125 6.570312 L 80.847656 21.902344 C 80.546875 24.769531 77.976562 26.855469 75.105469 26.554688 C 72.238281 26.253906 70.152344 23.683594 70.453125 20.8125 L 72.058594 5.484375 C 72.359375 2.613281 74.929688 0.527344 77.800781 0.828125 Z M 77.800781 0.828125 " clip-rule="nonzero"/></clipPath><clipPath id="c9d526f810"><path d="M 0.078125 0.441406 L 12.800781 0.441406 L 12.800781 27 L 0.078125 27 Z M 0.078125 0.441406 " clip-rule="nonzero"/></clipPath><clipPath id="0aec82ba69"><path d="M 2.605469 0.285156 L 13 1.375 L 10.300781 27.117188 L -0.09375 26.027344 Z M 2.605469 0.285156 " clip-rule="nonzero"/></clipPath><clipPath id="93324b91b0"><path d="M 7.800781 0.828125 C 10.671875 1.128906 12.753906 3.699219 12.453125 6.570312 L 10.847656 21.902344 C 10.546875 24.769531 7.976562 26.855469 5.105469 26.554688 C 2.238281 26.253906 0.152344 23.683594 0.453125 20.8125 L 2.058594 5.484375 C 2.359375 2.613281 4.929688 0.527344 7.800781 0.828125 Z M 7.800781 0.828125 " clip-rule="nonzero"/></clipPath><clipPath id="145c5d85f3"><rect x="0" width="13" y="0" height="27"/></clipPath><clipPath id="e6f7d803da"><path d="M 85 12 L 106 12 L 106 35 L 85 35 Z M 85 12 " clip-rule="nonzero"/></clipPath><clipPath id="d54dffebe2"><path d="M 94.011719 36.941406 L 83 28.785156 L 97.398438 9.339844 L 108.414062 17.496094 Z M 94.011719 36.941406 " clip-rule="nonzero"/></clipPath><clipPath id="5435d1be94"><path d="M 88.507812 32.863281 C 87.046875 31.785156 86.074219 30.164062 85.804688 28.367188 C 85.539062 26.570312 85.996094 24.738281 87.078125 23.28125 L 93.296875 14.882812 C 94.375 13.421875 95.992188 12.449219 97.792969 12.183594 C 99.589844 11.914062 101.417969 12.371094 102.878906 13.453125 C 104.339844 14.535156 105.3125 16.152344 105.582031 17.949219 C 105.847656 19.746094 105.390625 21.578125 104.308594 23.039062 L 98.089844 31.4375 C 97.011719 32.894531 95.390625 33.867188 93.59375 34.136719 C 91.796875 34.402344 89.964844 33.945312 88.507812 32.863281 Z M 88.507812 32.863281 " clip-rule="nonzero"/></clipPath><clipPath id="e30f29f5c6"><path d="M 0.441406 0 L 21 0 L 21 22.519531 L 0.441406 22.519531 Z M 0.441406 0 " clip-rule="nonzero"/></clipPath><clipPath id="a13a5d76b5"><path d="M 9.011719 24.941406 L -2 16.785156 L 12.398438 -2.660156 L 23.414062 5.496094 Z M 9.011719 24.941406 " clip-rule="nonzero"/></clipPath><clipPath id="edb3d19ae0"><path d="M 3.507812 20.863281 C 2.046875 19.785156 1.074219 18.164062 0.804688 16.367188 C 0.539062 14.570312 0.996094 12.738281 2.078125 11.28125 L 8.296875 2.882812 C 9.375 1.421875 10.992188 0.449219 12.792969 0.183594 C 14.589844 -0.0859375 16.417969 0.371094 17.878906 1.453125 C 19.339844 2.535156 20.3125 4.152344 20.582031 5.949219 C 20.847656 7.746094 20.390625 9.578125 19.308594 11.039062 L 13.089844 19.4375 C 12.011719 20.894531 10.390625 21.867188 8.59375 22.136719 C 6.796875 22.402344 4.964844 21.945312 3.507812 20.863281 Z M 3.507812 20.863281 " clip-rule="nonzero"/></clipPath><clipPath id="769271d93e"><rect x="0" width="21" y="0" height="23"/></clipPath><clipPath id="3e565421db"><path d="M 98 29 L 122 29 L 122 51 L 98 51 Z M 98 29 " clip-rule="nonzero"/></clipPath><clipPath id="b7da100a31"><path d="M 105.019531 53.304688 L 95.863281 41.210938 L 115.515625 26.332031 L 124.671875 38.425781 Z M 105.019531 53.304688 " clip-rule="nonzero"/></clipPath><clipPath id="5831589c38"><path d="M 100.441406 47.257812 C 99.226562 45.65625 98.699219 43.636719 98.976562 41.640625 C 99.25 39.648438 100.304688 37.847656 101.910156 36.632812 L 109.429688 30.9375 C 111.035156 29.726562 113.054688 29.199219 115.046875 29.472656 C 117.039062 29.746094 118.839844 30.804688 120.054688 32.40625 C 121.269531 34.011719 121.796875 36.03125 121.523438 38.023438 C 121.246094 40.015625 120.191406 41.816406 118.585938 43.03125 L 111.066406 48.726562 C 109.464844 49.941406 107.441406 50.46875 105.449219 50.191406 C 103.457031 49.917969 101.65625 48.863281 100.441406 47.257812 Z M 100.441406 47.257812 " clip-rule="nonzero"/></clipPath><clipPath id="57c31abf55"><path d="M 0.640625 0 L 23.921875 0 L 23.921875 21.601562 L 0.640625 21.601562 Z M 0.640625 0 " clip-rule="nonzero"/></clipPath><clipPath id="c07be8c059"><path d="M 7.019531 24.304688 L -2.136719 12.210938 L 17.515625 -2.667969 L 26.671875 9.425781 Z M 7.019531 24.304688 " clip-rule="nonzero"/></clipPath><clipPath id="5ea3e391b9"><path d="M 2.441406 18.257812 C 1.226562 16.65625 0.699219 14.636719 0.976562 12.640625 C 1.25 10.648438 2.304688 8.847656 3.910156 7.632812 L 11.429688 1.9375 C 13.035156 0.726562 15.054688 0.199219 17.046875 0.472656 C 19.039062 0.746094 20.839844 1.804688 22.054688 3.40625 C 23.269531 5.011719 23.796875 7.03125 23.523438 9.023438 C 23.246094 11.015625 22.191406 12.816406 20.585938 14.03125 L 13.066406 19.726562 C 11.464844 20.941406 9.441406 21.46875 7.449219 21.191406 C 5.457031 20.917969 3.65625 19.863281 2.441406 18.257812 Z M 2.441406 18.257812 " clip-rule="nonzero"/></clipPath><clipPath id="b79bef4677"><rect x="0" width="24" y="0" height="22"/></clipPath><clipPath id="a507207f46"><path d="M 51 102 L 63 102 L 63 126.921875 L 51 126.921875 Z M 51 102 " clip-rule="nonzero"/></clipPath><clipPath id="a223381d3a"><path d="M 60.9375 126.714844 L 50.542969 125.625 L 53.035156 101.832031 L 63.429688 102.921875 Z M 60.9375 126.714844 " clip-rule="nonzero"/></clipPath><clipPath id="654b79a9b9"><path d="M 55.738281 126.171875 C 52.867188 125.871094 50.785156 123.300781 51.085938 120.429688 L 52.488281 107.039062 C 52.789062 104.171875 55.359375 102.085938 58.230469 102.386719 C 61.101562 102.6875 63.183594 105.257812 62.882812 108.128906 L 61.480469 121.515625 C 61.179688 124.386719 58.609375 126.472656 55.738281 126.171875 Z M 55.738281 126.171875 " clip-rule="nonzero"/></clipPath><clipPath id="94fb9d40ce"><path d="M 0 0 L 12 0 L 12 24.679688 L 0 24.679688 Z M 0 0 " clip-rule="nonzero"/></clipPath><clipPath id="03b1a6bfcc"><path d="M 9.9375 24.714844 L -0.457031 23.625 L 2.035156 -0.167969 L 12.429688 0.921875 Z M 9.9375 24.714844 " clip-rule="nonzero"/></clipPath><clipPath id="80a9c035d9"><path d="M 4.738281 24.171875 C 1.867188 23.871094 -0.214844 21.300781 0.0859375 18.429688 L 1.488281 5.039062 C 1.789062 2.171875 4.359375 0.0859375 7.230469 0.386719 C 10.101562 0.6875 12.183594 3.257812 11.882812 6.128906 L 10.480469 19.515625 C 10.179688 22.386719 7.609375 24.472656 4.738281 24.171875 Z M 4.738281 24.171875 " clip-rule="nonzero"/></clipPath><clipPath id="12a9d2f3fb"><rect x="0" width="12" y="0" height="25"/></clipPath><clipPath id="93bd13f550"><path d="M 27 95 L 47 95 L 47 117 L 27 117 Z M 27 95 " clip-rule="nonzero"/></clipPath><clipPath id="71aca3b6c1"><path d="M 38.214844 92.421875 L 49.230469 100.578125 L 35.5625 119.039062 L 24.546875 110.882812 Z M 38.214844 92.421875 " clip-rule="nonzero"/></clipPath><clipPath id="72345d8034"><path d="M 43.722656 96.5 C 45.183594 97.582031 46.152344 99.199219 46.421875 100.996094 C 46.691406 102.796875 46.234375 104.625 45.152344 106.085938 L 39.664062 113.496094 C 38.582031 114.953125 36.964844 115.925781 35.167969 116.195312 C 33.371094 116.460938 31.539062 116.003906 30.078125 114.921875 C 28.621094 113.84375 27.648438 112.222656 27.378906 110.425781 C 27.113281 108.628906 27.570312 106.796875 28.652344 105.335938 L 34.136719 97.929688 C 35.21875 96.46875 36.835938 95.5 38.632812 95.230469 C 40.429688 94.960938 42.261719 95.417969 43.722656 96.5 Z M 43.722656 96.5 " clip-rule="nonzero"/></clipPath><clipPath id="4e4221f329"><path d="M 0 0 L 19.800781 0 L 19.800781 21.601562 L 0 21.601562 Z M 0 0 " clip-rule="nonzero"/></clipPath><clipPath id="2b3e6dd852"><path d="M 11.214844 -2.578125 L 22.230469 5.578125 L 8.5625 24.039062 L -2.453125 15.882812 Z M 11.214844 -2.578125 " clip-rule="nonzero"/></clipPath><clipPath id="1d183b2d0e"><path d="M 16.722656 1.5 C 18.183594 2.582031 19.152344 4.199219 19.421875 5.996094 C 19.691406 7.796875 19.234375 9.625 18.152344 11.085938 L 12.664062 18.496094 C 11.582031 19.953125 9.964844 20.925781 8.167969 21.195312 C 6.371094 21.460938 4.539062 21.003906 3.078125 19.921875 C 1.621094 18.84375 0.648438 17.222656 0.378906 15.425781 C 0.113281 13.628906 0.570312 11.796875 1.652344 10.335938 L 7.136719 2.929688 C 8.21875 1.46875 9.835938 0.5 11.632812 0.230469 C 13.429688 -0.0390625 15.261719 0.417969 16.722656 1.5 Z M 16.722656 1.5 " clip-rule="nonzero"/></clipPath><clipPath id="8887e18f3b"><rect x="0" width="20" y="0" height="22"/></clipPath><clipPath id="f80f315216"><path d="M 11 78 L 34 78 L 34 99 L 11 99 Z M 11 78 " clip-rule="nonzero"/></clipPath><clipPath id="205b888282"><path d="M 27.03125 75.457031 L 36.1875 87.546875 L 17.292969 101.855469 L 8.136719 89.765625 Z M 27.03125 75.457031 " clip-rule="nonzero"/></clipPath><clipPath id="767a82f1c7"><path d="M 31.609375 81.503906 C 32.824219 83.105469 33.351562 85.125 33.078125 87.117188 C 32.800781 89.109375 31.746094 90.914062 30.140625 92.128906 L 23.359375 97.265625 C 21.753906 98.480469 19.734375 99.007812 17.742188 98.730469 C 15.75 98.457031 13.945312 97.402344 12.734375 95.796875 C 11.519531 94.191406 10.992188 92.171875 11.265625 90.179688 C 11.542969 88.1875 12.597656 86.386719 14.199219 85.171875 L 20.984375 80.035156 C 22.589844 78.820312 24.609375 78.292969 26.601562 78.566406 C 28.59375 78.84375 30.394531 79.898438 31.609375 81.503906 Z M 31.609375 81.503906 " clip-rule="nonzero"/></clipPath><clipPath id="252ce7c8b8"><path d="M 0 0.199219 L 22.359375 0.199219 L 22.359375 21 L 0 21 Z M 0 0.199219 " clip-rule="nonzero"/></clipPath><clipPath id="45e4962e17"><path d="M 16.03125 -2.542969 L 25.1875 9.546875 L 6.292969 23.855469 L -2.863281 11.765625 Z M 16.03125 -2.542969 " clip-rule="nonzero"/></clipPath><clipPath id="7067948e61"><path d="M 20.609375 3.503906 C 21.824219 5.105469 22.351562 7.125 22.078125 9.117188 C 21.800781 11.109375 20.746094 12.914062 19.140625 14.128906 L 12.359375 19.265625 C 10.753906 20.480469 8.734375 21.007812 6.742188 20.730469 C 4.75 20.457031 2.945312 19.402344 1.734375 17.796875 C 0.519531 16.191406 -0.0078125 14.171875 0.265625 12.179688 C 0.542969 10.1875 1.597656 8.386719 3.199219 7.171875 L 9.984375 2.035156 C 11.589844 0.820312 13.609375 0.292969 15.601562 0.566406 C 17.59375 0.84375 19.394531 1.898438 20.609375 3.503906 Z M 20.609375 3.503906 " clip-rule="nonzero"/></clipPath><clipPath id="4cd221d00b"><rect x="0" width="23" y="0" height="21"/></clipPath><clipPath id="6415e5cd3e"><path d="M 0.765625 51.351562 L 27.820312 51.351562 L 27.820312 75.648438 L 0.765625 75.648438 Z M 0.765625 51.351562 " clip-rule="nonzero"/></clipPath><clipPath id="e10ab4b971"><path d="M 14.285156 51.351562 C 6.820312 51.351562 0.765625 56.789062 0.765625 63.5 C 0.765625 70.210938 6.820312 75.648438 14.285156 75.648438 C 21.75 75.648438 27.804688 70.210938 27.804688 63.5 C 27.804688 56.789062 21.75 51.351562 14.285156 51.351562 Z M 14.285156 51.351562 " clip-rule="nonzero"/></clipPath><clipPath id="3099f3e304"><path d="M 0.765625 0.351562 L 27.820312 0.351562 L 27.820312 24.648438 L 0.765625 24.648438 Z M 0.765625 0.351562 " clip-rule="nonzero"/></clipPath><clipPath id="a1dccf7a9a"><path d="M 14.285156 0.351562 C 6.820312 0.351562 0.765625 5.789062 0.765625 12.5 C 0.765625 19.210938 6.820312 24.648438 14.285156 24.648438 C 21.75 24.648438 27.804688 19.210938 27.804688 12.5 C 27.804688 5.789062 21.75 0.351562 14.285156 0.351562 Z M 14.285156 0.351562 " clip-rule="nonzero"/></clipPath><clipPath id="11fc90bdf5"><rect x="0" width="28" y="0" height="25"/></clipPath><clipPath id="943c141e6b"><path d="M 105.074219 51.351562 L 132.125 51.351562 L 132.125 75.648438 L 105.074219 75.648438 Z M 105.074219 51.351562 " clip-rule="nonzero"/></clipPath><clipPath id="1c20eba358"><path d="M 118.59375 51.351562 C 111.125 51.351562 105.074219 56.789062 105.074219 63.5 C 105.074219 70.210938 111.125 75.648438 118.59375 75.648438 C 126.058594 75.648438 132.109375 70.210938 132.109375 63.5 C 132.109375 56.789062 126.058594 51.351562 118.59375 51.351562 Z M 118.59375 51.351562 " clip-rule="nonzero"/></clipPath><clipPath id="6c19181b02"><path d="M 0.0742188 0.351562 L 27.125 0.351562 L 27.125 24.648438 L 0.0742188 24.648438 Z M 0.0742188 0.351562 " clip-rule="nonzero"/></clipPath><clipPath id="9fececc249"><path d="M 13.59375 0.351562 C 6.125 0.351562 0.0742188 5.789062 0.0742188 12.5 C 0.0742188 19.210938 6.125 24.648438 13.59375 24.648438 C 21.058594 24.648438 27.109375 19.210938 27.109375 12.5 C 27.109375 5.789062 21.058594 0.351562 13.59375 0.351562 Z M 13.59375 0.351562 " clip-rule="nonzero"/></clipPath><clipPath id="dc95c84c73"><rect x="0" width="28" y="0" height="25"/></clipPath><clipPath id="f05b508605"><rect x="0" width="133" y="0" height="127"/></clipPath></defs><g transform="matrix(1, 0, 0, 1, 42, 49)"><g clip-path="url(#f05b508605)"><g clip-path="url(#87b4d8a668)"><g clip-path="url(#ba3018408f)"><g clip-path="url(#e61a037814)"><g transform="matrix(1, 0, 0, 1, 11, 29)"><g clip-path="url(#c733bd5f2f)"><g clip-path="url(#10771c1eba)"><g clip-path="url(#cc4b197b80)"><g clip-path="url(#53bdea6f87)"><path fill="#167b68" d="M 25.851562 12.398438 L 16.808594 24.574219 L -2.933594 9.914062 L 6.109375 -2.265625 Z M 25.851562 12.398438 " fill-opacity="1" fill-rule="nonzero"/></g></g></g></g></g></g></g></g><g clip-path="url(#b80bec06b1)"><g clip-path="url(#e3ef552dd3)"><g clip-path="url(#82455fe326)"><g transform="matrix(1, 0, 0, 1, 27, 12)"><g clip-path="url(#b6e15f43eb)"><g clip-path="url(#515ae1749a)"><g clip-path="url(#1e9bbaf937)"><g clip-path="url(#ad99256e07)"><path fill="#167b68" d="M 23.53125 16.617188 L 12.644531 24.941406 L -2.027344 5.765625 L 8.859375 -2.5625 Z M 23.53125 16.617188 " fill-opacity="1" fill-rule="nonzero"/></g></g></g></g></g></g></g></g><g clip-path="url(#e63014b5c9)"><g clip-path="url(#3bed473513)"><g clip-path="url(#b16dbc497d)"><g transform="matrix(1, 0, 0, 1, 51, 1)"><g clip-path="url(#90ca5d3c0e)"><g clip-path="url(#659b55688a)"><g clip-path="url(#a084c439be)"><g clip-path="url(#3eeed0d6a1)"><path fill="#167b68" d="M -0.226562 0.699219 L 10.171875 -0.367188 L 12.804688 25.382812 L 2.410156 26.445312 Z M -0.226562 0.699219 " fill-opacity="1" fill-rule="nonzero"/></g></g></g></g></g></g></g></g><g clip-path="url(#08dc6a819b)"><g clip-path="url(#af66e84e9b)"><g clip-path="url(#2fd54a71a6)"><g transform="matrix(1, 0, 0, 1, 100, 78)"><g clip-path="url(#b1dc22b0a7)"><g clip-path="url(#e2d04f7377)"><g clip-path="url(#a74e1bdba8)"><g clip-path="url(#8709c86157)"><path fill="#167b68" d="M -2.597656 10.15625 L 6.109375 -2.265625 L 26.246094 11.84375 L 17.542969 24.269531 Z M -2.597656 10.15625 " fill-opacity="1" fill-rule="nonzero"/></g></g></g></g></g></g></g></g><g clip-path="url(#121a14cfd8)"><g clip-path="url(#0947140ca0)"><g clip-path="url(#e9e193146b)"><g transform="matrix(1, 0, 0, 1, 86, 94)"><g clip-path="url(#fdaa66774d)"><g clip-path="url(#e8b8b5da05)"><g clip-path="url(#a78acbac75)"><g clip-path="url(#1f6690e089)"><path fill="#167b68" d="M -2.152344 6.324219 L 8.875 -1.816406 L 23.214844 17.609375 L 12.191406 25.75 Z M -2.152344 6.324219 " fill-opacity="1" fill-rule="nonzero"/></g></g></g></g></g></g></g></g><g clip-path="url(#08c1668479)"><g clip-path="url(#eee4b879b9)"><g clip-path="url(#91b205b3bf)"><g transform="matrix(1, 0, 0, 1, 72, 102)"><g clip-path="url(#3e6bd71162)"><g clip-path="url(#e0e11c8bbe)"><g clip-path="url(#cb03285fa0)"><g clip-path="url(#9cc96b78f9)"><path fill="#167b68" d="M 13 23.269531 L 2.652344 24.714844 L -0.652344 1.019531 L 9.699219 -0.421875 Z M 13 23.269531 " fill-opacity="1" fill-rule="nonzero"/></g></g></g></g></g></g></g></g><g clip-path="url(#9d2e034a60)"><g clip-path="url(#aa67d2d67b)"><g clip-path="url(#20b6773b5d)"><g transform="matrix(1, 0, 0, 1, 70, -0.000000000000007105)"><g clip-path="url(#145c5d85f3)"><g clip-path="url(#c9d526f810)"><g clip-path="url(#0aec82ba69)"><g clip-path="url(#93324b91b0)"><path fill="#167b68" d="M 2.605469 0.285156 L 13 1.375 L 10.300781 27.117188 L -0.09375 26.027344 Z M 2.605469 0.285156 " fill-opacity="1" fill-rule="nonzero"/></g></g></g></g></g></g></g></g><g clip-path="url(#e6f7d803da)"><g clip-path="url(#d54dffebe2)"><g clip-path="url(#5435d1be94)"><g transform="matrix(1, 0, 0, 1, 85, 12)"><g clip-path="url(#769271d93e)"><g clip-path="url(#e30f29f5c6)"><g clip-path="url(#a13a5d76b5)"><g clip-path="url(#edb3d19ae0)"><path fill="#167b68" d="M 9.011719 24.941406 L -2 16.785156 L 12.367188 -2.617188 L 23.382812 5.539062 Z M 9.011719 24.941406 " fill-opacity="1" fill-rule="nonzero"/></g></g></g></g></g></g></g></g><g clip-path="url(#3e565421db)"><g clip-path="url(#b7da100a31)"><g clip-path="url(#5831589c38)"><g transform="matrix(1, 0, 0, 1, 98, 29)"><g clip-path="url(#b79bef4677)"><g clip-path="url(#57c31abf55)"><g clip-path="url(#c07be8c059)"><g clip-path="url(#5ea3e391b9)"><path fill="#167b68" d="M 7.019531 24.304688 L -2.136719 12.210938 L 17.464844 -2.632812 L 26.625 9.460938 Z M 7.019531 24.304688 " fill-opacity="1" fill-rule="nonzero"/></g></g></g></g></g></g></g></g><g clip-path="url(#a507207f46)"><g clip-path="url(#a223381d3a)"><g clip-path="url(#654b79a9b9)"><g transform="matrix(1, 0, 0, 1, 51, 102)"><g clip-path="url(#12a9d2f3fb)"><g clip-path="url(#94fb9d40ce)"><g clip-path="url(#03b1a6bfcc)"><g clip-path="url(#80a9c035d9)"><path fill="#167b68" d="M 9.9375 24.714844 L -0.457031 23.625 L 2.035156 -0.167969 L 12.429688 0.921875 Z M 9.9375 24.714844 " fill-opacity="1" fill-rule="nonzero"/></g></g></g></g></g></g></g></g><g clip-path="url(#93bd13f550)"><g clip-path="url(#71aca3b6c1)"><g clip-path="url(#72345d8034)"><g transform="matrix(1, 0, 0, 1, 27, 95)"><g clip-path="url(#8887e18f3b)"><g clip-path="url(#4e4221f329)"><g clip-path="url(#2b3e6dd852)"><g clip-path="url(#1d183b2d0e)"><path fill="#167b68" d="M 11.214844 -2.578125 L 22.230469 5.578125 L 8.59375 23.996094 L -2.421875 15.839844 Z M 11.214844 -2.578125 " fill-opacity="1" fill-rule="nonzero"/></g></g></g></g></g></g></g></g><g clip-path="url(#f80f315216)"><g clip-path="url(#205b888282)"><g clip-path="url(#767a82f1c7)"><g transform="matrix(1, 0, 0, 1, 11, 78)"><g clip-path="url(#4cd221d00b)"><g clip-path="url(#252ce7c8b8)"><g clip-path="url(#45e4962e17)"><g clip-path="url(#7067948e61)"><path fill="#167b68" d="M 16.03125 -2.542969 L 25.1875 9.546875 L 6.292969 23.855469 L -2.863281 11.765625 Z M 16.03125 -2.542969 " fill-opacity="1" fill-rule="nonzero"/></g></g></g></g></g></g></g></g><g clip-path="url(#6415e5cd3e)"><g clip-path="url(#e10ab4b971)"><g transform="matrix(1, 0, 0, 1, 0, 51)"><g clip-path="url(#11fc90bdf5)"><g clip-path="url(#3099f3e304)"><g clip-path="url(#a1dccf7a9a)"><path fill="#167b68" d="M 0.765625 0.351562 L 27.820312 0.351562 L 27.820312 24.648438 L 0.765625 24.648438 Z M 0.765625 0.351562 " fill-opacity="1" fill-rule="nonzero"/></g></g></g></g></g></g><g clip-path="url(#943c141e6b)"><g clip-path="url(#1c20eba358)"><g transform="matrix(1, 0, 0, 1, 105, 51)"><g clip-path="url(#dc95c84c73)"><g clip-path="url(#6c19181b02)"><g clip-path="url(#9fececc249)"><path fill="#167b68" d="M 0.0742188 0.351562 L 27.125 0.351562 L 27.125 24.648438 L 0.0742188 24.648438 Z M 0.0742188 0.351562 " fill-opacity="1" fill-rule="nonzero"/></g></g></g></g></g></g></g></g><g fill="#167b68" fill-opacity="1"><g transform="translate(197.419415, 163.500003)"><g><path d="M 42.53125 1.234375 C 34.5625 1.234375 27.65625 -0.53125 21.8125 -4.0625 C 15.976562 -7.601562 11.519531 -12.703125 8.4375 -19.359375 C 5.363281 -26.015625 3.828125 -33.945312 3.828125 -43.15625 C 3.828125 -52.363281 5.363281 -60.296875 8.4375 -66.953125 C 11.519531 -73.609375 15.976562 -78.703125 21.8125 -82.234375 C 27.65625 -85.773438 34.5625 -87.546875 42.53125 -87.546875 C 50.59375 -87.546875 57.519531 -85.773438 63.3125 -82.234375 C 69.101562 -78.703125 73.539062 -73.609375 76.625 -66.953125 C 79.707031 -60.296875 81.25 -52.363281 81.25 -43.15625 C 81.25 -33.945312 79.707031 -26.015625 76.625 -19.359375 C 73.539062 -12.703125 69.101562 -7.601562 63.3125 -4.0625 C 57.519531 -0.53125 50.59375 1.234375 42.53125 1.234375 Z M 42.53125 -12.828125 C 49.113281 -12.828125 54.273438 -15.515625 58.015625 -20.890625 C 61.753906 -26.273438 63.625 -33.695312 63.625 -43.15625 C 63.625 -52.601562 61.753906 -60.019531 58.015625 -65.40625 C 54.273438 -70.789062 49.113281 -73.484375 42.53125 -73.484375 C 36.039062 -73.484375 30.925781 -70.789062 27.1875 -65.40625 C 23.445312 -60.019531 21.578125 -52.601562 21.578125 -43.15625 C 21.578125 -33.695312 23.445312 -26.273438 27.1875 -20.890625 C 30.925781 -15.515625 36.039062 -12.828125 42.53125 -12.828125 Z M 42.53125 -12.828125 "/></g></g></g><g fill="#167b68" fill-opacity="1"><g transform="translate(282.491528, 163.500003)"><g><path d="M 8.390625 -86.3125 L 38.84375 -86.3125 C 48.625 -86.3125 55.9375 -84.316406 60.78125 -80.328125 C 65.632812 -76.335938 68.0625 -70.316406 68.0625 -62.265625 C 68.0625 -56.585938 66.867188 -51.734375 64.484375 -47.703125 C 62.097656 -43.679688 58.644531 -40.769531 54.125 -38.96875 L 54.125 -38.71875 C 55.6875 -37.5625 56.898438 -36.46875 57.765625 -35.4375 C 58.628906 -34.414062 59.347656 -33.25 59.921875 -31.9375 L 72.625 0 L 53.75 0 L 43.890625 -26.265625 C 42.910156 -28.890625 41.640625 -30.632812 40.078125 -31.5 C 38.515625 -32.363281 35.800781 -32.796875 31.9375 -32.796875 L 26.140625 -32.796875 L 26.140625 0 L 8.390625 0 Z M 36.984375 -46.859375 C 41.503906 -46.859375 44.9375 -47.988281 47.28125 -50.25 C 49.625 -52.507812 50.796875 -55.816406 50.796875 -60.171875 C 50.796875 -68.140625 46.113281 -72.125 36.75 -72.125 L 26.140625 -72.125 L 26.140625 -46.859375 Z M 36.984375 -46.859375 "/></g></g></g><g fill="#167b68" fill-opacity="1"><g transform="translate(355.974107, 163.500003)"><g><path d="M 54.375 -14.296875 L 24.65625 -14.296875 L 20.34375 0 L 1.84375 0 L 31.6875 -86.3125 L 47.34375 -86.3125 L 77.1875 0 L 58.6875 0 Z M 50.0625 -28.484375 L 39.578125 -63 L 28.96875 -28.484375 Z M 50.0625 -28.484375 "/></g></g></g><g fill="#167b68" fill-opacity="1"><g transform="translate(435.004884, 163.500003)"><g><path d="M 8.390625 -86.3125 L 26.140625 -86.3125 L 26.140625 -14.171875 L 66.828125 -14.171875 L 66.828125 0 L 8.390625 0 Z M 8.390625 -86.3125 "/></g></g></g><g fill="#167b68" fill-opacity="1"><g transform="translate(504.665388, 163.500003)"><g><path d="M 3.328125 -8.625 L 45.859375 -72.125 L 6.78125 -72.125 L 6.78125 -86.3125 L 68.0625 -86.3125 L 68.0625 -77.4375 L 25.890625 -14.171875 L 69.65625 -14.171875 L 69.65625 0 L 3.328125 0 Z M 3.328125 -8.625 "/></g></g></g><g fill="#167b68" fill-opacity="1"><g transform="translate(577.654795, 163.500003)"><g><path d="M 42.53125 1.234375 C 34.5625 1.234375 27.65625 -0.53125 21.8125 -4.0625 C 15.976562 -7.601562 11.519531 -12.703125 8.4375 -19.359375 C 5.363281 -26.015625 3.828125 -33.945312 3.828125 -43.15625 C 3.828125 -52.363281 5.363281 -60.296875 8.4375 -66.953125 C 11.519531 -73.609375 15.976562 -78.703125 21.8125 -82.234375 C 27.65625 -85.773438 34.5625 -87.546875 42.53125 -87.546875 C 50.59375 -87.546875 57.519531 -85.773438 63.3125 -82.234375 C 69.101562 -78.703125 73.539062 -73.609375 76.625 -66.953125 C 79.707031 -60.296875 81.25 -52.363281 81.25 -43.15625 C 81.25 -33.945312 79.707031 -26.015625 76.625 -19.359375 C 73.539062 -12.703125 69.101562 -7.601562 63.3125 -4.0625 C 57.519531 -0.53125 50.59375 1.234375 42.53125 1.234375 Z M 42.53125 -12.828125 C 49.113281 -12.828125 54.273438 -15.515625 58.015625 -20.890625 C 61.753906 -26.273438 63.625 -33.695312 63.625 -43.15625 C 63.625 -52.601562 61.753906 -60.019531 58.015625 -65.40625 C 54.273438 -70.789062 49.113281 -73.484375 42.53125 -73.484375 C 36.039062 -73.484375 30.925781 -70.789062 27.1875 -65.40625 C 23.445312 -60.019531 21.578125 -52.601562 21.578125 -43.15625 C 21.578125 -33.695312 23.445312 -26.273438 27.1875 -20.890625 C 30.925781 -15.515625 36.039062 -12.828125 42.53125 -12.828125 Z M 42.53125 -12.828125 "/></g></g></g><g fill="#167b68" fill-opacity="1"><g transform="translate(662.72692, 163.500003)"><g><path d="M 77.796875 -86.3125 L 77.796875 0 L 61.40625 0 L 26.015625 -56.71875 L 26.015625 0 L 8.390625 0 L 8.390625 -86.3125 L 25.515625 -86.3125 L 60.171875 -30.453125 L 60.171875 -86.3125 Z M 77.796875 -86.3125 "/></g></g></g></svg>