<svg xmlns="http://www.w3.org/2000/svg" xmlns:xlink="http://www.w3.org/1999/xlink" width="48" zoomAndPan="magnify" viewBox="0 0 36 36.000001" height="48" preserveAspectRatio="xMidYMid meet" version="1.0"><defs><clipPath id="0d572ff0da"><path d="M 0.488281 0 L 35.511719 0 L 35.511719 35.027344 L 0.488281 35.027344 Z M 0.488281 0 " clip-rule="nonzero"/></clipPath><clipPath id="8244ca0f7c"><path d="M 0.695312 11.570312 L 5.675781 11.570312 L 5.675781 15.875 L 0.695312 15.875 Z M 0.695312 11.570312 " clip-rule="nonzero"/></clipPath><clipPath id="349a6d25d0"><path d="M 3.179688 11.570312 C 1.804688 11.570312 0.695312 12.535156 0.695312 13.722656 C 0.695312 14.910156 1.804688 15.875 3.179688 15.875 C 4.550781 15.875 5.660156 14.910156 5.660156 13.722656 C 5.660156 12.535156 4.550781 11.570312 3.179688 11.570312 Z M 3.179688 11.570312 " clip-rule="nonzero"/></clipPath><clipPath id="a68afa0be8"><path d="M 0.695312 0.570312 L 5.675781 0.570312 L 5.675781 4.875 L 0.695312 4.875 Z M 0.695312 0.570312 " clip-rule="nonzero"/></clipPath><clipPath id="4f93833c6f"><path d="M 3.179688 0.570312 C 1.804688 0.570312 0.695312 1.535156 0.695312 2.722656 C 0.695312 3.910156 1.804688 4.875 3.179688 4.875 C 4.550781 4.875 5.660156 3.910156 5.660156 2.722656 C 5.660156 1.535156 4.550781 0.570312 3.179688 0.570312 Z M 3.179688 0.570312 " clip-rule="nonzero"/></clipPath><clipPath id="3958191646"><rect x="0" width="6" y="0" height="5"/></clipPath><clipPath id="4fb37b02da"><path d="M 2 6 L 8 6 L 8 11 L 2 11 Z M 2 6 " clip-rule="nonzero"/></clipPath><clipPath id="b5f8430d77"><path d="M 8.035156 8.777344 L 6.214844 11.230469 L 2.226562 8.269531 L 4.050781 5.816406 Z M 8.035156 8.777344 " clip-rule="nonzero"/></clipPath><clipPath id="2cd99f0ee1"><path d="M 7.125 10.003906 C 6.882812 10.328125 6.523438 10.542969 6.121094 10.605469 C 5.722656 10.664062 5.3125 10.5625 4.988281 10.320312 L 3.460938 9.1875 C 3.136719 8.945312 2.921875 8.582031 2.863281 8.183594 C 2.800781 7.78125 2.90625 7.375 3.144531 7.046875 C 3.386719 6.722656 3.75 6.507812 4.148438 6.449219 C 4.550781 6.390625 4.957031 6.492188 5.285156 6.734375 L 6.808594 7.867188 C 7.136719 8.109375 7.351562 8.46875 7.410156 8.871094 C 7.46875 9.269531 7.367188 9.679688 7.125 10.003906 Z M 7.125 10.003906 " clip-rule="nonzero"/></clipPath><clipPath id="07ac18aec3"><path d="M 0.792969 0.238281 L 5.695312 0.238281 L 5.695312 4.675781 L 0.792969 4.675781 Z M 0.792969 0.238281 " clip-rule="nonzero"/></clipPath><clipPath id="20a83bb296"><path d="M 6.035156 2.777344 L 4.214844 5.230469 L 0.226562 2.269531 L 2.050781 -0.183594 Z M 6.035156 2.777344 " clip-rule="nonzero"/></clipPath><clipPath id="b741fb1c8b"><path d="M 5.125 4.003906 C 4.882812 4.328125 4.523438 4.542969 4.121094 4.605469 C 3.722656 4.664062 3.3125 4.5625 2.988281 4.320312 L 1.460938 3.1875 C 1.136719 2.945312 0.921875 2.582031 0.863281 2.183594 C 0.800781 1.78125 0.90625 1.375 1.144531 1.046875 C 1.386719 0.722656 1.75 0.507812 2.148438 0.449219 C 2.550781 0.390625 2.957031 0.492188 3.285156 0.734375 L 4.808594 1.867188 C 5.136719 2.109375 5.351562 2.46875 5.410156 2.871094 C 5.46875 3.269531 5.367188 3.679688 5.125 4.003906 Z M 5.125 4.003906 " clip-rule="nonzero"/></clipPath><clipPath id="20e7865193"><rect x="0" width="6" y="0" height="5"/></clipPath><clipPath id="7436751785"><path d="M 6 2 L 11 2 L 11 8 L 6 8 Z M 6 2 " clip-rule="nonzero"/></clipPath><clipPath id="9fad4dbec4"><path d="M 10.792969 6.203125 L 8.597656 7.878906 L 5.636719 4.007812 L 7.828125 2.332031 Z M 10.792969 6.203125 " clip-rule="nonzero"/></clipPath><clipPath id="6904d1635f"><path d="M 9.695312 7.039062 C 9.402344 7.261719 9.035156 7.359375 8.675781 7.3125 C 8.3125 7.265625 7.980469 7.074219 7.757812 6.78125 L 6.480469 5.113281 C 6.257812 4.820312 6.160156 4.453125 6.207031 4.089844 C 6.257812 3.726562 6.449219 3.398438 6.738281 3.175781 C 7.027344 2.953125 7.394531 2.855469 7.757812 2.902344 C 8.121094 2.953125 8.449219 3.144531 8.671875 3.433594 L 9.953125 5.105469 C 10.175781 5.394531 10.273438 5.761719 10.222656 6.125 C 10.175781 6.488281 9.984375 6.816406 9.695312 7.039062 Z M 9.695312 7.039062 " clip-rule="nonzero"/></clipPath><clipPath id="2ec58b1de3"><path d="M 0.0585938 0.734375 L 4.496094 0.734375 L 4.496094 5.40625 L 0.0585938 5.40625 Z M 0.0585938 0.734375 " clip-rule="nonzero"/></clipPath><clipPath id="dda9cb2e4b"><path d="M 4.792969 4.203125 L 2.597656 5.878906 L -0.363281 2.007812 L 1.828125 0.332031 Z M 4.792969 4.203125 " clip-rule="nonzero"/></clipPath><clipPath id="bfee35f63f"><path d="M 3.695312 5.039062 C 3.402344 5.261719 3.035156 5.359375 2.675781 5.3125 C 2.3125 5.265625 1.980469 5.074219 1.757812 4.78125 L 0.480469 3.113281 C 0.257812 2.820312 0.160156 2.453125 0.207031 2.089844 C 0.257812 1.726562 0.449219 1.398438 0.738281 1.175781 C 1.027344 0.953125 1.394531 0.855469 1.757812 0.902344 C 2.121094 0.953125 2.449219 1.144531 2.671875 1.433594 L 3.953125 3.105469 C 4.175781 3.394531 4.273438 3.761719 4.222656 4.125 C 4.175781 4.488281 3.984375 4.816406 3.695312 5.039062 Z M 3.695312 5.039062 " clip-rule="nonzero"/></clipPath><clipPath id="ba38213a96"><rect x="0" width="5" y="0" height="6"/></clipPath><clipPath id="6f1137a55b"><path d="M 10 0.402344 L 14 0.402344 L 14 6 L 10 6 Z M 10 0.402344 " clip-rule="nonzero"/></clipPath><clipPath id="62c292033c"><path d="M 10.839844 0.78125 L 12.933594 0.566406 L 13.464844 5.753906 L 11.371094 5.96875 Z M 10.839844 0.78125 " clip-rule="nonzero"/></clipPath><clipPath id="082ac5cb89"><path d="M 11.886719 0.671875 C 12.464844 0.613281 12.984375 1.035156 13.042969 1.613281 L 13.359375 4.703125 C 13.417969 5.28125 12.996094 5.796875 12.417969 5.855469 C 11.839844 5.914062 11.324219 5.496094 11.265625 4.914062 L 10.949219 1.828125 C 10.890625 1.25 11.308594 0.730469 11.886719 0.671875 Z M 11.886719 0.671875 " clip-rule="nonzero"/></clipPath><clipPath id="7877e1293a"><path d="M 0.730469 0.402344 L 3.53125 0.402344 L 3.53125 6 L 0.730469 6 Z M 0.730469 0.402344 " clip-rule="nonzero"/></clipPath><clipPath id="dc70b027fe"><path d="M 0.839844 0.78125 L 2.933594 0.566406 L 3.464844 5.753906 L 1.371094 5.96875 Z M 0.839844 0.78125 " clip-rule="nonzero"/></clipPath><clipPath id="0ebf9583d8"><path d="M 1.886719 0.671875 C 2.464844 0.613281 2.984375 1.035156 3.042969 1.613281 L 3.359375 4.703125 C 3.417969 5.28125 2.996094 5.796875 2.417969 5.855469 C 1.839844 5.914062 1.324219 5.496094 1.265625 4.914062 L 0.949219 1.828125 C 0.890625 1.25 1.308594 0.730469 1.886719 0.671875 Z M 1.886719 0.671875 " clip-rule="nonzero"/></clipPath><clipPath id="5070e199a1"><rect x="0" width="4" y="0" height="6"/></clipPath><clipPath id="f7206550c6"><path d="M 22.625 17.132812 L 27.605469 17.132812 L 27.605469 21.4375 L 22.625 21.4375 Z M 22.625 17.132812 " clip-rule="nonzero"/></clipPath><clipPath id="4c30154cc2"><path d="M 25.121094 21.4375 C 26.492188 21.4375 27.605469 20.472656 27.605469 19.285156 C 27.605469 18.097656 26.492188 17.132812 25.121094 17.132812 C 23.75 17.132812 22.636719 18.097656 22.636719 19.285156 C 22.636719 20.472656 23.75 21.4375 25.121094 21.4375 Z M 25.121094 21.4375 " clip-rule="nonzero"/></clipPath><clipPath id="0300066711"><path d="M 0.625 0.132812 L 5.605469 0.132812 L 5.605469 4.4375 L 0.625 4.4375 Z M 0.625 0.132812 " clip-rule="nonzero"/></clipPath><clipPath id="db969ba282"><path d="M 3.121094 4.4375 C 4.492188 4.4375 5.605469 3.472656 5.605469 2.285156 C 5.605469 1.097656 4.492188 0.132812 3.121094 0.132812 C 1.75 0.132812 0.636719 1.097656 0.636719 2.285156 C 0.636719 3.472656 1.75 4.4375 3.121094 4.4375 Z M 3.121094 4.4375 " clip-rule="nonzero"/></clipPath><clipPath id="b7b23d0461"><rect x="0" width="6" y="0" height="5"/></clipPath><clipPath id="c4c87f8f2a"><path d="M 20 22 L 26 22 L 26 27 L 20 27 Z M 20 22 " clip-rule="nonzero"/></clipPath><clipPath id="a1563d180d"><path d="M 20.257812 24.3125 L 22.011719 21.808594 L 26.078125 24.65625 L 24.324219 27.160156 Z M 20.257812 24.3125 " clip-rule="nonzero"/></clipPath><clipPath id="2393362d21"><path d="M 21.132812 23.058594 C 21.367188 22.726562 21.71875 22.503906 22.121094 22.433594 C 22.519531 22.363281 22.929688 22.453125 23.261719 22.683594 L 24.816406 23.777344 C 25.148438 24.007812 25.375 24.363281 25.445312 24.761719 C 25.515625 25.160156 25.425781 25.570312 25.191406 25.902344 C 24.960938 26.234375 24.605469 26.460938 24.207031 26.53125 C 23.804688 26.601562 23.394531 26.511719 23.0625 26.277344 L 21.507812 25.1875 C 21.175781 24.957031 20.949219 24.601562 20.878906 24.203125 C 20.808594 23.800781 20.902344 23.390625 21.132812 23.058594 Z M 21.132812 23.058594 " clip-rule="nonzero"/></clipPath><clipPath id="84ab456aaf"><path d="M 0.773438 0.351562 L 5.675781 0.351562 L 5.675781 4.789062 L 0.773438 4.789062 Z M 0.773438 0.351562 " clip-rule="nonzero"/></clipPath><clipPath id="76c4433845"><path d="M 0.257812 2.3125 L 2.011719 -0.191406 L 6.078125 2.65625 L 4.324219 5.160156 Z M 0.257812 2.3125 " clip-rule="nonzero"/></clipPath><clipPath id="b0c0b3b8d8"><path d="M 1.132812 1.058594 C 1.367188 0.726562 1.71875 0.503906 2.121094 0.433594 C 2.519531 0.363281 2.929688 0.453125 3.261719 0.683594 L 4.816406 1.777344 C 5.148438 2.007812 5.375 2.363281 5.445312 2.761719 C 5.515625 3.160156 5.425781 3.570312 5.191406 3.902344 C 4.960938 4.234375 4.605469 4.460938 4.207031 4.53125 C 3.804688 4.601562 3.394531 4.511719 3.0625 4.277344 L 1.507812 3.1875 C 1.175781 2.957031 0.949219 2.601562 0.878906 2.203125 C 0.808594 1.800781 0.902344 1.390625 1.132812 1.058594 Z M 1.132812 1.058594 " clip-rule="nonzero"/></clipPath><clipPath id="9cfe436e66"><rect x="0" width="6" y="0" height="5"/></clipPath><clipPath id="6c36735472"><path d="M 18 25 L 23 25 L 23 31 L 18 31 Z M 18 25 " clip-rule="nonzero"/></clipPath><clipPath id="ec9085f586"><path d="M 17.527344 26.761719 L 19.746094 25.121094 L 22.640625 29.042969 L 20.421875 30.683594 Z M 17.527344 26.761719 " clip-rule="nonzero"/></clipPath><clipPath id="91d59e32ac"><path d="M 18.636719 25.941406 C 18.929688 25.722656 19.300781 25.632812 19.660156 25.6875 C 20.023438 25.742188 20.347656 25.9375 20.566406 26.230469 L 21.816406 27.925781 C 22.035156 28.21875 22.125 28.589844 22.070312 28.949219 C 22.015625 29.3125 21.820312 29.640625 21.527344 29.855469 C 21.230469 30.074219 20.863281 30.164062 20.5 30.109375 C 20.140625 30.054688 19.8125 29.859375 19.597656 29.566406 L 18.347656 27.871094 C 18.128906 27.578125 18.035156 27.207031 18.089844 26.847656 C 18.144531 26.484375 18.34375 26.160156 18.636719 25.941406 Z M 18.636719 25.941406 " clip-rule="nonzero"/></clipPath><clipPath id="5b634c2369"><path d="M 0 0.621094 L 4.171875 0.621094 L 4.171875 5.289062 L 0 5.289062 Z M 0 0.621094 " clip-rule="nonzero"/></clipPath><clipPath id="9dff61c74a"><path d="M -0.472656 1.761719 L 1.746094 0.121094 L 4.640625 4.042969 L 2.421875 5.683594 Z M -0.472656 1.761719 " clip-rule="nonzero"/></clipPath><clipPath id="2519facade"><path d="M 0.636719 0.941406 C 0.929688 0.722656 1.300781 0.632812 1.660156 0.6875 C 2.023438 0.742188 2.347656 0.9375 2.566406 1.230469 L 3.816406 2.925781 C 4.035156 3.21875 4.125 3.589844 4.070312 3.949219 C 4.015625 4.3125 3.820312 4.640625 3.527344 4.855469 C 3.230469 5.074219 2.863281 5.164062 2.5 5.109375 C 2.140625 5.054688 1.8125 4.859375 1.597656 4.566406 L 0.347656 2.871094 C 0.128906 2.578125 0.0351562 2.207031 0.0898438 1.847656 C 0.144531 1.484375 0.34375 1.160156 0.636719 0.941406 Z M 0.636719 0.941406 " clip-rule="nonzero"/></clipPath><clipPath id="2afd4baa16"><rect x="0" width="5" y="0" height="6"/></clipPath><clipPath id="ea435ae008"><path d="M 15 27 L 18 27 L 18 32 L 15 32 Z M 15 27 " clip-rule="nonzero"/></clipPath><clipPath id="39a414dfb4"><path d="M 17.757812 31.785156 L 15.671875 32.078125 L 15.007812 27.304688 L 17.09375 27.015625 Z M 17.757812 31.785156 " clip-rule="nonzero"/></clipPath><clipPath id="21784e0a78"><path d="M 16.714844 31.933594 C 16.140625 32.011719 15.609375 31.609375 15.527344 31.035156 L 15.152344 28.351562 C 15.074219 27.773438 15.476562 27.242188 16.050781 27.164062 C 16.625 27.082031 17.160156 27.484375 17.238281 28.058594 L 17.613281 30.746094 C 17.691406 31.320312 17.292969 31.851562 16.714844 31.933594 Z M 16.714844 31.933594 " clip-rule="nonzero"/></clipPath><clipPath id="412076ecee"><path d="M 0 0.0234375 L 2.734375 0.0234375 L 2.734375 5 L 0 5 Z M 0 0.0234375 " clip-rule="nonzero"/></clipPath><clipPath id="084b479bcc"><path d="M 2.757812 4.785156 L 0.671875 5.078125 L 0.0078125 0.304688 L 2.09375 0.015625 Z M 2.757812 4.785156 " clip-rule="nonzero"/></clipPath><clipPath id="77f81bf9e5"><path d="M 1.714844 4.933594 C 1.140625 5.011719 0.609375 4.609375 0.527344 4.035156 L 0.152344 1.351562 C 0.0742188 0.773438 0.476562 0.242188 1.050781 0.164062 C 1.625 0.0820312 2.160156 0.484375 2.238281 1.058594 L 2.613281 3.746094 C 2.691406 4.320312 2.292969 4.851562 1.714844 4.933594 Z M 1.714844 4.933594 " clip-rule="nonzero"/></clipPath><clipPath id="4680e2b6ad"><rect x="0" width="3" y="0" height="5"/></clipPath><clipPath id="f2bda84433"><path d="M 14 0.402344 L 18 0.402344 L 18 6 L 14 6 Z M 14 0.402344 " clip-rule="nonzero"/></clipPath><clipPath id="911b23afa1"><path d="M 15.238281 0.496094 L 17.332031 0.714844 L 16.789062 5.898438 L 14.695312 5.679688 Z M 15.238281 0.496094 " clip-rule="nonzero"/></clipPath><clipPath id="0e9bf29e7c"><path d="M 16.285156 0.605469 C 16.863281 0.664062 17.28125 1.183594 17.222656 1.761719 L 16.898438 4.851562 C 16.839844 5.429688 16.320312 5.847656 15.742188 5.785156 C 15.164062 5.726562 14.746094 5.207031 14.804688 4.628906 L 15.128906 1.542969 C 15.1875 0.964844 15.707031 0.542969 16.285156 0.605469 Z M 16.285156 0.605469 " clip-rule="nonzero"/></clipPath><clipPath id="dbbd9fe2f6"><path d="M 0.699219 0.402344 L 3.503906 0.402344 L 3.503906 6 L 0.699219 6 Z M 0.699219 0.402344 " clip-rule="nonzero"/></clipPath><clipPath id="005b833778"><path d="M 1.238281 0.496094 L 3.332031 0.714844 L 2.789062 5.898438 L 0.695312 5.679688 Z M 1.238281 0.496094 " clip-rule="nonzero"/></clipPath><clipPath id="a922a1d96e"><path d="M 2.285156 0.605469 C 2.863281 0.664062 3.28125 1.183594 3.222656 1.761719 L 2.898438 4.851562 C 2.839844 5.429688 2.320312 5.847656 1.742188 5.785156 C 1.164062 5.726562 0.746094 5.207031 0.804688 4.628906 L 1.128906 1.542969 C 1.1875 0.964844 1.707031 0.542969 2.285156 0.605469 Z M 2.285156 0.605469 " clip-rule="nonzero"/></clipPath><clipPath id="8071e6b156"><rect x="0" width="4" y="0" height="6"/></clipPath><clipPath id="cbed108390"><path d="M 17 2 L 22 2 L 22 8 L 17 8 Z M 17 2 " clip-rule="nonzero"/></clipPath><clipPath id="56a000a6c9"><path d="M 19.550781 7.878906 L 17.332031 6.234375 L 20.234375 2.320312 L 22.453125 3.960938 Z M 19.550781 7.878906 " clip-rule="nonzero"/></clipPath><clipPath id="9a274aecb3"><path d="M 18.441406 7.058594 C 18.148438 6.839844 17.953125 6.515625 17.898438 6.152344 C 17.84375 5.789062 17.9375 5.421875 18.152344 5.125 L 19.40625 3.433594 C 19.625 3.140625 19.949219 2.945312 20.3125 2.890625 C 20.675781 2.835938 21.042969 2.929688 21.335938 3.148438 C 21.632812 3.367188 21.828125 3.691406 21.882812 4.054688 C 21.933594 4.414062 21.84375 4.785156 21.625 5.078125 L 20.371094 6.769531 C 20.15625 7.0625 19.828125 7.261719 19.464844 7.3125 C 19.105469 7.367188 18.734375 7.277344 18.441406 7.058594 Z M 18.441406 7.058594 " clip-rule="nonzero"/></clipPath><clipPath id="840cfe3baf"><path d="M 0.734375 0.734375 L 4.941406 0.734375 L 4.941406 5.40625 L 0.734375 5.40625 Z M 0.734375 0.734375 " clip-rule="nonzero"/></clipPath><clipPath id="9a882c7f64"><path d="M 2.550781 5.878906 L 0.332031 4.234375 L 3.234375 0.320312 L 5.453125 1.960938 Z M 2.550781 5.878906 " clip-rule="nonzero"/></clipPath><clipPath id="bdf4960e93"><path d="M 1.441406 5.058594 C 1.148438 4.839844 0.953125 4.515625 0.898438 4.152344 C 0.84375 3.789062 0.9375 3.421875 1.152344 3.125 L 2.40625 1.433594 C 2.625 1.140625 2.949219 0.945312 3.3125 0.890625 C 3.675781 0.835938 4.042969 0.929688 4.335938 1.148438 C 4.632812 1.367188 4.828125 1.691406 4.882812 2.054688 C 4.933594 2.414062 4.84375 2.785156 4.625 3.078125 L 3.371094 4.769531 C 3.15625 5.0625 2.828125 5.261719 2.464844 5.3125 C 2.105469 5.367188 1.734375 5.277344 1.441406 5.058594 Z M 1.441406 5.058594 " clip-rule="nonzero"/></clipPath><clipPath id="a261a3f444"><rect x="0" width="5" y="0" height="6"/></clipPath><clipPath id="84d0bb1ba1"><path d="M 20 6 L 26 6 L 26 11 L 20 11 Z M 20 6 " clip-rule="nonzero"/></clipPath><clipPath id="82b7ee4249"><path d="M 21.769531 11.175781 L 19.925781 8.738281 L 23.882812 5.742188 L 25.726562 8.179688 Z M 21.769531 11.175781 " clip-rule="nonzero"/></clipPath><clipPath id="6ff73bc614"><path d="M 20.847656 9.957031 C 20.601562 9.632812 20.496094 9.226562 20.550781 8.828125 C 20.605469 8.425781 20.820312 8.0625 21.140625 7.816406 L 22.65625 6.671875 C 22.980469 6.425781 23.386719 6.320312 23.789062 6.375 C 24.191406 6.429688 24.550781 6.644531 24.796875 6.964844 C 25.042969 7.289062 25.148438 7.695312 25.09375 8.097656 C 25.035156 8.5 24.824219 8.863281 24.5 9.105469 L 22.988281 10.253906 C 22.664062 10.496094 22.257812 10.605469 21.855469 10.550781 C 21.453125 10.492188 21.089844 10.28125 20.847656 9.957031 Z M 20.847656 9.957031 " clip-rule="nonzero"/></clipPath><clipPath id="2716966e42"><path d="M 0.304688 0.238281 L 5.207031 0.238281 L 5.207031 4.675781 L 0.304688 4.675781 Z M 0.304688 0.238281 " clip-rule="nonzero"/></clipPath><clipPath id="f281da76bd"><path d="M 1.769531 5.175781 L -0.0742188 2.738281 L 3.882812 -0.257812 L 5.726562 2.179688 Z M 1.769531 5.175781 " clip-rule="nonzero"/></clipPath><clipPath id="a9ff71fe0c"><path d="M 0.847656 3.957031 C 0.601562 3.632812 0.496094 3.226562 0.550781 2.828125 C 0.605469 2.425781 0.820312 2.0625 1.140625 1.816406 L 2.65625 0.671875 C 2.980469 0.425781 3.386719 0.320312 3.789062 0.375 C 4.191406 0.429688 4.550781 0.644531 4.796875 0.964844 C 5.042969 1.289062 5.148438 1.695312 5.09375 2.097656 C 5.035156 2.5 4.824219 2.863281 4.5 3.105469 L 2.988281 4.253906 C 2.664062 4.496094 2.257812 4.605469 1.855469 4.550781 C 1.453125 4.492188 1.089844 4.28125 0.847656 3.957031 Z M 0.847656 3.957031 " clip-rule="nonzero"/></clipPath><clipPath id="cd8f141b2b"><rect x="0" width="6" y="0" height="5"/></clipPath><clipPath id="c8819e5a3d"><path d="M 22.445312 11.570312 L 27.425781 11.570312 L 27.425781 15.875 L 22.445312 15.875 Z M 22.445312 11.570312 " clip-rule="nonzero"/></clipPath><clipPath id="f09b0abe6a"><path d="M 24.929688 11.570312 C 23.558594 11.570312 22.445312 12.535156 22.445312 13.722656 C 22.445312 14.910156 23.558594 15.875 24.929688 15.875 C 26.300781 15.875 27.414062 14.910156 27.414062 13.722656 C 27.414062 12.535156 26.300781 11.570312 24.929688 11.570312 Z M 24.929688 11.570312 " clip-rule="nonzero"/></clipPath><clipPath id="bce608c934"><path d="M 0.445312 0.570312 L 5.425781 0.570312 L 5.425781 4.875 L 0.445312 4.875 Z M 0.445312 0.570312 " clip-rule="nonzero"/></clipPath><clipPath id="2b4aeaab21"><path d="M 2.929688 0.570312 C 1.558594 0.570312 0.445312 1.535156 0.445312 2.722656 C 0.445312 3.910156 1.558594 4.875 2.929688 4.875 C 4.300781 4.875 5.414062 3.910156 5.414062 2.722656 C 5.414062 1.535156 4.300781 0.570312 2.929688 0.570312 Z M 2.929688 0.570312 " clip-rule="nonzero"/></clipPath><clipPath id="b1dedd4302"><rect x="0" width="6" y="0" height="5"/></clipPath><clipPath id="5c085a0281"><path d="M 10 27 L 14 27 L 14 32 L 10 32 Z M 10 27 " clip-rule="nonzero"/></clipPath><clipPath id="44d3fede9d"><path d="M 12.910156 32.078125 L 10.816406 31.859375 L 11.320312 27.066406 L 13.414062 27.285156 Z M 12.910156 32.078125 " clip-rule="nonzero"/></clipPath><clipPath id="c686618a8a"><path d="M 11.863281 31.96875 C 11.285156 31.90625 10.867188 31.390625 10.925781 30.8125 L 11.207031 28.113281 C 11.269531 27.535156 11.789062 27.117188 12.367188 27.175781 C 12.945312 27.238281 13.363281 27.753906 13.304688 28.332031 L 13.019531 31.03125 C 12.960938 31.609375 12.441406 32.027344 11.863281 31.96875 Z M 11.863281 31.96875 " clip-rule="nonzero"/></clipPath><clipPath id="7732a2f3c2"><path d="M 0.730469 0.0234375 L 3.53125 0.0234375 L 3.53125 5 L 0.730469 5 Z M 0.730469 0.0234375 " clip-rule="nonzero"/></clipPath><clipPath id="2a489e9294"><path d="M 2.910156 5.078125 L 0.816406 4.859375 L 1.320312 0.0664062 L 3.414062 0.285156 Z M 2.910156 5.078125 " clip-rule="nonzero"/></clipPath><clipPath id="3af64bc469"><path d="M 1.863281 4.96875 C 1.285156 4.90625 0.867188 4.390625 0.925781 3.8125 L 1.207031 1.113281 C 1.269531 0.535156 1.789062 0.117188 2.367188 0.175781 C 2.945312 0.238281 3.363281 0.753906 3.304688 1.332031 L 3.019531 4.03125 C 2.960938 4.609375 2.441406 5.027344 1.863281 4.96875 Z M 1.863281 4.96875 " clip-rule="nonzero"/></clipPath><clipPath id="895aa3a85b"><rect x="0" width="4" y="0" height="5"/></clipPath><clipPath id="a98a49cbfa"><path d="M 6 25 L 11 25 L 11 30 L 6 30 Z M 6 25 " clip-rule="nonzero"/></clipPath><clipPath id="1db6a98fb1"><path d="M 8.332031 25.171875 L 10.550781 26.8125 L 7.796875 30.53125 L 5.578125 28.886719 Z M 8.332031 25.171875 " clip-rule="nonzero"/></clipPath><clipPath id="7f3127f1bb"><path d="M 9.441406 25.992188 C 9.738281 26.210938 9.933594 26.535156 9.988281 26.898438 C 10.039062 27.261719 9.949219 27.628906 9.730469 27.921875 L 8.625 29.414062 C 8.40625 29.710938 8.082031 29.90625 7.71875 29.957031 C 7.359375 30.011719 6.988281 29.921875 6.695312 29.703125 C 6.402344 29.484375 6.203125 29.160156 6.152344 28.796875 C 6.097656 28.433594 6.1875 28.066406 6.40625 27.773438 L 7.511719 26.28125 C 7.730469 25.984375 8.054688 25.789062 8.417969 25.734375 C 8.78125 25.683594 9.148438 25.773438 9.441406 25.992188 Z M 9.441406 25.992188 " clip-rule="nonzero"/></clipPath><clipPath id="9fab65e6e2"><path d="M 0.0585938 0.621094 L 4.265625 0.621094 L 4.265625 5 L 0.0585938 5 Z M 0.0585938 0.621094 " clip-rule="nonzero"/></clipPath><clipPath id="9dffc410d6"><path d="M 2.332031 0.171875 L 4.550781 1.8125 L 1.796875 5.53125 L -0.421875 3.886719 Z M 2.332031 0.171875 " clip-rule="nonzero"/></clipPath><clipPath id="f087fb09d3"><path d="M 3.441406 0.992188 C 3.738281 1.210938 3.933594 1.535156 3.988281 1.898438 C 4.039062 2.261719 3.949219 2.628906 3.730469 2.921875 L 2.625 4.414062 C 2.40625 4.710938 2.082031 4.90625 1.71875 4.957031 C 1.359375 5.011719 0.988281 4.921875 0.695312 4.703125 C 0.402344 4.484375 0.203125 4.160156 0.152344 3.796875 C 0.0976562 3.433594 0.1875 3.066406 0.40625 2.773438 L 1.511719 1.28125 C 1.730469 0.984375 2.054688 0.789062 2.417969 0.734375 C 2.78125 0.683594 3.148438 0.773438 3.441406 0.992188 Z M 3.441406 0.992188 " clip-rule="nonzero"/></clipPath><clipPath id="63b6f59261"><rect x="0" width="5" y="0" height="5"/></clipPath><clipPath id="6f9b112a28"><path d="M 2 22 L 8 22 L 8 27 L 2 27 Z M 2 22 " clip-rule="nonzero"/></clipPath><clipPath id="6e11e166c2"><path d="M 6.082031 21.753906 L 7.925781 24.1875 L 4.117188 27.070312 L 2.273438 24.632812 Z M 6.082031 21.753906 " clip-rule="nonzero"/></clipPath><clipPath id="916c7f1fa6"><path d="M 7.003906 22.96875 C 7.246094 23.292969 7.355469 23.699219 7.296875 24.101562 C 7.242188 24.503906 7.03125 24.867188 6.707031 25.109375 L 5.339844 26.144531 C 5.015625 26.390625 4.609375 26.496094 4.210938 26.441406 C 3.808594 26.386719 3.445312 26.171875 3.199219 25.851562 C 2.957031 25.527344 2.847656 25.121094 2.90625 24.71875 C 2.960938 24.316406 3.171875 23.953125 3.496094 23.710938 L 4.863281 22.675781 C 5.1875 22.429688 5.59375 22.324219 5.992188 22.378906 C 6.394531 22.433594 6.757812 22.648438 7.003906 22.96875 Z M 7.003906 22.96875 " clip-rule="nonzero"/></clipPath><clipPath id="c121b26f02"><path d="M 0.792969 0.117188 L 5.460938 0.117188 L 5.460938 4.554688 L 0.792969 4.554688 Z M 0.792969 0.117188 " clip-rule="nonzero"/></clipPath><clipPath id="bdba84a097"><path d="M 4.082031 -0.246094 L 5.925781 2.1875 L 2.117188 5.070312 L 0.273438 2.632812 Z M 4.082031 -0.246094 " clip-rule="nonzero"/></clipPath><clipPath id="4fe38b0c35"><path d="M 5.003906 0.96875 C 5.246094 1.292969 5.355469 1.699219 5.296875 2.101562 C 5.242188 2.503906 5.03125 2.867188 4.707031 3.109375 L 3.339844 4.144531 C 3.015625 4.390625 2.609375 4.496094 2.210938 4.441406 C 1.808594 4.386719 1.445312 4.171875 1.199219 3.851562 C 0.957031 3.527344 0.847656 3.121094 0.90625 2.71875 C 0.960938 2.316406 1.171875 1.953125 1.496094 1.710938 L 2.863281 0.675781 C 3.1875 0.429688 3.59375 0.324219 3.992188 0.378906 C 4.394531 0.433594 4.757812 0.648438 5.003906 0.96875 Z M 5.003906 0.96875 " clip-rule="nonzero"/></clipPath><clipPath id="9645aec319"><rect x="0" width="6" y="0" height="5"/></clipPath><clipPath id="a4b78b1997"><path d="M 0.679688 17.089844 L 5.660156 17.089844 L 5.660156 21.394531 L 0.679688 21.394531 Z M 0.679688 17.089844 " clip-rule="nonzero"/></clipPath><clipPath id="a66999b747"><path d="M 3.179688 21.394531 C 4.550781 21.394531 5.660156 20.429688 5.660156 19.242188 C 5.660156 18.050781 4.550781 17.089844 3.179688 17.089844 C 1.804688 17.089844 0.695312 18.050781 0.695312 19.242188 C 0.695312 20.429688 1.804688 21.394531 3.179688 21.394531 Z M 3.179688 21.394531 " clip-rule="nonzero"/></clipPath><clipPath id="58d80105a9"><path d="M 0.691406 0.0898438 L 5.660156 0.0898438 L 5.660156 4.394531 L 0.691406 4.394531 Z M 0.691406 0.0898438 " clip-rule="nonzero"/></clipPath><clipPath id="6a36b6b629"><path d="M 3.179688 4.394531 C 4.550781 4.394531 5.660156 3.429688 5.660156 2.242188 C 5.660156 1.050781 4.550781 0.0898438 3.179688 0.0898438 C 1.804688 0.0898438 0.695312 1.050781 0.695312 2.242188 C 0.695312 3.429688 1.804688 4.394531 3.179688 4.394531 Z M 3.179688 4.394531 " clip-rule="nonzero"/></clipPath><clipPath id="e3a87234a3"><rect x="0" width="6" y="0" height="5"/></clipPath><clipPath id="c31c34caf7"><rect x="0" width="28" y="0" height="33"/></clipPath></defs><g clip-path="url(#0d572ff0da)"><path fill="#ffffff" d="M 0.488281 0 L 35.511719 0 L 35.511719 35.027344 L 0.488281 35.027344 Z M 0.488281 0 " fill-opacity="1" fill-rule="nonzero"/><path fill="#EAFBF6" d="M 0.488281 0 L 35.511719 0 L 35.511719 35.027344 L 0.488281 35.027344 Z M 0.488281 0 " fill-opacity="1" fill-rule="nonzero"/></g><g transform="matrix(1, 0, 0, 1, 4, 1)"><g clip-path="url(#c31c34caf7)"><g clip-path="url(#8244ca0f7c)"><g clip-path="url(#349a6d25d0)"><g transform="matrix(1, 0, 0, 1, 0, 11)"><g clip-path="url(#3958191646)"><g clip-path="url(#a68afa0be8)"><g clip-path="url(#4f93833c6f)"><path fill="#AAB8BA" d="M 0.695312 0.570312 L 5.65625 0.570312 L 5.65625 4.875 L 0.695312 4.875 Z M 0.695312 0.570312 " fill-opacity="1" fill-rule="nonzero"/></g></g></g></g></g></g><g clip-path="url(#4fb37b02da)"><g clip-path="url(#b5f8430d77)"><g clip-path="url(#2cd99f0ee1)"><g transform="matrix(1, 0, 0, 1, 2, 6)"><g clip-path="url(#20e7865193)"><g clip-path="url(#07ac18aec3)"><g clip-path="url(#20a83bb296)"><g clip-path="url(#b741fb1c8b)"><path fill="#AAB8BA" d="M 6.035156 2.777344 L 4.214844 5.230469 L 0.238281 2.277344 L 2.058594 -0.175781 Z M 6.035156 2.777344 " fill-opacity="1" fill-rule="nonzero"/></g></g></g></g></g></g></g></g><g clip-path="url(#7436751785)"><g clip-path="url(#9fad4dbec4)"><g clip-path="url(#6904d1635f)"><g transform="matrix(1, 0, 0, 1, 6, 2)"><g clip-path="url(#ba38213a96)"><g clip-path="url(#2ec58b1de3)"><g clip-path="url(#dda9cb2e4b)"><g clip-path="url(#bfee35f63f)"><path fill="#AAB8BA" d="M 4.792969 4.203125 L 2.597656 5.878906 L -0.355469 2.015625 L 1.835938 0.339844 Z M 4.792969 4.203125 " fill-opacity="1" fill-rule="nonzero"/></g></g></g></g></g></g></g></g><g clip-path="url(#6f1137a55b)"><g clip-path="url(#62c292033c)"><g clip-path="url(#082ac5cb89)"><g transform="matrix(1, 0, 0, 1, 10, 0.000000000000010436)"><g clip-path="url(#5070e199a1)"><g clip-path="url(#7877e1293a)"><g clip-path="url(#dc70b027fe)"><g clip-path="url(#0ebf9583d8)"><path fill="#AAB8BA" d="M 0.839844 0.78125 L 2.933594 0.566406 L 3.464844 5.753906 L 1.371094 5.96875 Z M 0.839844 0.78125 " fill-opacity="1" fill-rule="nonzero"/></g></g></g></g></g></g></g></g><g clip-path="url(#f7206550c6)"><g clip-path="url(#4c30154cc2)"><g transform="matrix(1, 0, 0, 1, 22, 17)"><g clip-path="url(#b7b23d0461)"><g clip-path="url(#0300066711)"><g clip-path="url(#db969ba282)"><path fill="#AAB8BA" d="M 5.605469 4.4375 L 0.640625 4.4375 L 0.640625 0.132812 L 5.605469 0.132812 Z M 5.605469 4.4375 " fill-opacity="1" fill-rule="nonzero"/></g></g></g></g></g></g><g clip-path="url(#c4c87f8f2a)"><g clip-path="url(#a1563d180d)"><g clip-path="url(#2393362d21)"><g transform="matrix(1, 0, 0, 1, 20, 22)"><g clip-path="url(#9cfe436e66)"><g clip-path="url(#84ab456aaf)"><g clip-path="url(#76c4433845)"><g clip-path="url(#b0c0b3b8d8)"><path fill="#AAB8BA" d="M 0.257812 2.3125 L 2.011719 -0.191406 L 6.066406 2.652344 L 4.3125 5.152344 Z M 0.257812 2.3125 " fill-opacity="1" fill-rule="nonzero"/></g></g></g></g></g></g></g></g><g clip-path="url(#6c36735472)"><g clip-path="url(#ec9085f586)"><g clip-path="url(#91d59e32ac)"><g transform="matrix(1, 0, 0, 1, 18, 25)"><g clip-path="url(#2afd4baa16)"><g clip-path="url(#5b634c2369)"><g clip-path="url(#9dff61c74a)"><g clip-path="url(#2519facade)"><path fill="#AAB8BA" d="M -0.472656 1.761719 L 1.746094 0.121094 L 4.636719 4.035156 L 2.414062 5.675781 Z M -0.472656 1.761719 " fill-opacity="1" fill-rule="nonzero"/></g></g></g></g></g></g></g></g><g clip-path="url(#ea435ae008)"><g clip-path="url(#39a414dfb4)"><g clip-path="url(#21784e0a78)"><g transform="matrix(1, 0, 0, 1, 15, 27)"><g clip-path="url(#4680e2b6ad)"><g clip-path="url(#412076ecee)"><g clip-path="url(#084b479bcc)"><g clip-path="url(#77f81bf9e5)"><path fill="#AAB8BA" d="M 2.757812 4.785156 L 0.671875 5.078125 L 0.0078125 0.304688 L 2.09375 0.015625 Z M 2.757812 4.785156 " fill-opacity="1" fill-rule="nonzero"/></g></g></g></g></g></g></g></g><g clip-path="url(#f2bda84433)"><g clip-path="url(#911b23afa1)"><g clip-path="url(#0e9bf29e7c)"><g transform="matrix(1, 0, 0, 1, 14, 0.000000000000010436)"><g clip-path="url(#8071e6b156)"><g clip-path="url(#dbbd9fe2f6)"><g clip-path="url(#005b833778)"><g clip-path="url(#a922a1d96e)"><path fill="#AAB8BA" d="M 1.238281 0.496094 L 3.332031 0.714844 L 2.789062 5.898438 L 0.695312 5.679688 Z M 1.238281 0.496094 " fill-opacity="1" fill-rule="nonzero"/></g></g></g></g></g></g></g></g><g clip-path="url(#cbed108390)"><g clip-path="url(#56a000a6c9)"><g clip-path="url(#9a274aecb3)"><g transform="matrix(1, 0, 0, 1, 17, 2)"><g clip-path="url(#a261a3f444)"><g clip-path="url(#840cfe3baf)"><g clip-path="url(#9a882c7f64)"><g clip-path="url(#bdf4960e93)"><path fill="#AAB8BA" d="M 2.550781 5.878906 L 0.332031 4.234375 L 3.226562 0.328125 L 5.445312 1.96875 Z M 2.550781 5.878906 " fill-opacity="1" fill-rule="nonzero"/></g></g></g></g></g></g></g></g><g clip-path="url(#84d0bb1ba1)"><g clip-path="url(#82b7ee4249)"><g clip-path="url(#6ff73bc614)"><g transform="matrix(1, 0, 0, 1, 20, 6)"><g clip-path="url(#cd8f141b2b)"><g clip-path="url(#2716966e42)"><g clip-path="url(#f281da76bd)"><g clip-path="url(#a9ff71fe0c)"><path fill="#AAB8BA" d="M 1.769531 5.175781 L -0.0742188 2.738281 L 3.871094 -0.25 L 5.71875 2.183594 Z M 1.769531 5.175781 " fill-opacity="1" fill-rule="nonzero"/></g></g></g></g></g></g></g></g><g clip-path="url(#c8819e5a3d)"><g clip-path="url(#f09b0abe6a)"><g transform="matrix(1, 0, 0, 1, 22, 11)"><g clip-path="url(#b1dedd4302)"><g clip-path="url(#bce608c934)"><g clip-path="url(#2b4aeaab21)"><path fill="#AAB8BA" d="M 0.445312 0.570312 L 5.410156 0.570312 L 5.410156 4.875 L 0.445312 4.875 Z M 0.445312 0.570312 " fill-opacity="1" fill-rule="nonzero"/></g></g></g></g></g></g><g clip-path="url(#5c085a0281)"><g clip-path="url(#44d3fede9d)"><g clip-path="url(#c686618a8a)"><g transform="matrix(1, 0, 0, 1, 10, 27)"><g clip-path="url(#895aa3a85b)"><g clip-path="url(#7732a2f3c2)"><g clip-path="url(#2a489e9294)"><g clip-path="url(#3af64bc469)"><path fill="#AAB8BA" d="M 2.910156 5.078125 L 0.816406 4.859375 L 1.320312 0.0664062 L 3.414062 0.285156 Z M 2.910156 5.078125 " fill-opacity="1" fill-rule="nonzero"/></g></g></g></g></g></g></g></g><g clip-path="url(#a98a49cbfa)"><g clip-path="url(#1db6a98fb1)"><g clip-path="url(#7f3127f1bb)"><g transform="matrix(1, 0, 0, 1, 6, 25)"><g clip-path="url(#63b6f59261)"><g clip-path="url(#9fab65e6e2)"><g clip-path="url(#9dffc410d6)"><g clip-path="url(#f087fb09d3)"><path fill="#AAB8BA" d="M 2.332031 0.171875 L 4.550781 1.8125 L 1.804688 5.523438 L -0.414062 3.878906 Z M 2.332031 0.171875 " fill-opacity="1" fill-rule="nonzero"/></g></g></g></g></g></g></g></g><g clip-path="url(#6f9b112a28)"><g clip-path="url(#6e11e166c2)"><g clip-path="url(#916c7f1fa6)"><g transform="matrix(1, 0, 0, 1, 2, 22)"><g clip-path="url(#9645aec319)"><g clip-path="url(#c121b26f02)"><g clip-path="url(#bdba84a097)"><g clip-path="url(#4fe38b0c35)"><path fill="#AAB8BA" d="M 4.082031 -0.246094 L 5.925781 2.1875 L 2.117188 5.070312 L 0.273438 2.632812 Z M 4.082031 -0.246094 " fill-opacity="1" fill-rule="nonzero"/></g></g></g></g></g></g></g></g><g clip-path="url(#a4b78b1997)"><g clip-path="url(#a66999b747)"><g transform="matrix(1, 0, 0, 1, 0, 17)"><g clip-path="url(#e3a87234a3)"><g clip-path="url(#58d80105a9)"><g clip-path="url(#6a36b6b629)"><path fill="#AAB8BA" d="M 5.660156 4.394531 L 0.699219 4.394531 L 0.699219 0.0898438 L 5.660156 0.0898438 Z M 5.660156 4.394531 " fill-opacity="1" fill-rule="nonzero"/></g></g></g></g></g></g></g></g></svg>